NotoSans-ThinItalic.ufo
<glyph name="quotedbl" format="2">
  <advance width="635"/>
  <unicode hex="0022"/>
  <outline>
    <contour>
      <point x="508" y="934" type="line"/>
      <point x="549" y="934" type="line"/>
      <point x="670" y="1462" type="line"/>
      <point x="612" y="1462" type="line"/>
    </contour>
    <contour>
      <point x="225" y="934" type="line"/>
      <point x="266" y="934" type="line"/>
      <point x="387" y="1462" type="line"/>
      <point x="330" y="1462" type="line"/>
    </contour>
  </outline>
</glyph>
<glyph name="percent" format="2">
  <advance width="1563"/>
  <unicode hex="0025"/>
  <outline>
    <contour>
      <point x="246" y="0" type="line"/>
      <point x="307" y="0" type="line"/>
      <point x="1386" y="1462" type="line"/>
      <point x="1325" y="1462" type="line"/>
    </contour>
    <contour>
      <point x="385" y="565" type="curve" smooth="yes"/>
      <point x="659" y="565"/>
      <point x="756" y="997"/>
      <point x="756" y="1219" type="curve" smooth="yes"/>
      <point x="756" y="1397"/>
      <point x="684" y="1483"/>
      <point x="549" y="1483" type="curve" smooth="yes"/>
      <point x="279" y="1483"/>
      <point x="176" y="1069"/>
      <point x="176" y="836" type="curve" smooth="yes"/>
      <point x="176" y="651"/>
      <point x="254" y="565"/>
    </contour>
    <contour>
      <point x="387" y="616" type="curve" smooth="yes"/>
      <point x="291" y="616"/>
      <point x="231" y="686"/>
      <point x="231" y="840" type="curve" smooth="yes"/>
      <point x="231" y="1047"/>
      <point x="319" y="1432"/>
      <point x="547" y="1432" type="curve" smooth="yes"/>
      <point x="649" y="1432"/>
      <point x="700" y="1364"/>
      <point x="700" y="1214" type="curve" smooth="yes"/>
      <point x="700" y="1008"/>
      <point x="616" y="616"/>
    </contour>
    <contour>
      <point x="1079" y="-25" type="curve" smooth="yes"/>
      <point x="1354" y="-25"/>
      <point x="1450" y="408"/>
      <point x="1450" y="629" type="curve" smooth="yes"/>
      <point x="1450" y="807"/>
      <point x="1378" y="893"/>
      <point x="1243" y="893" type="curve" smooth="yes"/>
      <point x="973" y="893"/>
      <point x="870" y="479"/>
      <point x="870" y="246" type="curve" smooth="yes"/>
      <point x="870" y="61"/>
      <point x="948" y="-25"/>
    </contour>
    <contour>
      <point x="1081" y="27" type="curve" smooth="yes"/>
      <point x="985" y="27"/>
      <point x="926" y="96"/>
      <point x="926" y="250" type="curve" smooth="yes"/>
      <point x="926" y="457"/>
      <point x="1014" y="842"/>
      <point x="1241" y="842" type="curve" smooth="yes"/>
      <point x="1343" y="842"/>
      <point x="1395" y="774"/>
      <point x="1395" y="625" type="curve" smooth="yes"/>
      <point x="1395" y="418"/>
      <point x="1311" y="27"/>
    </contour>
  </outline>
</glyph>
<glyph name="ampersand" format="2">
  <advance width="1397"/>
  <unicode hex="0026"/>
  <outline>
    <contour>
      <point x="457" y="-20" type="curve" smooth="yes"/>
      <point x="688" y="-20"/>
      <point x="838" y="78"/>
      <point x="987" y="215" type="curve"/>
      <point x="1135" y="0" type="line"/>
      <point x="1198" y="0" type="line"/>
      <point x="1024" y="248" type="line"/>
      <point x="1137" y="367"/>
      <point x="1237" y="504"/>
      <point x="1311" y="672" type="curve"/>
      <point x="1255" y="672" type="line"/>
      <point x="1192" y="526"/>
      <point x="1094" y="385"/>
      <point x="993" y="287" type="curve"/>
      <point x="633" y="791" type="line"/>
      <point x="877" y="903"/>
      <point x="1061" y="987"/>
      <point x="1061" y="1223" type="curve" smooth="yes"/>
      <point x="1061" y="1372"/>
      <point x="942" y="1485"/>
      <point x="784" y="1485" type="curve" smooth="yes"/>
      <point x="565" y="1485"/>
      <point x="418" y="1335"/>
      <point x="418" y="1126" type="curve" smooth="yes"/>
      <point x="418" y="1020"/>
      <point x="467" y="926"/>
      <point x="555" y="809" type="curve"/>
      <point x="289" y="690"/>
      <point x="96" y="573"/>
      <point x="96" y="299" type="curve" smooth="yes"/>
      <point x="96" y="98"/>
      <point x="250" y="-20"/>
    </contour>
    <contour>
      <point x="463" y="31" type="curve" smooth="yes"/>
      <point x="297" y="31"/>
      <point x="152" y="127"/>
      <point x="152" y="303" type="curve" smooth="yes"/>
      <point x="152" y="543"/>
      <point x="324" y="657"/>
      <point x="584" y="772" type="curve"/>
      <point x="958" y="252" type="line"/>
      <point x="811" y="117"/>
      <point x="676" y="31"/>
    </contour>
    <contour>
      <point x="602" y="827" type="curve"/>
      <point x="518" y="940"/>
      <point x="473" y="1028"/>
      <point x="473" y="1128" type="curve" smooth="yes"/>
      <point x="473" y="1321"/>
      <point x="610" y="1434"/>
      <point x="776" y="1434" type="curve" smooth="yes"/>
      <point x="901" y="1434"/>
      <point x="1006" y="1348"/>
      <point x="1006" y="1223" type="curve" smooth="yes"/>
      <point x="1006" y="995"/>
      <point x="772" y="901"/>
    </contour>
  </outline>
</glyph>
<glyph name="one" format="2">
  <advance width="1126"/>
  <unicode hex="0031"/>
  <outline>
    <contour>
      <point x="469" y="0" type="line"/>
      <point x="524" y="0" type="line"/>
      <point x="834" y="1462" type="line"/>
      <point x="782" y="1462" type="line"/>
      <point x="340" y="1169" type="line"/>
      <point x="367" y="1128" type="line"/>
      <point x="645" y="1313" type="line" smooth="yes"/>
      <point x="702" y="1352"/>
      <point x="733" y="1374"/>
      <point x="770" y="1403" type="curve"/>
      <point x="756" y="1348"/>
      <point x="737" y="1270"/>
      <point x="713" y="1153" type="curve" smooth="yes"/>
    </contour>
  </outline>
</glyph>
<glyph name="two" format="2">
  <advance width="1126"/>
  <unicode hex="0032"/>
  <outline>
    <contour>
      <point x="20" y="0" type="line"/>
      <point x="860" y="0" type="line"/>
      <point x="870" y="51" type="line"/>
      <point x="106" y="51" type="line"/>
      <point x="106" y="53" type="line"/>
      <point x="608" y="504" type="line" smooth="yes"/>
      <point x="838" y="709"/>
      <point x="1038" y="907"/>
      <point x="1038" y="1186" type="curve" smooth="yes"/>
      <point x="1038" y="1360"/>
      <point x="913" y="1483"/>
      <point x="721" y="1483" type="curve" smooth="yes"/>
      <point x="614" y="1483"/>
      <point x="477" y="1446"/>
      <point x="338" y="1341" type="curve"/>
      <point x="365" y="1300" type="line"/>
      <point x="489" y="1389"/>
      <point x="608" y="1432"/>
      <point x="721" y="1432" type="curve" smooth="yes"/>
      <point x="881" y="1432"/>
      <point x="985" y="1341"/>
      <point x="985" y="1186" type="curve" smooth="yes"/>
      <point x="985" y="905"/>
      <point x="754" y="705"/>
      <point x="569" y="537" type="curve" smooth="yes"/>
      <point x="29" y="47" type="line"/>
    </contour>
  </outline>
</glyph>
<glyph name="five" format="2">
  <advance width="1126"/>
  <unicode hex="0035"/>
  <outline>
    <contour>
      <point x="422" y="-20" type="curve" smooth="yes"/>
      <point x="711" y="-20"/>
      <point x="973" y="150"/>
      <point x="973" y="506" type="curve" smooth="yes"/>
      <point x="973" y="725"/>
      <point x="815" y="874"/>
      <point x="584" y="874" type="curve" smooth="yes"/>
      <point x="463" y="874"/>
      <point x="381" y="854"/>
      <point x="315" y="836" type="curve"/>
      <point x="489" y="1411" type="line"/>
      <point x="1090" y="1411" type="line"/>
      <point x="1100" y="1462" type="line"/>
      <point x="451" y="1462" type="line"/>
      <point x="254" y="805" type="line"/>
      <point x="285" y="776" type="line"/>
      <point x="387" y="805"/>
      <point x="463" y="823"/>
      <point x="584" y="823" type="curve" smooth="yes"/>
      <point x="799" y="823"/>
      <point x="918" y="696"/>
      <point x="918" y="504" type="curve" smooth="yes"/>
      <point x="918" y="178"/>
      <point x="686" y="31"/>
      <point x="426" y="31" type="curve" smooth="yes"/>
      <point x="291" y="31"/>
      <point x="154" y="72"/>
      <point x="78" y="127" type="curve"/>
      <point x="78" y="66" type="line"/>
      <point x="150" y="16"/>
      <point x="281" y="-20"/>
    </contour>
  </outline>
</glyph>
<glyph name="less" format="2">
  <advance width="1167"/>
  <unicode hex="003C"/>
  <outline>
    <contour>
      <point x="1094" y="283" type="line"/>
      <point x="1094" y="336" type="line"/>
      <point x="227" y="741" type="line"/>
      <point x="1094" y="1147" type="line"/>
      <point x="1094" y="1200" type="line"/>
      <point x="156" y="760" type="line"/>
      <point x="156" y="723" type="line"/>
    </contour>
  </outline>
</glyph>
<glyph name="D" format="2">
  <advance width="1386"/>
  <unicode hex="0044"/>
  <anchor x="580" y="0" name="bottom"/>
  <anchor x="735" y="731" name="center"/>
  <anchor x="891" y="1462" name="top"/>
  <anchor x="1542" y="1462" name="topright"/>
  <outline>
    <contour>
      <point x="102" y="0" type="line"/>
      <point x="401" y="0" type="line" smooth="yes"/>
      <point x="1018" y="0"/>
      <point x="1305" y="422"/>
      <point x="1305" y="870" type="curve" smooth="yes"/>
      <point x="1305" y="1270"/>
      <point x="1081" y="1462"/>
      <point x="709" y="1462" type="curve" smooth="yes"/>
      <point x="412" y="1462" type="line"/>
    </contour>
    <contour>
      <point x="168" y="51" type="line"/>
      <point x="457" y="1411" type="line"/>
      <point x="688" y="1411" type="line" smooth="yes"/>
      <point x="1047" y="1411"/>
      <point x="1249" y="1241"/>
      <point x="1249" y="870" type="curve" smooth="yes"/>
      <point x="1249" y="432"/>
      <point x="961" y="51"/>
      <point x="403" y="51" type="curve" smooth="yes"/>
    </contour>
  </outline>
</glyph>
<glyph name="J" format="2">
  <advance width="473"/>
  <unicode hex="004A"/>
  <anchor x="-180" y="-356" name="bottom"/>
  <anchor x="434" y="1462" name="top"/>
  <anchor x="629" y="1462" name="topright"/>
  <outline>
    <contour>
      <point x="-180" y="-356" type="curve" smooth="yes"/>
      <point x="6" y="-356"/>
      <point x="111" y="-250"/>
      <point x="158" y="-27" type="curve" smooth="yes"/>
      <point x="473" y="1462" type="line"/>
      <point x="418" y="1462" type="line"/>
      <point x="104" y="-18" type="line" smooth="yes"/>
      <point x="68" y="-190"/>
      <point x="-4" y="-303"/>
      <point x="-178" y="-303" type="curve" smooth="yes"/>
      <point x="-229" y="-303"/>
      <point x="-295" y="-295"/>
      <point x="-346" y="-279" type="curve"/>
      <point x="-348" y="-330" type="line"/>
      <point x="-309" y="-344"/>
      <point x="-242" y="-356"/>
    </contour>
  </outline>
</glyph>
<glyph name="L" format="2">
  <advance width="1006"/>
  <unicode hex="004C"/>
  <anchor x="389" y="0" name="bottom"/>
  <anchor x="545" y="731" name="center"/>
  <anchor x="700" y="1462" name="top"/>
  <anchor x="977" y="1462" name="topright"/>
  <outline>
    <contour>
      <point x="102" y="0" type="line"/>
      <point x="831" y="0" type="line"/>
      <point x="842" y="51" type="line"/>
      <point x="168" y="51" type="line"/>
      <point x="467" y="1462" type="line"/>
      <point x="412" y="1462" type="line"/>
    </contour>
  </outline>
</glyph>
<glyph name="Q" format="2">
  <advance width="1466"/>
  <unicode hex="0051"/>
  <anchor x="545" y="-348" name="bottom"/>
  <anchor x="930" y="1462" name="top"/>
  <anchor x="1622" y="1462" name="topright"/>
  <outline>
    <contour>
      <point x="911" y="-348" type="line"/>
      <point x="983" y="-348" type="line"/>
      <point x="752" y="-18" type="line"/>
      <point x="1247" y="31"/>
      <point x="1384" y="606"/>
      <point x="1384" y="913" type="curve" smooth="yes"/>
      <point x="1384" y="1303"/>
      <point x="1186" y="1485"/>
      <point x="883" y="1485" type="curve" smooth="yes"/>
      <point x="395" y="1485"/>
      <point x="172" y="1014"/>
      <point x="172" y="565" type="curve" smooth="yes"/>
      <point x="172" y="236"/>
      <point x="315" y="-14"/>
      <point x="666" y="-20" type="curve" smooth="yes"/>
      <point x="674" y="-20"/>
      <point x="678" y="-20"/>
      <point x="682" y="-20" type="curve"/>
    </contour>
    <contour>
      <point x="686" y="31" type="curve" smooth="yes"/>
      <point x="362" y="31"/>
      <point x="227" y="252"/>
      <point x="227" y="567" type="curve" smooth="yes"/>
      <point x="227" y="922"/>
      <point x="395" y="1434"/>
      <point x="879" y="1434" type="curve" smooth="yes"/>
      <point x="1186" y="1434"/>
      <point x="1329" y="1233"/>
      <point x="1329" y="911" type="curve" smooth="yes"/>
      <point x="1329" y="590"/>
      <point x="1169" y="31"/>
    </contour>
  </outline>
</glyph>
<glyph name="U" format="2">
  <advance width="1417"/>
  <unicode hex="0055"/>
  <anchor x="594" y="0" name="bottom"/>
  <anchor x="905" y="1462" name="top"/>
  <anchor x="1573" y="1462" name="topright"/>
  <outline>
    <contour>
      <point x="614" y="-20" type="curve" smooth="yes"/>
      <point x="918" y="-20"/>
      <point x="1139" y="141"/>
      <point x="1219" y="516" type="curve" smooth="yes"/>
      <point x="1419" y="1462" type="line"/>
      <point x="1364" y="1462" type="line"/>
      <point x="1163" y="526" type="line" smooth="yes"/>
      <point x="1092" y="193"/>
      <point x="893" y="31"/>
      <point x="616" y="31" type="curve" smooth="yes"/>
      <point x="385" y="31"/>
      <point x="238" y="152"/>
      <point x="238" y="379" type="curve" smooth="yes"/>
      <point x="238" y="422"/>
      <point x="244" y="473"/>
      <point x="254" y="524" type="curve" smooth="yes"/>
      <point x="453" y="1462" type="line"/>
      <point x="397" y="1462" type="line"/>
      <point x="197" y="520" type="line" smooth="yes"/>
      <point x="186" y="467"/>
      <point x="180" y="420"/>
      <point x="180" y="375" type="curve" smooth="yes"/>
      <point x="180" y="119"/>
      <point x="352" y="-20"/>
    </contour>
  </outline>
</glyph>
<glyph name="n" format="2">
  <advance width="1133"/>
  <unicode hex="006E"/>
  <anchor x="453" y="0" name="bottom"/>
  <anchor x="682" y="1081" name="top"/>
  <anchor x="1206" y="1081" name="topright"/>
  <outline>
    <contour>
      <point x="66" y="0" type="line"/>
      <point x="119" y="0" type="line"/>
      <point x="238" y="561" type="line" smooth="yes"/>
      <point x="291" y="815"/>
      <point x="498" y="1051"/>
      <point x="725" y="1051" type="curve" smooth="yes"/>
      <point x="870" y="1051"/>
      <point x="956" y="981"/>
      <point x="956" y="827" type="curve" smooth="yes"/>
      <point x="956" y="793"/>
      <point x="952" y="752"/>
      <point x="942" y="707" type="curve" smooth="yes"/>
      <point x="793" y="0" type="line"/>
      <point x="846" y="0" type="line"/>
      <point x="993" y="700" type="line" smooth="yes"/>
      <point x="1004" y="748"/>
      <point x="1010" y="797"/>
      <point x="1010" y="836" type="curve" smooth="yes"/>
      <point x="1010" y="1010"/>
      <point x="911" y="1102"/>
      <point x="733" y="1102" type="curve" smooth="yes"/>
      <point x="514" y="1102"/>
      <point x="354" y="926"/>
      <point x="287" y="797" type="curve"/>
      <point x="283" y="797" type="line"/>
      <point x="340" y="1081" type="line"/>
      <point x="295" y="1081" type="line"/>
    </contour>
  </outline>
</glyph>
<glyph name="p" format="2">
  <advance width="1163"/>
  <unicode hex="0070"/>
  <anchor x="367" y="-475" name="bottom"/>
  <anchor x="696" y="1081" name="top"/>
  <anchor x="1237" y="1081" name="topright"/>
  <outline>
    <contour>
      <point x="-35" y="-475" type="line"/>
      <point x="18" y="-475" type="line"/>
      <point x="113" y="-31" type="line" smooth="yes"/>
      <point x="131" y="55"/>
      <point x="152" y="156"/>
      <point x="166" y="248" type="curve"/>
      <point x="170" y="248" type="line"/>
      <point x="190" y="115"/>
      <point x="283" y="-20"/>
      <point x="489" y="-20" type="curve" smooth="yes"/>
      <point x="870" y="-20"/>
      <point x="1051" y="385"/>
      <point x="1051" y="717" type="curve" smooth="yes"/>
      <point x="1051" y="948"/>
      <point x="928" y="1102"/>
      <point x="731" y="1102" type="curve" smooth="yes"/>
      <point x="518" y="1102"/>
      <point x="365" y="940"/>
      <point x="287" y="797" type="curve"/>
      <point x="283" y="797" type="line"/>
      <point x="340" y="1081" type="line"/>
      <point x="295" y="1081" type="line"/>
    </contour>
    <contour>
      <point x="492" y="31" type="curve" smooth="yes"/>
      <point x="324" y="31"/>
      <point x="207" y="135"/>
      <point x="207" y="348" type="curve" smooth="yes"/>
      <point x="207" y="700"/>
      <point x="438" y="1051"/>
      <point x="721" y="1051" type="curve" smooth="yes"/>
      <point x="895" y="1051"/>
      <point x="995" y="922"/>
      <point x="995" y="717" type="curve" smooth="yes"/>
      <point x="995" y="395"/>
      <point x="829" y="31"/>
    </contour>
  </outline>
</glyph>
<glyph name="u" format="2">
  <advance width="1133"/>
  <unicode hex="0075"/>
  <anchor x="453" y="0" name="bottom"/>
  <anchor x="682" y="1081" name="top"/>
  <anchor x="1206" y="1081" name="topright"/>
  <outline>
    <contour>
      <point x="389" y="-20" type="curve" smooth="yes"/>
      <point x="608" y="-20"/>
      <point x="768" y="156"/>
      <point x="836" y="285" type="curve"/>
      <point x="840" y="285" type="line"/>
      <point x="782" y="0" type="line"/>
      <point x="827" y="0" type="line"/>
      <point x="1057" y="1081" type="line"/>
      <point x="1004" y="1081" type="line"/>
      <point x="885" y="520" type="line" smooth="yes"/>
      <point x="831" y="266"/>
      <point x="625" y="31"/>
      <point x="397" y="31" type="curve" smooth="yes"/>
      <point x="252" y="31"/>
      <point x="166" y="100"/>
      <point x="166" y="254" type="curve" smooth="yes"/>
      <point x="166" y="289"/>
      <point x="170" y="330"/>
      <point x="180" y="375" type="curve" smooth="yes"/>
      <point x="330" y="1081" type="line"/>
      <point x="276" y="1081" type="line"/>
      <point x="129" y="381" type="line" smooth="yes"/>
      <point x="119" y="334"/>
      <point x="113" y="285"/>
      <point x="113" y="246" type="curve" smooth="yes"/>
      <point x="113" y="72"/>
      <point x="211" y="-20"/>
    </contour>
  </outline>
</glyph>
<glyph name="bar" format="2">
  <advance width="1096"/>
  <unicode hex="007C"/>
  <outline>
    <contour>
      <point x="578" y="-494" type="line"/>
      <point x="629" y="-494" type="line"/>
      <point x="629" y="1556" type="line"/>
      <point x="578" y="1556" type="line"/>
    </contour>
  </outline>
</glyph>
<glyph name="asciitilde" format="2">
  <advance width="1167"/>
  <unicode hex="007E"/>
  <outline>
    <contour>
      <point x="618" y="700" type="curve" smooth="yes"/>
      <point x="700" y="659"/>
      <point x="762" y="633"/>
      <point x="860" y="633" type="curve" smooth="yes"/>
      <point x="958" y="633"/>
      <point x="1042" y="678"/>
      <point x="1094" y="733" type="curve"/>
      <point x="1094" y="793" type="line"/>
      <point x="1012" y="707"/>
      <point x="934" y="682"/>
      <point x="860" y="682" type="curve" smooth="yes"/>
      <point x="776" y="682"/>
      <point x="719" y="709"/>
      <point x="645" y="745" type="curve" smooth="yes"/>
      <point x="567" y="784"/>
      <point x="510" y="813"/>
      <point x="395" y="813" type="curve" smooth="yes"/>
      <point x="305" y="813"/>
      <point x="217" y="774"/>
      <point x="156" y="715" type="curve"/>
      <point x="156" y="651" type="line"/>
      <point x="233" y="733"/>
      <point x="315" y="764"/>
      <point x="395" y="764" type="curve" smooth="yes"/>
      <point x="492" y="764"/>
      <point x="545" y="737"/>
    </contour>
  </outline>
</glyph>
<glyph name="cent" format="2">
  <advance width="1126"/>
  <unicode hex="00A2"/>
  <outline>
    <contour>
      <point x="487" y="-20" type="line"/>
      <point x="539" y="-20" type="line"/>
      <point x="582" y="186" type="line"/>
      <point x="674" y="186"/>
      <point x="762" y="190"/>
      <point x="866" y="246" type="curve"/>
      <point x="866" y="295" type="line"/>
      <point x="778" y="252"/>
      <point x="692" y="236"/>
      <point x="600" y="236" type="curve" smooth="yes"/>
      <point x="393" y="236"/>
      <point x="274" y="389"/>
      <point x="274" y="594" type="curve" smooth="yes"/>
      <point x="274" y="963"/>
      <point x="481" y="1255"/>
      <point x="784" y="1255" type="curve" smooth="yes"/>
      <point x="858" y="1255"/>
      <point x="954" y="1241"/>
      <point x="1022" y="1206" type="curve"/>
      <point x="1038" y="1257" type="line"/>
      <point x="975" y="1288"/>
      <point x="889" y="1305"/>
      <point x="807" y="1307" type="curve"/>
      <point x="844" y="1483" type="line"/>
      <point x="793" y="1483" type="line"/>
      <point x="756" y="1307" type="line"/>
      <point x="422" y="1288"/>
      <point x="219" y="963"/>
      <point x="219" y="592" type="curve" smooth="yes"/>
      <point x="219" y="385"/>
      <point x="332" y="219"/>
      <point x="532" y="190" type="curve"/>
    </contour>
  </outline>
</glyph>
<glyph name="yen" format="2">
  <advance width="1126"/>
  <unicode hex="00A5"/>
  <outline>
    <contour>
      <point x="414" y="0" type="line"/>
      <point x="469" y="0" type="line"/>
      <point x="539" y="332" type="line"/>
      <point x="877" y="332" type="line"/>
      <point x="887" y="383" type="line"/>
      <point x="549" y="383" type="line"/>
      <point x="596" y="610" type="line"/>
      <point x="936" y="610" type="line"/>
      <point x="946" y="662" type="line"/>
      <point x="625" y="662" type="line"/>
      <point x="1251" y="1462" type="line"/>
      <point x="1188" y="1462" type="line"/>
      <point x="580" y="684" type="line"/>
      <point x="301" y="1462" type="line"/>
      <point x="246" y="1462" type="line"/>
      <point x="535" y="662" type="line"/>
      <point x="213" y="662" type="line"/>
      <point x="203" y="610" type="line"/>
      <point x="543" y="610" type="line"/>
      <point x="496" y="383" type="line"/>
      <point x="154" y="383" type="line"/>
      <point x="143" y="332" type="line"/>
      <point x="483" y="332" type="line"/>
    </contour>
  </outline>
</glyph>
<glyph name="logicalnot" format="2">
  <advance width="1167"/>
  <unicode hex="00AC"/>
  <outline>
    <contour>
      <point x="1061" y="748" type="line"/>
      <point x="154" y="748" type="line"/>
      <point x="154" y="698" type="line"/>
      <point x="1012" y="698" type="line"/>
      <point x="1012" y="270" type="line"/>
      <point x="1061" y="270" type="line"/>
    </contour>
  </outline>
</glyph>
<glyph name="threesuperior" format="2">
  <advance width="639"/>
  <unicode hex="00B3"/>
  <outline>
    <contour>
      <point x="352" y="844" type="curve" smooth="yes"/>
      <point x="549" y="844"/>
      <point x="700" y="930"/>
      <point x="700" y="1130" type="curve" smooth="yes"/>
      <point x="700" y="1221"/>
      <point x="647" y="1288"/>
      <point x="571" y="1309" type="curve"/>
      <point x="571" y="1313" type="line"/>
      <point x="674" y="1337"/>
      <point x="770" y="1411"/>
      <point x="770" y="1554" type="curve" smooth="yes"/>
      <point x="770" y="1669"/>
      <point x="688" y="1743"/>
      <point x="559" y="1743" type="curve" smooth="yes"/>
      <point x="455" y="1743"/>
      <point x="362" y="1710"/>
      <point x="281" y="1659" type="curve"/>
      <point x="301" y="1614" type="line"/>
      <point x="383" y="1661"/>
      <point x="461" y="1692"/>
      <point x="557" y="1692" type="curve" smooth="yes"/>
      <point x="659" y="1692"/>
      <point x="713" y="1634"/>
      <point x="713" y="1548" type="curve" smooth="yes"/>
      <point x="713" y="1409"/>
      <point x="584" y="1337"/>
      <point x="434" y="1337" type="curve" smooth="yes"/>
      <point x="338" y="1337" type="line"/>
      <point x="328" y="1286" type="line"/>
      <point x="424" y="1286" type="line" smooth="yes"/>
      <point x="565" y="1286"/>
      <point x="643" y="1229"/>
      <point x="643" y="1130" type="curve" smooth="yes"/>
      <point x="643" y="971"/>
      <point x="522" y="895"/>
      <point x="352" y="895" type="curve" smooth="yes"/>
      <point x="264" y="895"/>
      <point x="193" y="918"/>
      <point x="121" y="952" type="curve"/>
      <point x="121" y="895" type="line"/>
      <point x="180" y="864"/>
      <point x="262" y="844"/>
    </contour>
  </outline>
</glyph>
<glyph name="idotless" format="2">
  <advance width="424"/>
  <unicode hex="0131"/>
  <anchor x="98" y="0" name="bottom"/>
  <anchor x="328" y="1081" name="top"/>
  <outline>
    <contour>
      <point x="66" y="0" type="line"/>
      <point x="119" y="0" type="line"/>
      <point x="348" y="1081" type="line"/>
      <point x="295" y="1081" type="line"/>
    </contour>
  </outline>
</glyph>
<glyph name="uni0180" format="2">
  <advance width="1133"/>
  <unicode hex="0180"/>
  <anchor x="453" y="0" name="bottom"/>
  <anchor x="782" y="1556" name="top"/>
  <outline>
    <contour>
      <point x="489" y="-20" type="curve" smooth="yes"/>
      <point x="870" y="-20"/>
      <point x="1051" y="385"/>
      <point x="1051" y="717" type="curve" smooth="yes"/>
      <point x="1051" y="948"/>
      <point x="928" y="1102"/>
      <point x="731" y="1102" type="curve" smooth="yes"/>
      <point x="518" y="1102"/>
      <point x="360" y="936"/>
      <point x="285" y="797" type="curve"/>
      <point x="281" y="797" type="line"/>
      <point x="307" y="903"/>
      <point x="338" y="1034"/>
      <point x="393" y="1298" type="curve"/>
      <point x="760" y="1298" type="line"/>
      <point x="770" y="1350" type="line"/>
      <point x="406" y="1350" type="line"/>
      <point x="449" y="1556" type="line"/>
      <point x="395" y="1556" type="line"/>
      <point x="352" y="1350" type="line"/>
      <point x="213" y="1350" type="line"/>
      <point x="205" y="1298" type="line"/>
      <point x="340" y="1298" type="line"/>
      <point x="66" y="0" type="line"/>
      <point x="113" y="0" type="line"/>
      <point x="166" y="248" type="line"/>
      <point x="170" y="248" type="line"/>
      <point x="190" y="115"/>
      <point x="283" y="-20"/>
    </contour>
    <contour>
      <point x="492" y="31" type="curve" smooth="yes"/>
      <point x="324" y="31"/>
      <point x="207" y="135"/>
      <point x="207" y="348" type="curve" smooth="yes"/>
      <point x="207" y="686"/>
      <point x="422" y="1051"/>
      <point x="721" y="1051" type="curve" smooth="yes"/>
      <point x="895" y="1051"/>
      <point x="995" y="922"/>
      <point x="995" y="717" type="curve" smooth="yes"/>
      <point x="995" y="395"/>
      <point x="829" y="31"/>
    </contour>
  </outline>
</glyph>
<glyph name="uni0181" format="2">
  <advance width="1366"/>
  <unicode hex="0181"/>
  <anchor x="551" y="0" name="bottom"/>
  <anchor x="862" y="1462" name="top"/>
  <outline>
    <contour>
      <point x="244" y="0" type="line"/>
      <point x="633" y="0" type="line" smooth="yes"/>
      <point x="969" y="0"/>
      <point x="1223" y="139"/>
      <point x="1223" y="457" type="curve" smooth="yes"/>
      <point x="1223" y="621"/>
      <point x="1141" y="729"/>
      <point x="979" y="766" type="curve"/>
      <point x="981" y="770" type="line"/>
      <point x="1198" y="807"/>
      <point x="1329" y="950"/>
      <point x="1329" y="1169" type="curve" smooth="yes"/>
      <point x="1329" y="1350"/>
      <point x="1208" y="1462"/>
      <point x="924" y="1462" type="curve" smooth="yes"/>
      <point x="489" y="1462" type="line" smooth="yes"/>
      <point x="297" y="1462"/>
      <point x="190" y="1329"/>
      <point x="190" y="1153" type="curve" smooth="yes"/>
      <point x="190" y="1104"/>
      <point x="199" y="1071"/>
      <point x="205" y="1051" type="curve"/>
      <point x="260" y="1051" type="line"/>
      <point x="254" y="1069"/>
      <point x="246" y="1104"/>
      <point x="246" y="1153" type="curve" smooth="yes"/>
      <point x="246" y="1290"/>
      <point x="319" y="1411"/>
      <point x="489" y="1411" type="curve" smooth="yes"/>
      <point x="543" y="1411" type="line"/>
    </contour>
    <contour>
      <point x="309" y="51" type="line"/>
      <point x="457" y="743" type="line"/>
      <point x="784" y="743" type="line" smooth="yes"/>
      <point x="1018" y="743"/>
      <point x="1167" y="664"/>
      <point x="1167" y="457" type="curve" smooth="yes"/>
      <point x="1167" y="166"/>
      <point x="930" y="51"/>
      <point x="657" y="51" type="curve" smooth="yes"/>
    </contour>
    <contour>
      <point x="467" y="795" type="line"/>
      <point x="598" y="1411" type="line"/>
      <point x="911" y="1411" type="line" smooth="yes"/>
      <point x="1155" y="1411"/>
      <point x="1274" y="1329"/>
      <point x="1274" y="1169" type="curve" smooth="yes"/>
      <point x="1274" y="909"/>
      <point x="1081" y="795"/>
      <point x="801" y="795" type="curve" smooth="yes"/>
    </contour>
  </outline>
</glyph>
<glyph name="uni0184" format="2">
  <advance width="1067"/>
  <unicode hex="0184"/>
  <anchor x="420" y="0" name="bottom"/>
  <anchor x="731" y="1462" name="top"/>
  <outline>
    <contour>
      <point x="537" y="10" type="curve" smooth="yes"/>
      <point x="848" y="10"/>
      <point x="983" y="240"/>
      <point x="983" y="479" type="curve" smooth="yes"/>
      <point x="983" y="682"/>
      <point x="870" y="795"/>
      <point x="616" y="795" type="curve" smooth="yes"/>
      <point x="350" y="795" type="line"/>
      <point x="496" y="1462" type="line"/>
      <point x="442" y="1462" type="line"/>
      <point x="240" y="530" type="line" smooth="yes"/>
      <point x="219" y="434"/>
      <point x="207" y="371"/>
      <point x="207" y="305" type="curve" smooth="yes"/>
      <point x="207" y="135"/>
      <point x="313" y="10"/>
    </contour>
    <contour>
      <point x="539" y="61" type="curve" smooth="yes"/>
      <point x="348" y="61"/>
      <point x="262" y="164"/>
      <point x="262" y="305" type="curve" smooth="yes"/>
      <point x="262" y="371"/>
      <point x="272" y="434"/>
      <point x="293" y="530" type="curve" smooth="yes"/>
      <point x="340" y="743" type="line"/>
      <point x="606" y="743" type="line" smooth="yes"/>
      <point x="827" y="743"/>
      <point x="928" y="664"/>
      <point x="928" y="473" type="curve" smooth="yes"/>
      <point x="928" y="274"/>
      <point x="834" y="61"/>
    </contour>
  </outline>
</glyph>
<glyph name="uni018A" format="2">
  <advance width="1481"/>
  <unicode hex="018A"/>
  <anchor x="627" y="0" name="bottom"/>
  <anchor x="938" y="1462" name="top"/>
  <outline>
    <contour>
      <point x="246" y="0" type="line"/>
      <point x="545" y="0" type="line" smooth="yes"/>
      <point x="1161" y="0"/>
      <point x="1448" y="422"/>
      <point x="1448" y="870" type="curve" smooth="yes"/>
      <point x="1448" y="1270"/>
      <point x="1225" y="1462"/>
      <point x="852" y="1462" type="curve" smooth="yes"/>
      <point x="489" y="1462" type="line" smooth="yes"/>
      <point x="297" y="1462"/>
      <point x="190" y="1329"/>
      <point x="190" y="1153" type="curve" smooth="yes"/>
      <point x="190" y="1104"/>
      <point x="199" y="1071"/>
      <point x="205" y="1051" type="curve"/>
      <point x="260" y="1051" type="line"/>
      <point x="254" y="1069"/>
      <point x="246" y="1104"/>
      <point x="246" y="1153" type="curve" smooth="yes"/>
      <point x="246" y="1290"/>
      <point x="319" y="1411"/>
      <point x="489" y="1411" type="curve" smooth="yes"/>
      <point x="545" y="1411" type="line"/>
    </contour>
    <contour>
      <point x="311" y="51" type="line"/>
      <point x="600" y="1411" type="line"/>
      <point x="831" y="1411" type="line" smooth="yes"/>
      <point x="1190" y="1411"/>
      <point x="1393" y="1241"/>
      <point x="1393" y="870" type="curve" smooth="yes"/>
      <point x="1393" y="432"/>
      <point x="1104" y="51"/>
      <point x="547" y="51" type="curve" smooth="yes"/>
    </contour>
  </outline>
</glyph>
<glyph name="uni018C" format="2">
  <advance width="1104"/>
  <unicode hex="018C"/>
  <anchor x="438" y="0" name="bottom"/>
  <anchor x="768" y="1556" name="top"/>
  <outline>
    <contour>
      <point x="412" y="-20" type="curve" smooth="yes"/>
      <point x="621" y="-20"/>
      <point x="780" y="147"/>
      <point x="866" y="289" type="curve"/>
      <point x="870" y="289" type="line"/>
      <point x="813" y="0" type="line"/>
      <point x="858" y="0" type="line"/>
      <point x="1188" y="1556" type="line"/>
      <point x="475" y="1556" type="line"/>
      <point x="465" y="1505" type="line"/>
      <point x="1124" y="1505" type="line"/>
      <point x="1040" y="1112" type="line" smooth="yes"/>
      <point x="1022" y="1026"/>
      <point x="1001" y="926"/>
      <point x="987" y="834" type="curve"/>
      <point x="983" y="834" type="line"/>
      <point x="965" y="958"/>
      <point x="870" y="1102"/>
      <point x="664" y="1102" type="curve" smooth="yes"/>
      <point x="285" y="1102"/>
      <point x="104" y="696"/>
      <point x="104" y="365" type="curve" smooth="yes"/>
      <point x="104" y="133"/>
      <point x="201" y="-20"/>
    </contour>
    <contour>
      <point x="416" y="31" type="curve" smooth="yes"/>
      <point x="244" y="31"/>
      <point x="160" y="154"/>
      <point x="160" y="365" type="curve" smooth="yes"/>
      <point x="160" y="686"/>
      <point x="326" y="1051"/>
      <point x="662" y="1051" type="curve" smooth="yes"/>
      <point x="829" y="1051"/>
      <point x="948" y="946"/>
      <point x="948" y="733" type="curve" smooth="yes"/>
      <point x="948" y="354"/>
      <point x="676" y="31"/>
    </contour>
  </outline>
</glyph>
<glyph name="uni0191" format="2">
  <advance width="1145"/>
  <unicode hex="0191"/>
  <anchor x="131" y="0" name="bottom"/>
  <anchor x="885" y="1462" name="top"/>
  <anchor x="1341" y="1462" name="topright"/>
  <outline>
    <contour>
      <point x="158" y="-23" type="curve" smooth="yes"/>
      <point x="350" y="-23"/>
      <point x="416" y="135"/>
      <point x="467" y="379" type="curve" smooth="yes"/>
      <point x="545" y="743" type="line"/>
      <point x="1106" y="743" type="line"/>
      <point x="1118" y="795" type="line"/>
      <point x="557" y="795" type="line"/>
      <point x="686" y="1411" type="line"/>
      <point x="1284" y="1411" type="line"/>
      <point x="1294" y="1462" type="line"/>
      <point x="641" y="1462" type="line"/>
      <point x="412" y="383" type="line" smooth="yes"/>
      <point x="369" y="176"/>
      <point x="317" y="29"/>
      <point x="156" y="29" type="curve" smooth="yes"/>
      <point x="8" y="29"/>
      <point x="-47" y="135"/>
      <point x="-47" y="233" type="curve" smooth="yes"/>
      <point x="-47" y="283"/>
      <point x="-37" y="317"/>
      <point x="-25" y="352" type="curve"/>
      <point x="-78" y="371" type="line"/>
      <point x="-90" y="336"/>
      <point x="-102" y="293"/>
      <point x="-102" y="238" type="curve" smooth="yes"/>
      <point x="-102" y="106"/>
      <point x="-31" y="-23"/>
    </contour>
  </outline>
</glyph>
<glyph name="uni019D" format="2">
  <advance width="1380"/>
  <unicode hex="019D"/>
  <anchor x="498" y="-369" name="bottom"/>
  <anchor x="887" y="1462" name="top"/>
  <outline>
    <contour>
      <point x="-72" y="-369" type="curve" smooth="yes"/>
      <point x="47" y="-369"/>
      <point x="94" y="-295"/>
      <point x="119" y="-176" type="curve" smooth="yes"/>
      <point x="375" y="1028" type="line" smooth="yes"/>
      <point x="397" y="1137"/>
      <point x="414" y="1231"/>
      <point x="438" y="1350" type="curve"/>
      <point x="442" y="1350" type="line"/>
      <point x="1020" y="0" type="line"/>
      <point x="1061" y="0" type="line"/>
      <point x="1370" y="1462" type="line"/>
      <point x="1317" y="1462" type="line"/>
      <point x="1098" y="432" type="line" smooth="yes"/>
      <point x="1077" y="336"/>
      <point x="1055" y="217"/>
      <point x="1034" y="111" type="curve"/>
      <point x="1030" y="111" type="line"/>
      <point x="451" y="1462" type="line"/>
      <point x="412" y="1462" type="line"/>
      <point x="68" y="-170" type="line" smooth="yes"/>
      <point x="49" y="-256"/>
      <point x="23" y="-317"/>
      <point x="-68" y="-317" type="curve" smooth="yes"/>
      <point x="-113" y="-317"/>
      <point x="-143" y="-301"/>
      <point x="-160" y="-287" type="curve"/>
      <point x="-172" y="-340" type="line"/>
      <point x="-150" y="-354"/>
      <point x="-119" y="-369"/>
    </contour>
  </outline>
</glyph>
<glyph name="uni01AB" format="2">
  <advance width="633"/>
  <unicode hex="01AB"/>
  <anchor x="98" y="-492" name="bottom"/>
  <anchor x="489" y="1350" name="top"/>
  <outline>
    <contour>
      <point x="162" y="-492" type="curve" smooth="yes"/>
      <point x="281" y="-492"/>
      <point x="328" y="-418"/>
      <point x="352" y="-299" type="curve" smooth="yes"/>
      <point x="424" y="41" type="line"/>
      <point x="403" y="35"/>
      <point x="377" y="31"/>
      <point x="348" y="31" type="curve" smooth="yes"/>
      <point x="209" y="31"/>
      <point x="164" y="94"/>
      <point x="164" y="184" type="curve" smooth="yes"/>
      <point x="164" y="219"/>
      <point x="168" y="268"/>
      <point x="180" y="324" type="curve" smooth="yes"/>
      <point x="330" y="1030" type="line"/>
      <point x="664" y="1030" type="line"/>
      <point x="676" y="1081" type="line"/>
      <point x="342" y="1081" type="line"/>
      <point x="399" y="1350" type="line"/>
      <point x="356" y="1350" type="line"/>
      <point x="287" y="1081" type="line"/>
      <point x="129" y="1075" type="line"/>
      <point x="119" y="1030" type="line"/>
      <point x="276" y="1030" type="line"/>
      <point x="125" y="317" type="line" smooth="yes"/>
      <point x="115" y="264"/>
      <point x="109" y="215"/>
      <point x="109" y="180" type="curve" smooth="yes"/>
      <point x="109" y="61"/>
      <point x="168" y="-18"/>
      <point x="360" y="-20" type="curve"/>
      <point x="301" y="-293" type="line" smooth="yes"/>
      <point x="283" y="-379"/>
      <point x="256" y="-440"/>
      <point x="166" y="-440" type="curve" smooth="yes"/>
      <point x="121" y="-440"/>
      <point x="88" y="-424"/>
      <point x="68" y="-410" type="curve"/>
      <point x="55" y="-463" type="line"/>
      <point x="82" y="-477"/>
      <point x="115" y="-492"/>
    </contour>
  </outline>
</glyph>
<glyph name="uni01B5" format="2">
  <advance width="1102"/>
  <unicode hex="01B5"/>
  <anchor x="436" y="0" name="bottom"/>
  <anchor x="748" y="1462" name="top"/>
  <outline>
    <contour>
      <point x="-16" y="0" type="line"/>
      <point x="883" y="0" type="line"/>
      <point x="893" y="51" type="line"/>
      <point x="70" y="51" type="line"/>
      <point x="612" y="733" type="line"/>
      <point x="928" y="733" type="line"/>
      <point x="938" y="784" type="line"/>
      <point x="651" y="784" type="line"/>
      <point x="1161" y="1425" type="line"/>
      <point x="1169" y="1462" type="line"/>
      <point x="328" y="1462" type="line"/>
      <point x="317" y="1411" type="line"/>
      <point x="1083" y="1411" type="line"/>
      <point x="584" y="784" type="line"/>
      <point x="272" y="784" type="line"/>
      <point x="260" y="733" type="line"/>
      <point x="545" y="733" type="line"/>
      <point x="-10" y="37" type="line"/>
    </contour>
  </outline>
</glyph>
<glyph name="uni01E5" format="2">
  <advance width="1044"/>
  <unicode hex="01E5"/>
  <anchor x="303" y="-492" name="bottom"/>
  <anchor x="637" y="1081" name="top"/>
  <outline>
    <contour>
      <point x="373" y="-492" type="curve" smooth="yes"/>
      <point x="657" y="-492"/>
      <point x="766" y="-365"/>
      <point x="813" y="-201" type="curve"/>
      <point x="930" y="-201" type="line"/>
      <point x="942" y="-150" type="line"/>
      <point x="825" y="-150" type="line"/>
      <point x="1087" y="1081" type="line"/>
      <point x="1042" y="1081" type="line"/>
      <point x="987" y="834" type="line"/>
      <point x="983" y="834" type="line"/>
      <point x="963" y="963"/>
      <point x="868" y="1102"/>
      <point x="666" y="1102" type="curve" smooth="yes"/>
      <point x="285" y="1102"/>
      <point x="104" y="696"/>
      <point x="104" y="365" type="curve" smooth="yes"/>
      <point x="104" y="133"/>
      <point x="201" y="-20"/>
      <point x="414" y="-20" type="curve" smooth="yes"/>
      <point x="616" y="-20"/>
      <point x="782" y="145"/>
      <point x="870" y="295" type="curve"/>
      <point x="874" y="295" type="line"/>
      <point x="854" y="219"/>
      <point x="829" y="111"/>
      <point x="813" y="35" type="curve" smooth="yes"/>
      <point x="772" y="-150" type="line"/>
      <point x="455" y="-150" type="line"/>
      <point x="442" y="-201" type="line"/>
      <point x="760" y="-201" type="line"/>
      <point x="717" y="-342"/>
      <point x="623" y="-440"/>
      <point x="375" y="-440" type="curve" smooth="yes"/>
      <point x="248" y="-440"/>
      <point x="133" y="-406"/>
      <point x="53" y="-365" type="curve"/>
      <point x="53" y="-424" type="line"/>
      <point x="129" y="-459"/>
      <point x="233" y="-492"/>
    </contour>
    <contour>
      <point x="420" y="31" type="curve" smooth="yes"/>
      <point x="238" y="31"/>
      <point x="160" y="160"/>
      <point x="160" y="365" type="curve" smooth="yes"/>
      <point x="160" y="686"/>
      <point x="326" y="1051"/>
      <point x="664" y="1051" type="curve" smooth="yes"/>
      <point x="831" y="1051"/>
      <point x="948" y="946"/>
      <point x="948" y="733" type="curve" smooth="yes"/>
      <point x="948" y="348"/>
      <point x="670" y="31"/>
    </contour>
  </outline>
</glyph>
<glyph name="uni021C" format="2">
  <advance width="1110"/>
  <unicode hex="021C"/>
  <anchor x="432" y="-215" name="bottom"/>
  <anchor x="702" y="1462" name="top"/>
  <outline>
    <contour>
      <point x="-111" y="-369" type="line"/>
      <point x="451" y="-238"/>
      <point x="954" y="-41"/>
      <point x="954" y="418" type="curve" smooth="yes"/>
      <point x="954" y="586"/>
      <point x="854" y="684"/>
      <point x="739" y="743" type="curve"/>
      <point x="946" y="829"/>
      <point x="1094" y="969"/>
      <point x="1094" y="1178" type="curve" smooth="yes"/>
      <point x="1094" y="1393"/>
      <point x="942" y="1483"/>
      <point x="737" y="1483" type="curve" smooth="yes"/>
      <point x="555" y="1483"/>
      <point x="414" y="1427"/>
      <point x="260" y="1329" type="curve"/>
      <point x="291" y="1288" type="line"/>
      <point x="422" y="1370"/>
      <point x="563" y="1432"/>
      <point x="729" y="1432" type="curve" smooth="yes"/>
      <point x="879" y="1432"/>
      <point x="1038" y="1372"/>
      <point x="1038" y="1178" type="curve" smooth="yes"/>
      <point x="1038" y="870"/>
      <point x="717" y="768"/>
      <point x="352" y="678" type="curve"/>
      <point x="352" y="629" type="line"/>
      <point x="473" y="657"/>
      <point x="582" y="684"/>
      <point x="680" y="719" type="curve"/>
      <point x="821" y="647"/>
      <point x="897" y="555"/>
      <point x="897" y="414" type="curve" smooth="yes"/>
      <point x="897" y="2"/>
      <point x="432" y="-184"/>
      <point x="-100" y="-315" type="curve"/>
    </contour>
  </outline>
</glyph>
<glyph name="jdotless" format="2">
  <advance width="424"/>
  <unicode hex="0237"/>
  <anchor x="-6" y="-492" name="bottom"/>
  <anchor x="328" y="1081" name="top"/>
  <outline>
    <contour>
      <point x="-176" y="-492" type="curve" smooth="yes"/>
      <point x="-43" y="-492"/>
      <point x="33" y="-412"/>
      <point x="68" y="-244" type="curve" smooth="yes"/>
      <point x="348" y="1081" type="line"/>
      <point x="295" y="1081" type="line"/>
      <point x="16" y="-236" type="line" smooth="yes"/>
      <point x="-10" y="-365"/>
      <point x="-63" y="-440"/>
      <point x="-176" y="-440" type="curve" smooth="yes"/>
      <point x="-209" y="-440"/>
      <point x="-258" y="-434"/>
      <point x="-291" y="-418" type="curve"/>
      <point x="-291" y="-471" type="line"/>
      <point x="-264" y="-481"/>
      <point x="-213" y="-492"/>
    </contour>
  </outline>
</glyph>
<glyph name="uni023E" format="2">
  <advance width="993"/>
  <unicode hex="023E"/>
  <anchor x="383" y="0" name="bottom"/>
  <anchor x="694" y="1462" name="top"/>
  <outline>
    <contour>
      <point x="-84" y="-86" type="line"/>
      <point x="-27" y="-86" type="line"/>
      <point x="1067" y="1624" type="line"/>
      <point x="1014" y="1624" type="line"/>
    </contour>
    <component base="T"/>
  </outline>
</glyph>
<glyph name="uni0240" format="2">
  <advance width="848"/>
  <unicode hex="0240"/>
  <anchor x="205" y="-492" name="bottom"/>
  <anchor x="539" y="1081" name="top"/>
  <outline>
    <contour>
      <point x="479" y="-492" type="curve" smooth="yes"/>
      <point x="541" y="-492"/>
      <point x="586" y="-477"/>
      <point x="608" y="-467" type="curve"/>
      <point x="608" y="-416" type="line"/>
      <point x="575" y="-430"/>
      <point x="537" y="-440"/>
      <point x="487" y="-440" type="curve" smooth="yes"/>
      <point x="369" y="-440"/>
      <point x="317" y="-379"/>
      <point x="291" y="-207" type="curve" smooth="yes"/>
      <point x="264" y="-41"/>
      <point x="215" y="51"/>
      <point x="57" y="51" type="curve"/>
      <point x="887" y="1051" type="line"/>
      <point x="893" y="1081" type="line"/>
      <point x="233" y="1081" type="line"/>
      <point x="221" y="1030" type="line"/>
      <point x="801" y="1030" type="line"/>
      <point x="-23" y="35" type="line"/>
      <point x="-29" y="0" type="line"/>
      <point x="39" y="0" type="line" smooth="yes"/>
      <point x="178" y="0"/>
      <point x="215" y="-72"/>
      <point x="238" y="-219" type="curve" smooth="yes"/>
      <point x="266" y="-403"/>
      <point x="334" y="-492"/>
    </contour>
  </outline>
</glyph>
<glyph name="uni0244" format="2">
  <advance width="1417"/>
  <unicode hex="0244"/>
  <anchor x="594" y="0" name="bottom"/>
  <anchor x="905" y="1462" name="top"/>
  <outline>
    <contour>
      <point x="614" y="-20" type="curve" smooth="yes"/>
      <point x="918" y="-20"/>
      <point x="1139" y="141"/>
      <point x="1219" y="516" type="curve" smooth="yes"/>
      <point x="1276" y="786" type="line"/>
      <point x="1419" y="786" type="line"/>
      <point x="1430" y="838" type="line"/>
      <point x="1286" y="838" type="line"/>
      <point x="1419" y="1462" type="line"/>
      <point x="1364" y="1462" type="line"/>
      <point x="1231" y="838" type="line"/>
      <point x="319" y="838" type="line"/>
      <point x="453" y="1462" type="line"/>
      <point x="397" y="1462" type="line"/>
      <point x="264" y="838" type="line"/>
      <point x="117" y="838" type="line"/>
      <point x="106" y="786" type="line"/>
      <point x="254" y="786" type="line"/>
      <point x="197" y="520" type="line" smooth="yes"/>
      <point x="186" y="467"/>
      <point x="180" y="420"/>
      <point x="180" y="375" type="curve" smooth="yes"/>
      <point x="180" y="119"/>
      <point x="352" y="-20"/>
    </contour>
    <contour>
      <point x="616" y="31" type="curve" smooth="yes"/>
      <point x="385" y="31"/>
      <point x="238" y="152"/>
      <point x="238" y="379" type="curve" smooth="yes"/>
      <point x="238" y="422"/>
      <point x="244" y="473"/>
      <point x="254" y="524" type="curve" smooth="yes"/>
      <point x="309" y="786" type="line"/>
      <point x="1219" y="786" type="line"/>
      <point x="1163" y="526" type="line" smooth="yes"/>
      <point x="1092" y="193"/>
      <point x="893" y="31"/>
    </contour>
  </outline>
</glyph>
<glyph name="uni0247" format="2">
  <advance width="1006"/>
  <unicode hex="0247"/>
  <anchor x="297" y="-432" name="bottom"/>
  <anchor x="719" y="1556" name="top"/>
  <outline>
    <contour>
      <point x="-2" y="-432" type="line"/>
      <point x="51" y="-432" type="line"/>
      <point x="274" y="49" type="line"/>
      <point x="340" y="2"/>
      <point x="422" y="-20"/>
      <point x="504" y="-20" type="curve" smooth="yes"/>
      <point x="616" y="-20"/>
      <point x="731" y="12"/>
      <point x="791" y="45" type="curve"/>
      <point x="791" y="98" type="line"/>
      <point x="725" y="70"/>
      <point x="631" y="31"/>
      <point x="514" y="31" type="curve" smooth="yes"/>
      <point x="428" y="31"/>
      <point x="354" y="55"/>
      <point x="299" y="100" type="curve"/>
      <point x="504" y="539" type="line"/>
      <point x="756" y="569"/>
      <point x="938" y="664"/>
      <point x="938" y="868" type="curve" smooth="yes"/>
      <point x="938" y="981"/>
      <point x="870" y="1067"/>
      <point x="762" y="1094" type="curve"/>
      <point x="977" y="1556" type="line"/>
      <point x="924" y="1556" type="line"/>
      <point x="711" y="1102" type="line"/>
      <point x="702" y="1102"/>
      <point x="696" y="1102"/>
      <point x="688" y="1102" type="curve" smooth="yes"/>
      <point x="352" y="1102"/>
      <point x="127" y="809"/>
      <point x="127" y="397" type="curve" smooth="yes"/>
      <point x="127" y="252"/>
      <point x="170" y="150"/>
      <point x="238" y="82" type="curve"/>
    </contour>
    <contour>
      <point x="262" y="135" type="line"/>
      <point x="211" y="197"/>
      <point x="182" y="285"/>
      <point x="182" y="397" type="curve" smooth="yes"/>
      <point x="182" y="444"/>
      <point x="186" y="494"/>
      <point x="190" y="524" type="curve"/>
      <point x="446" y="532" type="line"/>
    </contour>
    <contour>
      <point x="199" y="575" type="line"/>
      <point x="266" y="924"/>
      <point x="475" y="1051"/>
      <point x="688" y="1051" type="curve"/>
      <point x="471" y="584" type="line"/>
      <point x="418" y="582"/>
      <point x="358" y="580"/>
      <point x="297" y="578" type="curve" smooth="yes"/>
    </contour>
    <contour>
      <point x="528" y="592" type="curve"/>
      <point x="739" y="1047" type="line"/>
      <point x="831" y="1028"/>
      <point x="883" y="958"/>
      <point x="883" y="866" type="curve" smooth="yes"/>
      <point x="883" y="715"/>
      <point x="743" y="627"/>
    </contour>
  </outline>
</glyph>
<glyph name="uni0249" format="2">
  <advance width="424"/>
  <unicode hex="0249"/>
  <anchor x="-6" y="-492" name="bottom"/>
  <anchor x="412" y="1477" name="top"/>
  <outline>
    <contour>
      <point x="-176" y="-492" type="curve" smooth="yes"/>
      <point x="-43" y="-492"/>
      <point x="33" y="-412"/>
      <point x="68" y="-244" type="curve" smooth="yes"/>
      <point x="223" y="494" type="line"/>
      <point x="389" y="494" type="line"/>
      <point x="399" y="545" type="line"/>
      <point x="236" y="545" type="line"/>
      <point x="348" y="1081" type="line"/>
      <point x="295" y="1081" type="line"/>
      <point x="182" y="545" type="line"/>
      <point x="25" y="545" type="line"/>
      <point x="12" y="494" type="line"/>
      <point x="170" y="494" type="line"/>
      <point x="16" y="-236" type="line" smooth="yes"/>
      <point x="-10" y="-365"/>
      <point x="-63" y="-440"/>
      <point x="-176" y="-440" type="curve" smooth="yes"/>
      <point x="-209" y="-440"/>
      <point x="-258" y="-434"/>
      <point x="-291" y="-418" type="curve"/>
      <point x="-291" y="-471" type="line"/>
      <point x="-264" y="-481"/>
      <point x="-213" y="-492"/>
    </contour>
    <contour>
      <point x="387" y="1350" type="curve" smooth="yes"/>
      <point x="426" y="1350"/>
      <point x="446" y="1395"/>
      <point x="446" y="1432" type="curve" smooth="yes"/>
      <point x="446" y="1454"/>
      <point x="434" y="1477"/>
      <point x="401" y="1477" type="curve" smooth="yes"/>
      <point x="360" y="1477"/>
      <point x="340" y="1432"/>
      <point x="340" y="1395" type="curve" smooth="yes"/>
      <point x="340" y="1366"/>
      <point x="358" y="1350"/>
    </contour>
  </outline>
</glyph>
<glyph name="eopenreversedhook" format="2">
  <advance width="1143"/>
  <unicode hex="025D"/>
  <anchor x="285" y="-20" name="bottom"/>
  <anchor x="481" y="1102" name="top"/>
  <outline>
    <contour>
      <point x="1006" y="604" type="curve" smooth="yes"/>
      <point x="1049" y="604"/>
      <point x="1100" y="616"/>
      <point x="1149" y="639" type="curve"/>
      <point x="1149" y="692" type="line"/>
      <point x="1096" y="668"/>
      <point x="1047" y="655"/>
      <point x="1004" y="655" type="curve" smooth="yes"/>
      <point x="934" y="655"/>
      <point x="915" y="717"/>
      <point x="915" y="864" type="curve" smooth="yes"/>
      <point x="915" y="954" type="line"/>
      <point x="739" y="907" type="line"/>
      <point x="739" y="854" type="line"/>
      <point x="862" y="891" type="line"/>
      <point x="862" y="707"/>
      <point x="885" y="604"/>
    </contour>
    <component base="afii10073"/>
  </outline>
</glyph>
<glyph name="uni0262" format="2">
  <advance width="1063"/>
  <unicode hex="0262"/>
  <anchor x="418" y="0" name="bottom"/>
  <anchor x="647" y="1081" name="top"/>
  <anchor x="1044" y="1081" name="topright"/>
  <outline>
    <contour>
      <point x="528" y="-23" type="curve" smooth="yes"/>
      <point x="641" y="-23"/>
      <point x="739" y="2"/>
      <point x="817" y="27" type="curve"/>
      <point x="932" y="526" type="line"/>
      <point x="637" y="526" type="line"/>
      <point x="625" y="475" type="line"/>
      <point x="864" y="475" type="line"/>
      <point x="772" y="68" type="line"/>
      <point x="735" y="55"/>
      <point x="629" y="29"/>
      <point x="535" y="29" type="curve" smooth="yes"/>
      <point x="274" y="29"/>
      <point x="158" y="178"/>
      <point x="158" y="422" type="curve" smooth="yes"/>
      <point x="158" y="750"/>
      <point x="352" y="1055"/>
      <point x="725" y="1055" type="curve" smooth="yes"/>
      <point x="840" y="1055"/>
      <point x="911" y="1032"/>
      <point x="973" y="999" type="curve"/>
      <point x="997" y="1049" type="line"/>
      <point x="926" y="1083"/>
      <point x="854" y="1106"/>
      <point x="729" y="1106" type="curve" smooth="yes"/>
      <point x="313" y="1106"/>
      <point x="102" y="774"/>
      <point x="102" y="422" type="curve" smooth="yes"/>
      <point x="102" y="154"/>
      <point x="233" y="-23"/>
    </contour>
  </outline>
</glyph>
<glyph name="uni0266" format="2">
  <advance width="1133"/>
  <unicode hex="0266"/>
  <anchor x="453" y="0" name="bottom"/>
  <anchor x="786" y="1577" name="top"/>
  <outline>
    <contour>
      <point x="66" y="0" type="line"/>
      <point x="119" y="0" type="line"/>
      <point x="238" y="561" type="line" smooth="yes"/>
      <point x="291" y="815"/>
      <point x="498" y="1051"/>
      <point x="725" y="1051" type="curve" smooth="yes"/>
      <point x="870" y="1051"/>
      <point x="956" y="981"/>
      <point x="956" y="827" type="curve" smooth="yes"/>
      <point x="956" y="793"/>
      <point x="952" y="752"/>
      <point x="942" y="707" type="curve" smooth="yes"/>
      <point x="793" y="0" type="line"/>
      <point x="846" y="0" type="line"/>
      <point x="993" y="700" type="line" smooth="yes"/>
      <point x="1004" y="748"/>
      <point x="1010" y="797"/>
      <point x="1010" y="836" type="curve" smooth="yes"/>
      <point x="1010" y="1010"/>
      <point x="911" y="1102"/>
      <point x="733" y="1102" type="curve" smooth="yes"/>
      <point x="514" y="1102"/>
      <point x="356" y="928"/>
      <point x="285" y="797" type="curve"/>
      <point x="281" y="797" type="line"/>
      <point x="307" y="903"/>
      <point x="336" y="1026"/>
      <point x="360" y="1141" type="curve" smooth="yes"/>
      <point x="410" y="1378" type="line" smooth="yes"/>
      <point x="428" y="1464"/>
      <point x="455" y="1526"/>
      <point x="545" y="1526" type="curve" smooth="yes"/>
      <point x="590" y="1526"/>
      <point x="625" y="1509"/>
      <point x="645" y="1493" type="curve"/>
      <point x="655" y="1546" type="line"/>
      <point x="635" y="1561"/>
      <point x="600" y="1577"/>
      <point x="549" y="1577" type="curve" smooth="yes"/>
      <point x="430" y="1577"/>
      <point x="383" y="1503"/>
      <point x="358" y="1384" type="curve" smooth="yes"/>
    </contour>
  </outline>
</glyph>
<glyph name="uni026D" format="2">
  <advance width="449"/>
  <unicode hex="026D"/>
  <anchor x="6" y="-489" name="bottom"/>
  <anchor x="440" y="1556" name="top"/>
  <outline>
    <contour>
      <point x="225" y="-489" type="curve" smooth="yes"/>
      <point x="279" y="-489"/>
      <point x="328" y="-477"/>
      <point x="360" y="-465" type="curve"/>
      <point x="360" y="-414" type="line"/>
      <point x="330" y="-426"/>
      <point x="281" y="-438"/>
      <point x="225" y="-438" type="curve" smooth="yes"/>
      <point x="145" y="-438"/>
      <point x="86" y="-393"/>
      <point x="86" y="-283" type="curve" smooth="yes"/>
      <point x="86" y="-219"/>
      <point x="98" y="-145"/>
      <point x="115" y="-70" type="curve" smooth="yes"/>
      <point x="463" y="1556" type="line"/>
      <point x="410" y="1556" type="line"/>
      <point x="61" y="-70" type="line" smooth="yes"/>
      <point x="45" y="-150"/>
      <point x="33" y="-221"/>
      <point x="33" y="-287" type="curve" smooth="yes"/>
      <point x="33" y="-416"/>
      <point x="104" y="-489"/>
    </contour>
  </outline>
</glyph>
<glyph name="uni0270" format="2">
  <advance width="1731"/>
  <unicode hex="0270"/>
  <anchor x="647" y="-492" name="bottom"/>
  <anchor x="981" y="1081" name="top"/>
  <outline>
    <contour>
      <point x="1272" y="-492" type="line"/>
      <point x="1325" y="-492" type="line"/>
      <point x="1659" y="1081" type="line"/>
      <point x="1606" y="1081" type="line"/>
      <point x="1487" y="520" type="line" smooth="yes"/>
      <point x="1436" y="276"/>
      <point x="1251" y="31"/>
      <point x="1047" y="31" type="curve" smooth="yes"/>
      <point x="915" y="31"/>
      <point x="840" y="111"/>
      <point x="840" y="248" type="curve" smooth="yes"/>
      <point x="840" y="285"/>
      <point x="844" y="348"/>
      <point x="856" y="406" type="curve" smooth="yes"/>
      <point x="1001" y="1081" type="line"/>
      <point x="948" y="1081" type="line"/>
      <point x="829" y="518" type="line" smooth="yes"/>
      <point x="778" y="274"/>
      <point x="594" y="31"/>
      <point x="387" y="31" type="curve" smooth="yes"/>
      <point x="256" y="31"/>
      <point x="176" y="100"/>
      <point x="176" y="254" type="curve" smooth="yes"/>
      <point x="176" y="289"/>
      <point x="180" y="330"/>
      <point x="190" y="375" type="curve" smooth="yes"/>
      <point x="340" y="1081" type="line"/>
      <point x="287" y="1081" type="line"/>
      <point x="139" y="381" type="line" smooth="yes"/>
      <point x="129" y="334"/>
      <point x="123" y="285"/>
      <point x="123" y="246" type="curve" smooth="yes"/>
      <point x="123" y="72"/>
      <point x="215" y="-20"/>
      <point x="377" y="-20" type="curve" smooth="yes"/>
      <point x="582" y="-20"/>
      <point x="723" y="152"/>
      <point x="788" y="285" type="curve"/>
      <point x="791" y="285" type="line"/>
      <point x="780" y="102"/>
      <point x="848" y="-20"/>
      <point x="1034" y="-20" type="curve" smooth="yes"/>
      <point x="1241" y="-20"/>
      <point x="1376" y="154"/>
      <point x="1440" y="285" type="curve"/>
      <point x="1444" y="285" type="line"/>
      <point x="1423" y="205"/>
      <point x="1407" y="139"/>
      <point x="1391" y="66" type="curve" smooth="yes"/>
    </contour>
  </outline>
</glyph>
<glyph name="uni0272" format="2">
  <advance width="1133"/>
  <unicode hex="0272"/>
  <anchor x="348" y="-492" name="bottom"/>
  <anchor x="682" y="1081" name="top"/>
  <anchor x="1206" y="1081" name="topright"/>
  <outline>
    <contour>
      <point x="-176" y="-492" type="curve" smooth="yes"/>
      <point x="-43" y="-492"/>
      <point x="33" y="-412"/>
      <point x="68" y="-244" type="curve" smooth="yes"/>
      <point x="238" y="561" type="line" smooth="yes"/>
      <point x="291" y="815"/>
      <point x="498" y="1051"/>
      <point x="725" y="1051" type="curve" smooth="yes"/>
      <point x="870" y="1051"/>
      <point x="956" y="981"/>
      <point x="956" y="827" type="curve" smooth="yes"/>
      <point x="956" y="793"/>
      <point x="952" y="752"/>
      <point x="942" y="707" type="curve" smooth="yes"/>
      <point x="793" y="0" type="line"/>
      <point x="846" y="0" type="line"/>
      <point x="993" y="700" type="line" smooth="yes"/>
      <point x="1004" y="748"/>
      <point x="1010" y="797"/>
      <point x="1010" y="836" type="curve" smooth="yes"/>
      <point x="1010" y="1010"/>
      <point x="911" y="1102"/>
      <point x="733" y="1102" type="curve" smooth="yes"/>
      <point x="514" y="1102"/>
      <point x="354" y="926"/>
      <point x="287" y="797" type="curve"/>
      <point x="283" y="797" type="line"/>
      <point x="340" y="1081" type="line"/>
      <point x="295" y="1081" type="line"/>
      <point x="16" y="-236" type="line" smooth="yes"/>
      <point x="-10" y="-365"/>
      <point x="-63" y="-440"/>
      <point x="-176" y="-440" type="curve" smooth="yes"/>
      <point x="-209" y="-440"/>
      <point x="-258" y="-434"/>
      <point x="-291" y="-418" type="curve"/>
      <point x="-291" y="-471" type="line"/>
      <point x="-264" y="-481"/>
      <point x="-213" y="-492"/>
    </contour>
  </outline>
</glyph>
<glyph name="uni0279" format="2">
  <advance width="719"/>
  <unicode hex="0279"/>
  <anchor x="246" y="0" name="bottom"/>
  <anchor x="475" y="1081" name="top"/>
  <outline>
    <contour>
      <point x="27" y="-16" type="curve" smooth="yes"/>
      <point x="217" y="-16"/>
      <point x="365" y="166"/>
      <point x="428" y="285" type="curve"/>
      <point x="432" y="285" type="line"/>
      <point x="375" y="0" type="line"/>
      <point x="420" y="0" type="line"/>
      <point x="649" y="1081" type="line"/>
      <point x="596" y="1081" type="line"/>
      <point x="481" y="537" type="line" smooth="yes"/>
      <point x="422" y="258"/>
      <point x="217" y="35"/>
      <point x="27" y="35" type="curve" smooth="yes"/>
      <point x="-18" y="35"/>
      <point x="-55" y="41"/>
      <point x="-82" y="49" type="curve"/>
      <point x="-94" y="0" type="line"/>
      <point x="-61" y="-10"/>
      <point x="-18" y="-16"/>
    </contour>
  </outline>
</glyph>
<glyph name="uni027D" format="2">
  <advance width="719"/>
  <unicode hex="027D"/>
  <anchor x="141" y="-492" name="bottom"/>
  <anchor x="475" y="1081" name="top"/>
  <outline>
    <contour>
      <point x="98" y="-492" type="curve" smooth="yes"/>
      <point x="139" y="-492"/>
      <point x="168" y="-481"/>
      <point x="188" y="-471" type="curve"/>
      <point x="188" y="-420" type="line"/>
      <point x="168" y="-430"/>
      <point x="137" y="-440"/>
      <point x="98" y="-440" type="curve" smooth="yes"/>
      <point x="59" y="-440"/>
      <point x="41" y="-414"/>
      <point x="41" y="-383" type="curve" smooth="yes"/>
      <point x="41" y="-358"/>
      <point x="47" y="-330"/>
      <point x="53" y="-301" type="curve" smooth="yes"/>
      <point x="233" y="545" type="line" smooth="yes"/>
      <point x="293" y="823"/>
      <point x="498" y="1047"/>
      <point x="688" y="1047" type="curve" smooth="yes"/>
      <point x="733" y="1047"/>
      <point x="770" y="1040"/>
      <point x="797" y="1032" type="curve"/>
      <point x="809" y="1081" type="line"/>
      <point x="776" y="1092"/>
      <point x="733" y="1098"/>
      <point x="688" y="1098" type="curve" smooth="yes"/>
      <point x="498" y="1098"/>
      <point x="350" y="915"/>
      <point x="287" y="797" type="curve"/>
      <point x="283" y="797" type="line"/>
      <point x="340" y="1081" type="line"/>
      <point x="295" y="1081" type="line"/>
      <point x="2" y="-295" type="line" smooth="yes"/>
      <point x="-4" y="-324"/>
      <point x="-12" y="-367"/>
      <point x="-12" y="-385" type="curve" smooth="yes"/>
      <point x="-12" y="-449"/>
      <point x="25" y="-492"/>
    </contour>
  </outline>
</glyph>
<glyph name="uni0283" format="2">
  <advance width="504"/>
  <unicode hex="0283"/>
  <anchor x="33" y="-492" name="bottom"/>
  <anchor x="469" y="1567" name="top"/>
  <outline>
    <contour>
      <point x="-164" y="-492" type="curve" smooth="yes"/>
      <point x="-37" y="-492"/>
      <point x="49" y="-430"/>
      <point x="88" y="-246" type="curve" smooth="yes"/>
      <point x="414" y="1288" type="line" smooth="yes"/>
      <point x="446" y="1442"/>
      <point x="522" y="1516"/>
      <point x="647" y="1516" type="curve" smooth="yes"/>
      <point x="702" y="1516"/>
      <point x="745" y="1507"/>
      <point x="791" y="1489" type="curve"/>
      <point x="791" y="1544" type="line"/>
      <point x="758" y="1556"/>
      <point x="715" y="1567"/>
      <point x="649" y="1567" type="curve" smooth="yes"/>
      <point x="489" y="1567"/>
      <point x="397" y="1460"/>
      <point x="362" y="1296" type="curve" smooth="yes"/>
      <point x="37" y="-238" type="line" smooth="yes"/>
      <point x="4" y="-389"/>
      <point x="-55" y="-440"/>
      <point x="-164" y="-440" type="curve" smooth="yes"/>
      <point x="-207" y="-440"/>
      <point x="-252" y="-430"/>
      <point x="-289" y="-414" type="curve"/>
      <point x="-289" y="-471" type="line"/>
      <point x="-262" y="-481"/>
      <point x="-219" y="-492"/>
    </contour>
  </outline>
</glyph>
<glyph name="uni028B" format="2">
  <advance width="1055"/>
  <unicode hex="028B"/>
  <anchor x="414" y="0" name="bottom"/>
  <anchor x="643" y="1081" name="top"/>
  <outline>
    <contour>
      <point x="455" y="-14" type="curve" smooth="yes"/>
      <point x="692" y="-14"/>
      <point x="803" y="111"/>
      <point x="854" y="338" type="curve" smooth="yes"/>
      <point x="934" y="698" type="line" smooth="yes"/>
      <point x="954" y="793"/>
      <point x="971" y="870"/>
      <point x="971" y="944" type="curve" smooth="yes"/>
      <point x="971" y="1034"/>
      <point x="918" y="1102"/>
      <point x="811" y="1102" type="curve" smooth="yes"/>
      <point x="756" y="1102"/>
      <point x="731" y="1094"/>
      <point x="698" y="1083" type="curve"/>
      <point x="698" y="1030" type="line"/>
      <point x="731" y="1042"/>
      <point x="762" y="1051"/>
      <point x="805" y="1051" type="curve" smooth="yes"/>
      <point x="879" y="1051"/>
      <point x="918" y="1006"/>
      <point x="918" y="936" type="curve" smooth="yes"/>
      <point x="918" y="877"/>
      <point x="903" y="799"/>
      <point x="881" y="698" type="curve" smooth="yes"/>
      <point x="801" y="338" type="line" smooth="yes"/>
      <point x="758" y="145"/>
      <point x="674" y="37"/>
      <point x="453" y="37" type="curve" smooth="yes"/>
      <point x="256" y="37"/>
      <point x="178" y="143"/>
      <point x="178" y="279" type="curve" smooth="yes"/>
      <point x="178" y="330"/>
      <point x="182" y="377"/>
      <point x="197" y="442" type="curve" smooth="yes"/>
      <point x="334" y="1081" type="line"/>
      <point x="281" y="1081" type="line"/>
      <point x="143" y="442" type="line" smooth="yes"/>
      <point x="131" y="381"/>
      <point x="123" y="332"/>
      <point x="123" y="272" type="curve" smooth="yes"/>
      <point x="123" y="117"/>
      <point x="213" y="-14"/>
    </contour>
  </outline>
</glyph>
<glyph name="uni0290" format="2">
  <advance width="893"/>
  <unicode hex="0290"/>
  <anchor x="227" y="-492" name="bottom"/>
  <anchor x="561" y="1081" name="top"/>
  <outline>
    <contour>
      <point x="670" y="-492" type="curve" smooth="yes"/>
      <point x="711" y="-492"/>
      <point x="739" y="-481"/>
      <point x="760" y="-471" type="curve"/>
      <point x="760" y="-420" type="line"/>
      <point x="739" y="-430"/>
      <point x="709" y="-440"/>
      <point x="670" y="-440" type="curve" smooth="yes"/>
      <point x="631" y="-440"/>
      <point x="612" y="-414"/>
      <point x="612" y="-383" type="curve" smooth="yes"/>
      <point x="612" y="-358"/>
      <point x="618" y="-330"/>
      <point x="625" y="-301" type="curve" smooth="yes"/>
      <point x="698" y="51" type="line"/>
      <point x="57" y="51" type="line"/>
      <point x="887" y="1051" type="line"/>
      <point x="893" y="1081" type="line"/>
      <point x="233" y="1081" type="line"/>
      <point x="221" y="1030" type="line"/>
      <point x="801" y="1030" type="line"/>
      <point x="-23" y="35" type="line"/>
      <point x="-29" y="0" type="line"/>
      <point x="635" y="0" type="line"/>
      <point x="573" y="-295" type="line" smooth="yes"/>
      <point x="567" y="-324"/>
      <point x="559" y="-367"/>
      <point x="559" y="-385" type="curve" smooth="yes"/>
      <point x="559" y="-449"/>
      <point x="596" y="-492"/>
    </contour>
  </outline>
</glyph>
<glyph name="uni0291" format="2">
  <advance width="893"/>
  <unicode hex="0291"/>
  <anchor x="332" y="-172" name="bottom"/>
  <anchor x="561" y="1081" name="top"/>
  <outline>
    <contour>
      <point x="223" y="-160" type="line"/>
      <point x="250" y="-98"/>
      <point x="274" y="-49"/>
      <point x="299" y="0" type="curve"/>
      <point x="510" y="0" type="line" smooth="yes"/>
      <point x="715" y="0"/>
      <point x="813" y="86"/>
      <point x="813" y="219" type="curve" smooth="yes"/>
      <point x="813" y="315"/>
      <point x="752" y="375"/>
      <point x="645" y="375" type="curve" smooth="yes"/>
      <point x="506" y="375"/>
      <point x="387" y="272"/>
      <point x="266" y="51" type="curve"/>
      <point x="57" y="51" type="line"/>
      <point x="887" y="1051" type="line"/>
      <point x="893" y="1081" type="line"/>
      <point x="233" y="1081" type="line"/>
      <point x="221" y="1030" type="line"/>
      <point x="801" y="1030" type="line"/>
      <point x="-23" y="35" type="line"/>
      <point x="-29" y="0" type="line"/>
      <point x="240" y="0" type="line"/>
      <point x="217" y="-43"/>
      <point x="195" y="-92"/>
      <point x="172" y="-143" type="curve"/>
    </contour>
    <contour>
      <point x="326" y="51" type="line"/>
      <point x="410" y="197"/>
      <point x="506" y="324"/>
      <point x="641" y="324" type="curve" smooth="yes"/>
      <point x="719" y="324"/>
      <point x="758" y="287"/>
      <point x="758" y="215" type="curve" smooth="yes"/>
      <point x="758" y="121"/>
      <point x="690" y="51"/>
      <point x="506" y="51" type="curve" smooth="yes"/>
    </contour>
  </outline>
</glyph>
<glyph name="ezhcurl" format="2">
  <advance width="776"/>
  <unicode hex="0293"/>
  <anchor x="170" y="-492" name="bottom"/>
  <anchor x="504" y="1081" name="top"/>
  <outline>
    <contour>
      <point x="113" y="-492" type="curve" smooth="yes"/>
      <point x="315" y="-492"/>
      <point x="422" y="-418"/>
      <point x="496" y="-342" type="curve"/>
      <point x="524" y="-381"/>
      <point x="555" y="-438"/>
      <point x="575" y="-492" type="curve"/>
      <point x="625" y="-471" type="line"/>
      <point x="598" y="-403"/>
      <point x="567" y="-346"/>
      <point x="530" y="-301" type="curve"/>
      <point x="604" y="-197"/>
      <point x="633" y="-68"/>
      <point x="633" y="47" type="curve" smooth="yes"/>
      <point x="633" y="344"/>
      <point x="432" y="436"/>
      <point x="217" y="438" type="curve"/>
      <point x="815" y="1030" type="line"/>
      <point x="825" y="1081" type="line"/>
      <point x="156" y="1081" type="line"/>
      <point x="145" y="1030" type="line"/>
      <point x="739" y="1030" type="line"/>
      <point x="143" y="434" type="line"/>
      <point x="135" y="387" type="line"/>
      <point x="213" y="387" type="line" smooth="yes"/>
      <point x="408" y="387"/>
      <point x="578" y="303"/>
      <point x="578" y="45" type="curve" smooth="yes"/>
      <point x="578" y="-53"/>
      <point x="553" y="-166"/>
      <point x="494" y="-256" type="curve"/>
      <point x="397" y="-160"/>
      <point x="274" y="-117"/>
      <point x="127" y="-117" type="curve" smooth="yes"/>
      <point x="-59" y="-117"/>
      <point x="-150" y="-199"/>
      <point x="-150" y="-315" type="curve" smooth="yes"/>
      <point x="-150" y="-426"/>
      <point x="-59" y="-492"/>
    </contour>
    <contour>
      <point x="123" y="-438" type="curve" smooth="yes"/>
      <point x="-35" y="-438"/>
      <point x="-94" y="-385"/>
      <point x="-94" y="-311" type="curve" smooth="yes"/>
      <point x="-94" y="-229"/>
      <point x="-35" y="-168"/>
      <point x="127" y="-168" type="curve" smooth="yes"/>
      <point x="287" y="-168"/>
      <point x="387" y="-217"/>
      <point x="459" y="-299" type="curve"/>
      <point x="397" y="-371"/>
      <point x="301" y="-438"/>
    </contour>
  </outline>
</glyph>
<glyph name="glottalturned" format="2">
  <advance width="850"/>
  <unicode hex="0296"/>
  <anchor x="311" y="0" name="bottom"/>
  <anchor x="643" y="1563" name="top"/>
  <outline>
    <contour>
      <point x="297" y="0" type="curve" smooth="yes"/>
      <point x="567" y="0"/>
      <point x="735" y="166"/>
      <point x="735" y="449" type="curve" smooth="yes"/>
      <point x="735" y="674"/>
      <point x="612" y="819"/>
      <point x="434" y="932" type="curve"/>
      <point x="567" y="1563" type="line"/>
      <point x="514" y="1563" type="line"/>
      <point x="375" y="907" type="line"/>
      <point x="565" y="788"/>
      <point x="680" y="655"/>
      <point x="680" y="449" type="curve" smooth="yes"/>
      <point x="680" y="199"/>
      <point x="539" y="51"/>
      <point x="301" y="51" type="curve" smooth="yes"/>
      <point x="180" y="51"/>
      <point x="80" y="94"/>
      <point x="23" y="139" type="curve"/>
      <point x="-10" y="96" type="line"/>
      <point x="63" y="45"/>
      <point x="154" y="0"/>
    </contour>
  </outline>
</glyph>
<glyph name="uni0299" format="2">
  <advance width="1049"/>
  <unicode hex="0299"/>
  <anchor x="467" y="0" name="bottom"/>
  <anchor x="696" y="1081" name="top"/>
  <outline>
    <contour>
      <point x="100" y="0" type="line"/>
      <point x="483" y="0" type="line" smooth="yes"/>
      <point x="717" y="0"/>
      <point x="883" y="115"/>
      <point x="883" y="328" type="curve" smooth="yes"/>
      <point x="883" y="461"/>
      <point x="813" y="537"/>
      <point x="692" y="563" type="curve"/>
      <point x="692" y="567" type="line"/>
      <point x="868" y="584"/>
      <point x="961" y="705"/>
      <point x="961" y="844" type="curve" smooth="yes"/>
      <point x="961" y="991"/>
      <point x="856" y="1079"/>
      <point x="672" y="1079" type="curve" smooth="yes"/>
      <point x="342" y="1079" type="line"/>
    </contour>
    <contour>
      <point x="166" y="51" type="line"/>
      <point x="274" y="541" type="line"/>
      <point x="530" y="541" type="line" smooth="yes"/>
      <point x="760" y="541"/>
      <point x="827" y="455"/>
      <point x="827" y="326" type="curve" smooth="yes"/>
      <point x="827" y="147"/>
      <point x="684" y="51"/>
      <point x="489" y="51" type="curve" smooth="yes"/>
    </contour>
    <contour>
      <point x="287" y="592" type="line"/>
      <point x="385" y="1028" type="line"/>
      <point x="655" y="1028" type="line" smooth="yes"/>
      <point x="840" y="1028"/>
      <point x="905" y="956"/>
      <point x="905" y="840" type="curve" smooth="yes"/>
      <point x="905" y="659"/>
      <point x="760" y="592"/>
      <point x="559" y="592" type="curve" smooth="yes"/>
    </contour>
  </outline>
</glyph>
<glyph name="uni029D" format="2">
  <advance width="424"/>
  <unicode hex="029D"/>
  <anchor x="-6" y="-492" name="bottom"/>
  <anchor x="412" y="1477" name="top"/>
  <outline>
    <contour>
      <point x="-166" y="-492" type="curve" smooth="yes"/>
      <point x="2" y="-492"/>
      <point x="41" y="-371"/>
      <point x="90" y="-141" type="curve"/>
      <point x="223" y="-141" type="line"/>
      <point x="233" y="-90" type="line"/>
      <point x="100" y="-90" type="line"/>
      <point x="348" y="1081" type="line"/>
      <point x="295" y="1081" type="line"/>
      <point x="47" y="-90" type="line"/>
      <point x="-61" y="-90" type="line" smooth="yes"/>
      <point x="-254" y="-90"/>
      <point x="-330" y="-197"/>
      <point x="-330" y="-322" type="curve" smooth="yes"/>
      <point x="-330" y="-430"/>
      <point x="-262" y="-492"/>
    </contour>
    <contour>
      <point x="-160" y="-440" type="curve" smooth="yes"/>
      <point x="-233" y="-440"/>
      <point x="-274" y="-391"/>
      <point x="-274" y="-317" type="curve" smooth="yes"/>
      <point x="-274" y="-219"/>
      <point x="-225" y="-141"/>
      <point x="-57" y="-141" type="curve" smooth="yes"/>
      <point x="37" y="-141" type="line"/>
      <point x="-8" y="-356"/>
      <point x="-43" y="-440"/>
    </contour>
    <contour>
      <point x="387" y="1350" type="curve" smooth="yes"/>
      <point x="426" y="1350"/>
      <point x="446" y="1395"/>
      <point x="446" y="1432" type="curve" smooth="yes"/>
      <point x="446" y="1454"/>
      <point x="434" y="1477"/>
      <point x="401" y="1477" type="curve" smooth="yes"/>
      <point x="360" y="1477"/>
      <point x="340" y="1432"/>
      <point x="340" y="1395" type="curve" smooth="yes"/>
      <point x="340" y="1366"/>
      <point x="358" y="1350"/>
    </contour>
  </outline>
</glyph>
<glyph name="caron" format="2">
  <advance width="655"/>
  <unicode hex="02C7"/>
  <outline>
    <contour>
      <point x="455" y="1241" type="curve"/>
      <point x="500" y="1241" type="line"/>
      <point x="565" y="1327"/>
      <point x="700" y="1466"/>
      <point x="788" y="1550" type="curve"/>
      <point x="791" y="1563" type="line"/>
      <point x="743" y="1563" type="line"/>
      <point x="657" y="1487"/>
      <point x="559" y="1384"/>
      <point x="487" y="1307" type="curve"/>
      <point x="451" y="1384"/>
      <point x="395" y="1487"/>
      <point x="338" y="1563" type="curve"/>
      <point x="301" y="1563" type="line"/>
      <point x="297" y="1550" type="line"/>
      <point x="354" y="1466"/>
      <point x="426" y="1325"/>
    </contour>
  </outline>
</glyph>
<glyph name="ring" format="2">
  <advance width="584"/>
  <unicode hex="02DA"/>
  <outline>
    <contour>
      <point x="487" y="1251" type="curve" smooth="yes"/>
      <point x="600" y="1251"/>
      <point x="692" y="1335"/>
      <point x="692" y="1456" type="curve" smooth="yes"/>
      <point x="692" y="1569"/>
      <point x="600" y="1661"/>
      <point x="487" y="1661" type="curve" smooth="yes"/>
      <point x="375" y="1661"/>
      <point x="281" y="1573"/>
      <point x="281" y="1456" type="curve" smooth="yes"/>
      <point x="281" y="1333"/>
      <point x="377" y="1251"/>
    </contour>
    <contour>
      <point x="487" y="1300" type="curve" smooth="yes"/>
      <point x="395" y="1300"/>
      <point x="330" y="1370"/>
      <point x="330" y="1456" type="curve" smooth="yes"/>
      <point x="330" y="1542"/>
      <point x="397" y="1612"/>
      <point x="487" y="1612" type="curve" smooth="yes"/>
      <point x="571" y="1612"/>
      <point x="643" y="1542"/>
      <point x="643" y="1456" type="curve" smooth="yes"/>
      <point x="643" y="1370"/>
      <point x="580" y="1300"/>
    </contour>
  </outline>
</glyph>
<glyph name="uni02F0" format="2">
  <advance width="643"/>
  <unicode hex="02F0"/>
  <outline>
    <contour>
      <point x="-121" y="-410" type="line"/>
      <point x="-63" y="-410" type="line"/>
      <point x="174" y="-133" type="line"/>
      <point x="307" y="-410" type="line"/>
      <point x="358" y="-410" type="line"/>
      <point x="205" y="-78" type="line"/>
      <point x="168" y="-78" type="line"/>
    </contour>
  </outline>
</glyph>
<glyph name="uni02F1" format="2">
  <advance width="528"/>
  <unicode hex="02F1"/>
  <outline>
    <contour>
      <point x="238" y="-426" type="line"/>
      <point x="248" y="-369" type="line"/>
      <point x="-8" y="-225" type="line"/>
      <point x="311" y="-82" type="line"/>
      <point x="328" y="-18" type="line"/>
      <point x="-76" y="-203" type="line"/>
      <point x="-84" y="-242" type="line"/>
    </contour>
  </outline>
</glyph>
<glyph name="overlinecmb" format="2">
  <unicode hex="0305"/>
  <anchor x="106" y="1081" name="_top"/>
  <anchor x="233" y="1679" name="top"/>
  <outline>
    <contour>
      <point x="-147" y="1628" type="line"/>
      <point x="594" y="1628" type="line"/>
      <point x="604" y="1679" type="line"/>
      <point x="-137" y="1679" type="line"/>
    </contour>
  </outline>
</glyph>
<glyph name="breveinvertedcomb" format="2">
  <unicode hex="0311"/>
  <anchor x="88" y="1081" name="_top"/>
  <anchor x="172" y="1473" name="top"/>
  <outline>
    <contour>
      <point x="-94" y="1243" type="curve"/>
      <point x="-41" y="1243" type="line"/>
      <point x="-6" y="1352"/>
      <point x="57" y="1421"/>
      <point x="180" y="1421" type="curve" smooth="yes"/>
      <point x="313" y="1421"/>
      <point x="346" y="1329"/>
      <point x="332" y="1243" type="curve"/>
      <point x="385" y="1243" type="line"/>
      <point x="387" y="1251"/>
      <point x="389" y="1268"/>
      <point x="389" y="1284" type="curve" smooth="yes"/>
      <point x="389" y="1405"/>
      <point x="305" y="1473"/>
      <point x="180" y="1473" type="curve" smooth="yes"/>
      <point x="37" y="1473"/>
      <point x="-51" y="1393"/>
    </contour>
  </outline>
</glyph>
<glyph name="uptackbelowcomb" format="2">
  <unicode hex="031D"/>
  <anchor x="-115" y="0" name="_bottom"/>
  <anchor x="-199" y="-395" name="bottom"/>
  <outline>
    <contour>
      <point x="-334" y="-395" type="line"/>
      <point x="-59" y="-395" type="line"/>
      <point x="-45" y="-328" type="line"/>
      <point x="-154" y="-328" type="line"/>
      <point x="-106" y="-98" type="line"/>
      <point x="-166" y="-98" type="line"/>
      <point x="-213" y="-328" type="line"/>
      <point x="-319" y="-328" type="line"/>
    </contour>
  </outline>
</glyph>
<glyph name="plusbelowcomb" format="2">
  <unicode hex="031F"/>
  <anchor x="-117" y="0" name="_bottom"/>
  <anchor x="-201" y="-395" name="bottom"/>
  <outline>
    <contour>
      <point x="-229" y="-401" type="line"/>
      <point x="-170" y="-401" type="line"/>
      <point x="-141" y="-258" type="line"/>
      <point x="-14" y="-258" type="line"/>
      <point x="4" y="-188" type="line"/>
      <point x="-123" y="-188" type="line"/>
      <point x="-96" y="-45" type="line"/>
      <point x="-156" y="-45" type="line"/>
      <point x="-184" y="-188" type="line"/>
      <point x="-309" y="-188" type="line"/>
      <point x="-328" y="-258" type="line"/>
      <point x="-203" y="-258" type="line"/>
    </contour>
  </outline>
</glyph>
<glyph name="dotbelowcomb" format="2">
  <unicode hex="0323"/>
  <anchor x="-700" y="0" name="_bottom"/>
  <anchor x="-758" y="-268" name="bottom"/>
  <outline>
    <contour>
      <point x="-750" y="-268" type="curve" smooth="yes"/>
      <point x="-711" y="-268"/>
      <point x="-690" y="-223"/>
      <point x="-690" y="-186" type="curve" smooth="yes"/>
      <point x="-690" y="-164"/>
      <point x="-702" y="-141"/>
      <point x="-735" y="-141" type="curve" smooth="yes"/>
      <point x="-776" y="-141"/>
      <point x="-797" y="-186"/>
      <point x="-797" y="-223" type="curve" smooth="yes"/>
      <point x="-797" y="-252"/>
      <point x="-778" y="-268"/>
    </contour>
  </outline>
</glyph>
<glyph name="commaaccentcomb" format="2">
  <unicode hex="0326"/>
  <anchor x="-129" y="0" name="_bottom"/>
  <anchor x="-225" y="-453" name="bottom"/>
  <outline>
    <contour>
      <point x="-307" y="-453" type="line"/>
      <point x="-272" y="-453" type="line"/>
      <point x="-188" y="-369"/>
      <point x="-113" y="-246"/>
      <point x="-72" y="-145" type="curve"/>
      <point x="-72" y="-125" type="line"/>
      <point x="-119" y="-125" type="line"/>
      <point x="-158" y="-236"/>
      <point x="-236" y="-356"/>
      <point x="-307" y="-438" type="curve"/>
    </contour>
  </outline>
</glyph>
<glyph name="bridgebelowcomb" format="2">
  <unicode hex="032A"/>
  <anchor x="-123" y="0" name="_bottom"/>
  <anchor x="-199" y="-362" name="bottom"/>
  <outline>
    <contour>
      <point x="-504" y="-362" type="line"/>
      <point x="-453" y="-362" type="line"/>
      <point x="-408" y="-145" type="line"/>
      <point x="98" y="-145" type="line"/>
      <point x="55" y="-362" type="line"/>
      <point x="106" y="-362" type="line"/>
      <point x="162" y="-94" type="line"/>
      <point x="-449" y="-94" type="line"/>
    </contour>
  </outline>
</glyph>
<glyph name="bridgeinvertedbelowcomb" format="2">
  <unicode hex="033A"/>
  <anchor x="-123" y="0" name="_bottom"/>
  <anchor x="-199" y="-362" name="bottom"/>
  <outline>
    <contour>
      <point x="-504" y="-362" type="line"/>
      <point x="106" y="-362" type="line"/>
      <point x="162" y="-94" type="line"/>
      <point x="111" y="-94" type="line"/>
      <point x="66" y="-311" type="line"/>
      <point x="-444" y="-311" type="line"/>
      <point x="-397" y="-94" type="line"/>
      <point x="-449" y="-94" type="line"/>
    </contour>
  </outline>
</glyph>
<glyph name="gbridgeabovecomb" format="2">
  <unicode hex="0346"/>
  <anchor x="111" y="1081" name="_top"/>
  <anchor x="203" y="1511" name="top"/>
  <outline>
    <contour>
      <point x="-135" y="1243" type="line"/>
      <point x="-82" y="1243" type="line"/>
      <point x="-37" y="1460" type="line"/>
      <point x="420" y="1460" type="line"/>
      <point x="377" y="1243" type="line"/>
      <point x="428" y="1243" type="line"/>
      <point x="483" y="1511" type="line"/>
      <point x="-80" y="1511" type="line"/>
    </contour>
  </outline>
</glyph>
<glyph name="arrowleftrightbelowcomb" format="2">
  <unicode hex="034D"/>
  <anchor x="-121" y="0" name="_bottom"/>
  <anchor x="-203" y="-385" name="bottom"/>
  <outline>
    <contour>
      <point x="-289" y="-385" type="line"/>
      <point x="-266" y="-285" type="line"/>
      <point x="-92" y="-285" type="line"/>
      <point x="-115" y="-385" type="line"/>
      <point x="51" y="-264" type="line"/>
      <point x="-61" y="-137" type="line"/>
      <point x="-82" y="-236" type="line"/>
      <point x="-258" y="-236" type="line"/>
      <point x="-238" y="-137" type="line"/>
      <point x="-403" y="-260" type="line"/>
    </contour>
  </outline>
</glyph>
<glyph name="arrowdoublerightbelowcomb" format="2">
  <unicode hex="0362"/>
  <anchor x="424" y="0" name="_bottom"/>
  <anchor x="342" y="-383" name="bottom"/>
  <outline>
    <contour>
      <point x="942" y="-383" type="line"/>
      <point x="1104" y="-264" type="line"/>
      <point x="942" y="-141" type="line"/>
      <point x="942" y="-236" type="line"/>
      <point x="-352" y="-236" type="line"/>
      <point x="-367" y="-285" type="line"/>
      <point x="942" y="-285" type="line"/>
    </contour>
  </outline>
</glyph>
<glyph name="Gamma" format="2">
  <advance width="981"/>
  <unicode hex="0393"/>
  <anchor x="377" y="0" name="bottom"/>
  <anchor x="688" y="1462" name="top"/>
  <outline>
    <contour>
      <point x="102" y="0" type="line"/>
      <point x="158" y="0" type="line"/>
      <point x="457" y="1411" type="line"/>
      <point x="1157" y="1411" type="line"/>
      <point x="1167" y="1462" type="line"/>
      <point x="412" y="1462" type="line"/>
    </contour>
  </outline>
</glyph>
<glyph name="Omega" format="2">
  <advance width="1538"/>
  <unicode hex="03A9"/>
  <anchor x="655" y="0" name="bottom"/>
  <anchor x="967" y="1462" name="top"/>
  <anchor x="238" y="1462" name="topleft"/>
  <outline>
    <contour>
      <point x="-18" y="0" type="line"/>
      <point x="506" y="0" type="line"/>
      <point x="514" y="47" type="line"/>
      <point x="342" y="170"/>
      <point x="227" y="358"/>
      <point x="227" y="623" type="curve" smooth="yes"/>
      <point x="227" y="1077"/>
      <point x="506" y="1434"/>
      <point x="932" y="1434" type="curve" smooth="yes"/>
      <point x="1221" y="1434"/>
      <point x="1405" y="1260"/>
      <point x="1405" y="946" type="curve" smooth="yes"/>
      <point x="1405" y="522"/>
      <point x="1176" y="223"/>
      <point x="801" y="47" type="curve"/>
      <point x="793" y="0" type="line"/>
      <point x="1321" y="0" type="line"/>
      <point x="1331" y="51" type="line"/>
      <point x="901" y="51" type="line"/>
      <point x="1266" y="242"/>
      <point x="1460" y="559"/>
      <point x="1460" y="946" type="curve" smooth="yes"/>
      <point x="1460" y="1290"/>
      <point x="1247" y="1485"/>
      <point x="934" y="1485" type="curve" smooth="yes"/>
      <point x="475" y="1485"/>
      <point x="172" y="1106"/>
      <point x="172" y="623" type="curve" smooth="yes"/>
      <point x="172" y="362"/>
      <point x="285" y="162"/>
      <point x="440" y="51" type="curve"/>
      <point x="-8" y="51" type="line"/>
    </contour>
  </outline>
</glyph>
<glyph name="gamma" format="2">
  <advance width="874"/>
  <unicode hex="03B3"/>
  <anchor x="219" y="-492" name="bottom"/>
  <anchor x="553" y="1081" name="top"/>
  <anchor x="948" y="1081" name="topright"/>
  <outline>
    <contour>
      <point x="72" y="-492" type="curve"/>
      <point x="125" y="-492" type="line"/>
      <point x="168" y="-315"/>
      <point x="246" y="-111"/>
      <point x="360" y="86" type="curve" smooth="yes"/>
      <point x="938" y="1081" type="line"/>
      <point x="879" y="1081" type="line"/>
      <point x="424" y="295" type="line" smooth="yes"/>
      <point x="383" y="223"/>
      <point x="342" y="150"/>
      <point x="307" y="82" type="curve"/>
      <point x="303" y="82" type="line"/>
      <point x="295" y="145"/>
      <point x="287" y="219"/>
      <point x="276" y="283" type="curve" smooth="yes"/>
      <point x="154" y="1081" type="line"/>
      <point x="100" y="1081" type="line"/>
      <point x="266" y="20" type="line"/>
      <point x="195" y="-111"/>
      <point x="109" y="-315"/>
    </contour>
  </outline>
</glyph>
<glyph name="nu" format="2">
  <advance width="969"/>
  <unicode hex="03BD"/>
  <anchor x="371" y="0" name="bottom"/>
  <anchor x="600" y="1081" name="top"/>
  <outline>
    <contour>
      <point x="260" y="0" type="line"/>
      <point x="303" y="0" type="line"/>
      <point x="657" y="268"/>
      <point x="870" y="606"/>
      <point x="973" y="1081" type="curve"/>
      <point x="920" y="1081" type="line"/>
      <point x="823" y="625"/>
      <point x="606" y="297"/>
      <point x="299" y="57" type="curve"/>
      <point x="297" y="84"/>
      <point x="295" y="106"/>
      <point x="291" y="135" type="curve" smooth="yes"/>
      <point x="166" y="1081" type="line"/>
      <point x="113" y="1081" type="line"/>
    </contour>
  </outline>
</glyph>
<glyph name="rho" format="2">
  <advance width="1139"/>
  <unicode hex="03C1"/>
  <anchor x="354" y="-475" name="bottom"/>
  <anchor x="684" y="1081" name="top"/>
  <outline>
    <contour>
      <point x="-37" y="-475" type="line"/>
      <point x="16" y="-475" type="line"/>
      <point x="90" y="-127" type="line" smooth="yes"/>
      <point x="104" y="-59"/>
      <point x="119" y="16"/>
      <point x="135" y="106" type="curve"/>
      <point x="199" y="41"/>
      <point x="311" y="-20"/>
      <point x="463" y="-20" type="curve" smooth="yes"/>
      <point x="858" y="-20"/>
      <point x="1026" y="393"/>
      <point x="1026" y="709" type="curve" smooth="yes"/>
      <point x="1026" y="961"/>
      <point x="899" y="1102"/>
      <point x="680" y="1102" type="curve" smooth="yes"/>
      <point x="410" y="1102"/>
      <point x="260" y="930"/>
      <point x="186" y="580" type="curve" smooth="yes"/>
    </contour>
    <contour>
      <point x="465" y="31" type="curve" smooth="yes"/>
      <point x="326" y="31"/>
      <point x="219" y="82"/>
      <point x="150" y="156" type="curve"/>
      <point x="233" y="561" type="line" smooth="yes"/>
      <point x="299" y="883"/>
      <point x="430" y="1051"/>
      <point x="676" y="1051" type="curve" smooth="yes"/>
      <point x="868" y="1051"/>
      <point x="971" y="930"/>
      <point x="971" y="709" type="curve" smooth="yes"/>
      <point x="971" y="403"/>
      <point x="809" y="31"/>
    </contour>
  </outline>
</glyph>
<glyph name="tau" format="2">
  <advance width="831"/>
  <unicode hex="03C4"/>
  <anchor x="301" y="0" name="bottom"/>
  <anchor x="530" y="1081" name="top"/>
  <outline>
    <contour>
      <point x="451" y="-18" type="curve" smooth="yes"/>
      <point x="510" y="-18"/>
      <point x="569" y="-8"/>
      <point x="608" y="6" type="curve"/>
      <point x="608" y="59" type="line"/>
      <point x="563" y="41"/>
      <point x="506" y="33"/>
      <point x="455" y="33" type="curve" smooth="yes"/>
      <point x="342" y="33"/>
      <point x="291" y="82"/>
      <point x="291" y="193" type="curve" smooth="yes"/>
      <point x="291" y="227"/>
      <point x="295" y="268"/>
      <point x="305" y="315" type="curve" smooth="yes"/>
      <point x="457" y="1030" type="line"/>
      <point x="860" y="1030" type="line"/>
      <point x="872" y="1081" type="line"/>
      <point x="274" y="1081" type="line"/>
      <point x="129" y="1077" type="line"/>
      <point x="119" y="1030" type="line"/>
      <point x="403" y="1030" type="line"/>
      <point x="252" y="315" type="line" smooth="yes"/>
      <point x="242" y="268"/>
      <point x="236" y="223"/>
      <point x="236" y="184" type="curve" smooth="yes"/>
      <point x="236" y="57"/>
      <point x="295" y="-18"/>
    </contour>
  </outline>
</glyph>
<glyph name="psi" format="2">
  <advance width="1386"/>
  <unicode hex="03C8"/>
  <anchor x="475" y="-492" name="bottom"/>
  <anchor x="909" y="1554" name="top"/>
  <outline>
    <contour>
      <point x="426" y="-492" type="line"/>
      <point x="479" y="-492" type="line"/>
      <point x="582" y="-10" type="line"/>
      <point x="1169" y="-10"/>
      <point x="1282" y="555"/>
      <point x="1282" y="1081" type="curve"/>
      <point x="1229" y="1081" type="line"/>
      <point x="1229" y="598"/>
      <point x="1133" y="41"/>
      <point x="594" y="41" type="curve"/>
      <point x="915" y="1554" type="line"/>
      <point x="862" y="1554" type="line"/>
      <point x="541" y="41" type="line"/>
      <point x="307" y="51"/>
      <point x="186" y="166"/>
      <point x="186" y="377" type="curve" smooth="yes"/>
      <point x="186" y="434"/>
      <point x="195" y="496"/>
      <point x="207" y="553" type="curve" smooth="yes"/>
      <point x="319" y="1081" type="line"/>
      <point x="266" y="1081" type="line"/>
      <point x="154" y="547" type="line" smooth="yes"/>
      <point x="141" y="487"/>
      <point x="133" y="432"/>
      <point x="133" y="373" type="curve" smooth="yes"/>
      <point x="133" y="135"/>
      <point x="274" y="4"/>
      <point x="528" y="-10" type="curve"/>
    </contour>
  </outline>
</glyph>
<glyph name="uni03D0" format="2">
  <advance width="1071"/>
  <unicode hex="03D0"/>
  <anchor x="418" y="-20" name="bottom"/>
  <anchor x="758" y="1585" name="top"/>
  <outline>
    <contour>
      <point x="467" y="-20" type="curve" smooth="yes"/>
      <point x="768" y="-20"/>
      <point x="942" y="242"/>
      <point x="942" y="545" type="curve" smooth="yes"/>
      <point x="942" y="791"/>
      <point x="821" y="928"/>
      <point x="604" y="928" type="curve" smooth="yes"/>
      <point x="426" y="928"/>
      <point x="305" y="858"/>
      <point x="231" y="778" type="curve"/>
      <point x="262" y="891"/>
      <point x="328" y="1071"/>
      <point x="375" y="1153" type="curve"/>
      <point x="449" y="1114"/>
      <point x="563" y="1053"/>
      <point x="715" y="1053" type="curve" smooth="yes"/>
      <point x="952" y="1053"/>
      <point x="1098" y="1171"/>
      <point x="1098" y="1360" type="curve" smooth="yes"/>
      <point x="1098" y="1489"/>
      <point x="1008" y="1585"/>
      <point x="846" y="1585" type="curve" smooth="yes"/>
      <point x="586" y="1585"/>
      <point x="397" y="1354"/>
      <point x="270" y="1047" type="curve" smooth="yes"/>
      <point x="186" y="846"/>
      <point x="127" y="602"/>
      <point x="127" y="377" type="curve" smooth="yes"/>
      <point x="127" y="129"/>
      <point x="233" y="-20"/>
    </contour>
    <contour>
      <point x="467" y="31" type="curve" smooth="yes"/>
      <point x="281" y="31"/>
      <point x="182" y="145"/>
      <point x="182" y="381" type="curve" smooth="yes"/>
      <point x="182" y="496"/>
      <point x="193" y="592"/>
      <point x="217" y="709" type="curve"/>
      <point x="301" y="795"/>
      <point x="408" y="877"/>
      <point x="600" y="877" type="curve" smooth="yes"/>
      <point x="776" y="877"/>
      <point x="887" y="770"/>
      <point x="887" y="545" type="curve" smooth="yes"/>
      <point x="887" y="266"/>
      <point x="737" y="31"/>
    </contour>
    <contour>
      <point x="713" y="1104" type="curve" smooth="yes"/>
      <point x="606" y="1104"/>
      <point x="455" y="1147"/>
      <point x="399" y="1200" type="curve"/>
      <point x="508" y="1393"/>
      <point x="651" y="1534"/>
      <point x="844" y="1534" type="curve" smooth="yes"/>
      <point x="979" y="1534"/>
      <point x="1042" y="1456"/>
      <point x="1042" y="1358" type="curve" smooth="yes"/>
      <point x="1042" y="1196"/>
      <point x="928" y="1104"/>
    </contour>
  </outline>
</glyph>
<glyph name="uni03D1" format="2">
  <advance width="956"/>
  <unicode hex="03D1"/>
  <outline>
    <contour>
      <point x="252" y="-20" type="curve" smooth="yes"/>
      <point x="639" y="-20"/>
      <point x="813" y="442"/>
      <point x="870" y="907" type="curve"/>
      <point x="1012" y="907" type="line"/>
      <point x="1012" y="958" type="line"/>
      <point x="874" y="958" type="line"/>
      <point x="879" y="1004"/>
      <point x="881" y="1055"/>
      <point x="881" y="1096" type="curve" smooth="yes"/>
      <point x="881" y="1444"/>
      <point x="760" y="1583"/>
      <point x="571" y="1583" type="curve" smooth="yes"/>
      <point x="383" y="1583"/>
      <point x="285" y="1452"/>
      <point x="285" y="1286" type="curve" smooth="yes"/>
      <point x="285" y="1038"/>
      <point x="489" y="907"/>
      <point x="813" y="907" type="curve"/>
      <point x="766" y="465"/>
      <point x="594" y="31"/>
      <point x="254" y="31" type="curve" smooth="yes"/>
      <point x="133" y="31"/>
      <point x="43" y="100"/>
      <point x="43" y="252" type="curve" smooth="yes"/>
      <point x="43" y="344"/>
      <point x="72" y="430"/>
      <point x="119" y="530" type="curve" smooth="yes"/>
      <point x="176" y="651"/>
      <point x="209" y="719"/>
      <point x="209" y="795" type="curve" smooth="yes"/>
      <point x="209" y="868"/>
      <point x="166" y="918"/>
      <point x="94" y="918" type="curve" smooth="yes"/>
      <point x="57" y="918"/>
      <point x="27" y="907"/>
      <point x="6" y="895" type="curve"/>
      <point x="-2" y="840" type="line"/>
      <point x="20" y="854"/>
      <point x="49" y="866"/>
      <point x="88" y="866" type="curve" smooth="yes"/>
      <point x="129" y="866"/>
      <point x="154" y="838"/>
      <point x="154" y="791" type="curve" smooth="yes"/>
      <point x="154" y="735"/>
      <point x="127" y="668"/>
      <point x="78" y="565" type="curve" smooth="yes"/>
      <point x="23" y="453"/>
      <point x="-12" y="352"/>
      <point x="-12" y="250" type="curve" smooth="yes"/>
      <point x="-12" y="78"/>
      <point x="82" y="-20"/>
    </contour>
    <contour>
      <point x="819" y="958" type="curve"/>
      <point x="526" y="958"/>
      <point x="340" y="1057"/>
      <point x="340" y="1290" type="curve" smooth="yes"/>
      <point x="340" y="1425"/>
      <point x="416" y="1532"/>
      <point x="569" y="1532" type="curve" smooth="yes"/>
      <point x="725" y="1532"/>
      <point x="825" y="1413"/>
      <point x="825" y="1100" type="curve" smooth="yes"/>
      <point x="825" y="1053"/>
      <point x="823" y="1006"/>
    </contour>
  </outline>
</glyph>
<glyph name="uni03D8" format="2">
  <advance width="1491"/>
  <unicode hex="03D8"/>
  <anchor x="631" y="0" name="bottom"/>
  <anchor x="942" y="1462" name="top"/>
  <outline>
    <contour>
      <point x="643" y="0" type="line"/>
      <point x="696" y="0" type="line"/>
      <point x="764" y="301" type="line"/>
      <point x="1280" y="313"/>
      <point x="1454" y="666"/>
      <point x="1454" y="981" type="curve" smooth="yes"/>
      <point x="1454" y="1280"/>
      <point x="1260" y="1481"/>
      <point x="909" y="1481" type="curve" smooth="yes"/>
      <point x="350" y="1481"/>
      <point x="182" y="1092"/>
      <point x="182" y="801" type="curve" smooth="yes"/>
      <point x="182" y="532"/>
      <point x="336" y="315"/>
      <point x="711" y="301" type="curve"/>
    </contour>
    <contour>
      <point x="750" y="352" type="curve" smooth="yes"/>
      <point x="399" y="352"/>
      <point x="238" y="532"/>
      <point x="238" y="805" type="curve" smooth="yes"/>
      <point x="238" y="1083"/>
      <point x="403" y="1430"/>
      <point x="905" y="1430" type="curve" smooth="yes"/>
      <point x="1227" y="1430"/>
      <point x="1399" y="1249"/>
      <point x="1399" y="977" type="curve" smooth="yes"/>
      <point x="1399" y="680"/>
      <point x="1233" y="352"/>
    </contour>
  </outline>
</glyph>
<glyph name="uni03DB" format="2">
  <advance width="874"/>
  <unicode hex="03DB"/>
  <anchor x="236" y="-412" name="bottom"/>
  <anchor x="553" y="1081" name="top"/>
  <outline>
    <contour>
      <point x="326" y="-412" type="curve" smooth="yes"/>
      <point x="547" y="-412"/>
      <point x="670" y="-315"/>
      <point x="670" y="-147" type="curve" smooth="yes"/>
      <point x="670" y="-6"/>
      <point x="569" y="41"/>
      <point x="426" y="84" type="curve" smooth="yes"/>
      <point x="248" y="137"/>
      <point x="168" y="242"/>
      <point x="168" y="420" type="curve" smooth="yes"/>
      <point x="168" y="768"/>
      <point x="367" y="1051"/>
      <point x="672" y="1051" type="curve" smooth="yes"/>
      <point x="745" y="1051"/>
      <point x="838" y="1036"/>
      <point x="905" y="1001" type="curve"/>
      <point x="928" y="1053" type="line"/>
      <point x="862" y="1085"/>
      <point x="764" y="1102"/>
      <point x="672" y="1102" type="curve" smooth="yes"/>
      <point x="319" y="1102"/>
      <point x="113" y="780"/>
      <point x="113" y="420" type="curve" smooth="yes"/>
      <point x="113" y="213"/>
      <point x="209" y="94"/>
      <point x="408" y="35" type="curve" smooth="yes"/>
      <point x="543" y="-6"/>
      <point x="616" y="-41"/>
      <point x="616" y="-150" type="curve" smooth="yes"/>
      <point x="616" y="-254"/>
      <point x="561" y="-360"/>
      <point x="324" y="-360" type="curve" smooth="yes"/>
      <point x="242" y="-360"/>
      <point x="174" y="-348"/>
      <point x="125" y="-330" type="curve"/>
      <point x="125" y="-383" type="line"/>
      <point x="168" y="-399"/>
      <point x="238" y="-412"/>
    </contour>
  </outline>
</glyph>
<glyph name="uni03F1" format="2">
  <advance width="1028"/>
  <unicode hex="03F1"/>
  <anchor x="295" y="-492" name="bottom"/>
  <anchor x="629" y="1081" name="top"/>
  <outline>
    <contour>
      <point x="524" y="-492" type="curve"/>
      <point x="580" y="-492" type="line"/>
      <point x="592" y="-463"/>
      <point x="604" y="-432"/>
      <point x="604" y="-397" type="curve" smooth="yes"/>
      <point x="604" y="-313"/>
      <point x="543" y="-281"/>
      <point x="393" y="-264" type="curve" smooth="yes"/>
      <point x="176" y="-240"/>
      <point x="102" y="-172"/>
      <point x="102" y="72" type="curve" smooth="yes"/>
      <point x="102" y="115"/>
      <point x="104" y="152"/>
      <point x="104" y="164" type="curve"/>
      <point x="109" y="164" type="line"/>
      <point x="147" y="90"/>
      <point x="233" y="-16"/>
      <point x="436" y="-16" type="curve" smooth="yes"/>
      <point x="848" y="-16"/>
      <point x="1018" y="379"/>
      <point x="1018" y="694" type="curve" smooth="yes"/>
      <point x="1018" y="911"/>
      <point x="928" y="1104"/>
      <point x="676" y="1104" type="curve" smooth="yes"/>
      <point x="350" y="1104"/>
      <point x="166" y="811"/>
      <point x="90" y="457" type="curve" smooth="yes"/>
      <point x="66" y="338"/>
      <point x="47" y="180"/>
      <point x="47" y="74" type="curve" smooth="yes"/>
      <point x="47" y="-201"/>
      <point x="137" y="-285"/>
      <point x="381" y="-313" type="curve" smooth="yes"/>
      <point x="502" y="-328"/>
      <point x="549" y="-344"/>
      <point x="549" y="-399" type="curve" smooth="yes"/>
      <point x="549" y="-434"/>
      <point x="537" y="-465"/>
    </contour>
    <contour>
      <point x="442" y="35" type="curve" smooth="yes"/>
      <point x="254" y="35"/>
      <point x="168" y="131"/>
      <point x="115" y="260" type="curve"/>
      <point x="158" y="727"/>
      <point x="369" y="1053"/>
      <point x="670" y="1053" type="curve" smooth="yes"/>
      <point x="879" y="1053"/>
      <point x="963" y="909"/>
      <point x="963" y="692" type="curve" smooth="yes"/>
      <point x="963" y="395"/>
      <point x="805" y="35"/>
    </contour>
  </outline>
</glyph>
<glyph name="afii10053" format="2">
  <advance width="1217"/>
  <unicode hex="0404"/>
  <anchor x="494" y="0" name="bottom"/>
  <anchor x="805" y="1462" name="top"/>
  <outline>
    <contour>
      <point x="664" y="-20" type="curve" smooth="yes"/>
      <point x="813" y="-20"/>
      <point x="932" y="8"/>
      <point x="1024" y="43" type="curve"/>
      <point x="1024" y="90" type="line"/>
      <point x="926" y="57"/>
      <point x="811" y="31"/>
      <point x="666" y="31" type="curve" smooth="yes"/>
      <point x="385" y="31"/>
      <point x="225" y="242"/>
      <point x="225" y="553" type="curve" smooth="yes"/>
      <point x="225" y="612"/>
      <point x="229" y="670"/>
      <point x="238" y="725" type="curve"/>
      <point x="975" y="725" type="line"/>
      <point x="985" y="776" type="line"/>
      <point x="246" y="776" type="line"/>
      <point x="326" y="1176"/>
      <point x="594" y="1432"/>
      <point x="981" y="1432" type="curve" smooth="yes"/>
      <point x="1087" y="1432"/>
      <point x="1178" y="1409"/>
      <point x="1272" y="1356" type="curve"/>
      <point x="1298" y="1407" type="line"/>
      <point x="1210" y="1452"/>
      <point x="1112" y="1483"/>
      <point x="985" y="1483" type="curve" smooth="yes"/>
      <point x="500" y="1483"/>
      <point x="172" y="1094"/>
      <point x="172" y="549" type="curve" smooth="yes"/>
      <point x="172" y="217"/>
      <point x="346" y="-20"/>
    </contour>
  </outline>
</glyph>
<glyph name="afii10058" format="2">
  <advance width="1841"/>
  <unicode hex="0409"/>
  <anchor x="807" y="0" name="bottom"/>
  <anchor x="1118" y="1462" name="top"/>
  <outline>
    <contour>
      <point x="14" y="-23" type="curve" smooth="yes"/>
      <point x="213" y="-23"/>
      <point x="301" y="188"/>
      <point x="412" y="473" type="curve" smooth="yes"/>
      <point x="535" y="788"/>
      <point x="639" y="1151"/>
      <point x="717" y="1411" type="curve"/>
      <point x="1153" y="1411" type="line"/>
      <point x="854" y="0" type="line"/>
      <point x="1174" y="0" type="line" smooth="yes"/>
      <point x="1497" y="0"/>
      <point x="1714" y="143"/>
      <point x="1714" y="467" type="curve" smooth="yes"/>
      <point x="1714" y="690"/>
      <point x="1569" y="805"/>
      <point x="1307" y="805" type="curve" smooth="yes"/>
      <point x="1079" y="805" type="line"/>
      <point x="1219" y="1462" type="line"/>
      <point x="674" y="1462" type="line"/>
      <point x="608" y="1245"/>
      <point x="502" y="879"/>
      <point x="354" y="489" type="curve" smooth="yes"/>
      <point x="250" y="211"/>
      <point x="156" y="29"/>
      <point x="14" y="29" type="curve" smooth="yes"/>
      <point x="-23" y="29"/>
      <point x="-59" y="37"/>
      <point x="-86" y="49" type="curve"/>
      <point x="-86" y="-4" type="line"/>
      <point x="-61" y="-16"/>
      <point x="-29" y="-23"/>
    </contour>
    <contour>
      <point x="920" y="51" type="line"/>
      <point x="1069" y="754" type="line"/>
      <point x="1298" y="754" type="line" smooth="yes"/>
      <point x="1513" y="754"/>
      <point x="1659" y="668"/>
      <point x="1659" y="465" type="curve" smooth="yes"/>
      <point x="1659" y="158"/>
      <point x="1446" y="51"/>
      <point x="1174" y="51" type="curve" smooth="yes"/>
    </contour>
  </outline>
</glyph>
<glyph name="afii10026" format="2">
  <advance width="1380"/>
  <unicode hex="0418"/>
  <anchor x="575" y="0" name="bottom"/>
  <anchor x="887" y="1462" name="top"/>
  <outline>
    <contour>
      <point x="102" y="0" type="line"/>
      <point x="154" y="0" type="line"/>
      <point x="1292" y="1352" type="line"/>
      <point x="1296" y="1350" type="line"/>
      <point x="1278" y="1278"/>
      <point x="1268" y="1233"/>
      <point x="1253" y="1163" type="curve" smooth="yes"/>
      <point x="1008" y="0" type="line"/>
      <point x="1061" y="0" type="line"/>
      <point x="1370" y="1462" type="line"/>
      <point x="1319" y="1462" type="line"/>
      <point x="178" y="109" type="line"/>
      <point x="174" y="109" type="line"/>
      <point x="193" y="182"/>
      <point x="201" y="209"/>
      <point x="215" y="276" type="curve" smooth="yes"/>
      <point x="467" y="1462" type="line"/>
      <point x="412" y="1462" type="line"/>
    </contour>
  </outline>
</glyph>
<glyph name="afii10037" format="2">
  <advance width="1118"/>
  <unicode hex="0423"/>
  <anchor x="444" y="0" name="bottom"/>
  <anchor x="756" y="1462" name="top"/>
  <outline>
    <contour>
      <point x="133" y="-20" type="curve" smooth="yes"/>
      <point x="317" y="-20"/>
      <point x="424" y="115"/>
      <point x="535" y="285" type="curve" smooth="yes"/>
      <point x="1300" y="1462" type="line"/>
      <point x="1241" y="1462" type="line"/>
      <point x="645" y="543" type="line" smooth="yes"/>
      <point x="621" y="504"/>
      <point x="586" y="446"/>
      <point x="565" y="412" type="curve"/>
      <point x="557" y="449"/>
      <point x="543" y="502"/>
      <point x="530" y="547" type="curve" smooth="yes"/>
      <point x="266" y="1462" type="line"/>
      <point x="213" y="1462" type="line"/>
      <point x="532" y="371" type="line"/>
      <point x="401" y="164"/>
      <point x="301" y="31"/>
      <point x="129" y="31" type="curve" smooth="yes"/>
      <point x="78" y="31"/>
      <point x="25" y="43"/>
      <point x="-20" y="66" type="curve"/>
      <point x="-20" y="10" type="line"/>
      <point x="14" y="-6"/>
      <point x="66" y="-20"/>
    </contour>
  </outline>
</glyph>
<glyph name="afii10042" format="2">
  <advance width="1939"/>
  <unicode hex="0428"/>
  <anchor x="856" y="0" name="bottom"/>
  <anchor x="1167" y="1462" name="top"/>
  <outline>
    <contour>
      <point x="102" y="0" type="line"/>
      <point x="1620" y="0" type="line"/>
      <point x="1929" y="1462" type="line"/>
      <point x="1874" y="1462" type="line"/>
      <point x="1575" y="51" type="line"/>
      <point x="897" y="51" type="line"/>
      <point x="1196" y="1462" type="line"/>
      <point x="1141" y="1462" type="line"/>
      <point x="842" y="51" type="line"/>
      <point x="168" y="51" type="line"/>
      <point x="467" y="1462" type="line"/>
      <point x="412" y="1462" type="line"/>
    </contour>
  </outline>
</glyph>
<glyph name="afii10073" format="2">
  <advance width="866"/>
  <unicode hex="0437"/>
  <anchor x="305" y="0" name="bottom"/>
  <anchor x="535" y="1081" name="top"/>
  <outline>
    <contour>
      <point x="291" y="-20" type="curve" smooth="yes"/>
      <point x="512" y="-20"/>
      <point x="707" y="88"/>
      <point x="707" y="338" type="curve" smooth="yes"/>
      <point x="707" y="453"/>
      <point x="647" y="543"/>
      <point x="528" y="571" type="curve"/>
      <point x="528" y="575" type="line"/>
      <point x="672" y="600"/>
      <point x="776" y="696"/>
      <point x="776" y="856" type="curve" smooth="yes"/>
      <point x="776" y="1004"/>
      <point x="668" y="1102"/>
      <point x="502" y="1102" type="curve" smooth="yes"/>
      <point x="375" y="1102"/>
      <point x="291" y="1075"/>
      <point x="195" y="1030" type="curve"/>
      <point x="215" y="981" type="line"/>
      <point x="313" y="1026"/>
      <point x="387" y="1051"/>
      <point x="500" y="1051" type="curve" smooth="yes"/>
      <point x="635" y="1051"/>
      <point x="721" y="973"/>
      <point x="721" y="856" type="curve" smooth="yes"/>
      <point x="721" y="664"/>
      <point x="567" y="602"/>
      <point x="385" y="602" type="curve" smooth="yes"/>
      <point x="276" y="602" type="line"/>
      <point x="266" y="551" type="line"/>
      <point x="375" y="551" type="line" smooth="yes"/>
      <point x="551" y="551"/>
      <point x="651" y="479"/>
      <point x="651" y="338" type="curve" smooth="yes"/>
      <point x="651" y="123"/>
      <point x="481" y="31"/>
      <point x="291" y="31" type="curve" smooth="yes"/>
      <point x="178" y="31"/>
      <point x="80" y="61"/>
      <point x="0" y="113" type="curve"/>
      <point x="0" y="51" type="line"/>
      <point x="59" y="10"/>
      <point x="158" y="-20"/>
    </contour>
  </outline>
</glyph>
<glyph name="afii10092" format="2">
  <advance width="1159"/>
  <unicode hex="044A"/>
  <anchor x="465" y="0" name="bottom"/>
  <anchor x="694" y="1081" name="top"/>
  <outline>
    <contour>
      <point x="618" y="-20" type="curve" smooth="yes"/>
      <point x="887" y="-20"/>
      <point x="1016" y="147"/>
      <point x="1016" y="330" type="curve" smooth="yes"/>
      <point x="1016" y="506"/>
      <point x="907" y="604"/>
      <point x="666" y="604" type="curve" smooth="yes"/>
      <point x="565" y="604"/>
      <point x="455" y="586"/>
      <point x="389" y="565" type="curve"/>
      <point x="498" y="1081" type="line"/>
      <point x="117" y="1081" type="line"/>
      <point x="104" y="1030" type="line"/>
      <point x="434" y="1030" type="line"/>
      <point x="336" y="565" type="line" smooth="yes"/>
      <point x="317" y="475"/>
      <point x="297" y="395"/>
      <point x="297" y="301" type="curve" smooth="yes"/>
      <point x="297" y="135"/>
      <point x="373" y="-20"/>
    </contour>
    <contour>
      <point x="623" y="31" type="curve" smooth="yes"/>
      <point x="451" y="31"/>
      <point x="352" y="113"/>
      <point x="352" y="305" type="curve" smooth="yes"/>
      <point x="352" y="367"/>
      <point x="360" y="434"/>
      <point x="377" y="514" type="curve"/>
      <point x="451" y="532"/>
      <point x="547" y="553"/>
      <point x="659" y="553" type="curve" smooth="yes"/>
      <point x="893" y="553"/>
      <point x="961" y="451"/>
      <point x="961" y="328" type="curve" smooth="yes"/>
      <point x="961" y="160"/>
      <point x="840" y="31"/>
    </contour>
  </outline>
</glyph>
<glyph name="afii10096" format="2">
  <advance width="1597"/>
  <unicode hex="044E"/>
  <anchor x="684" y="0" name="bottom"/>
  <anchor x="913" y="1081" name="top"/>
  <outline>
    <contour>
      <point x="936" y="-20" type="curve" smooth="yes"/>
      <point x="1276" y="-20"/>
      <point x="1470" y="303"/>
      <point x="1470" y="692" type="curve" smooth="yes"/>
      <point x="1470" y="928"/>
      <point x="1352" y="1102"/>
      <point x="1120" y="1102" type="curve" smooth="yes"/>
      <point x="860" y="1102"/>
      <point x="657" y="907"/>
      <point x="598" y="592" type="curve"/>
      <point x="244" y="592" type="line"/>
      <point x="348" y="1081" type="line"/>
      <point x="295" y="1081" type="line"/>
      <point x="66" y="0" type="line"/>
      <point x="119" y="0" type="line"/>
      <point x="233" y="541" type="line"/>
      <point x="590" y="541" type="line"/>
      <point x="584" y="502"/>
      <point x="580" y="444"/>
      <point x="580" y="393" type="curve" smooth="yes"/>
      <point x="580" y="150"/>
      <point x="694" y="-20"/>
    </contour>
    <contour>
      <point x="942" y="31" type="curve" smooth="yes"/>
      <point x="737" y="31"/>
      <point x="635" y="172"/>
      <point x="635" y="393" type="curve" smooth="yes"/>
      <point x="635" y="795"/>
      <point x="844" y="1051"/>
      <point x="1116" y="1051" type="curve" smooth="yes"/>
      <point x="1317" y="1051"/>
      <point x="1415" y="901"/>
      <point x="1415" y="694" type="curve" smooth="yes"/>
      <point x="1415" y="328"/>
      <point x="1239" y="31"/>
    </contour>
  </outline>
</glyph>
<glyph name="uni046A" format="2">
  <advance width="1288"/>
  <unicode hex="046A"/>
  <anchor x="530" y="0" name="bottom"/>
  <anchor x="842" y="1462" name="top"/>
  <outline>
    <contour>
      <point x="-51" y="0" type="line"/>
      <point x="6" y="0" type="line"/>
      <point x="252" y="516" type="line" smooth="yes"/>
      <point x="344" y="709"/>
      <point x="444" y="786"/>
      <point x="657" y="786" type="curve" smooth="yes"/>
      <point x="684" y="786" type="line"/>
      <point x="514" y="0" type="line"/>
      <point x="567" y="0" type="line"/>
      <point x="737" y="786" type="line"/>
      <point x="758" y="786" type="line" smooth="yes"/>
      <point x="983" y="786"/>
      <point x="1044" y="674"/>
      <point x="1059" y="465" type="curve" smooth="yes"/>
      <point x="1090" y="0" type="line"/>
      <point x="1143" y="0" type="line"/>
      <point x="1112" y="465" type="line" smooth="yes"/>
      <point x="1096" y="702"/>
      <point x="1030" y="821"/>
      <point x="786" y="838" type="curve"/>
      <point x="1335" y="1411" type="line"/>
      <point x="1346" y="1462" type="line"/>
      <point x="358" y="1462" type="line"/>
      <point x="348" y="1411" type="line"/>
      <point x="657" y="838" type="line"/>
      <point x="395" y="836"/>
      <point x="291" y="723"/>
      <point x="193" y="516" type="curve" smooth="yes"/>
    </contour>
    <contour>
      <point x="717" y="838" type="line"/>
      <point x="410" y="1411" type="line"/>
      <point x="1262" y="1411" type="line"/>
    </contour>
  </outline>
</glyph>
<glyph name="dasiapneumatacomb-cy" format="2">
  <unicode hex="0485"/>
  <anchor x="-541" y="1081" name="_top"/>
  <anchor x="-438" y="1556" name="top"/>
  <outline>
    <contour>
      <point x="-377" y="1264" type="curve"/>
      <point x="-377" y="1315" type="line"/>
      <point x="-449" y="1339"/>
      <point x="-496" y="1378"/>
      <point x="-496" y="1419" type="curve" smooth="yes"/>
      <point x="-496" y="1436"/>
      <point x="-489" y="1446"/>
      <point x="-473" y="1458" type="curve" smooth="yes"/>
      <point x="-461" y="1468"/>
      <point x="-453" y="1483"/>
      <point x="-453" y="1499" type="curve" smooth="yes"/>
      <point x="-453" y="1536"/>
      <point x="-469" y="1556"/>
      <point x="-502" y="1556" type="curve" smooth="yes"/>
      <point x="-537" y="1556"/>
      <point x="-563" y="1522"/>
      <point x="-563" y="1466" type="curve" smooth="yes"/>
      <point x="-563" y="1386"/>
      <point x="-508" y="1311"/>
    </contour>
  </outline>
</glyph>
<glyph name="uni048B" format="2">
  <advance width="1155"/>
  <unicode hex="048B"/>
  <anchor x="391" y="-342" name="bottom"/>
  <anchor x="782" y="1503" name="top"/>
  <outline>
    <contour>
      <point x="758" y="-342" type="line"/>
      <point x="815" y="-342" type="line"/>
      <point x="1026" y="51" type="line"/>
      <point x="838" y="51" type="line"/>
      <point x="1057" y="1081" type="line"/>
      <point x="1004" y="1081" type="line"/>
      <point x="885" y="520" type="line" smooth="yes"/>
      <point x="831" y="266"/>
      <point x="625" y="31"/>
      <point x="397" y="31" type="curve" smooth="yes"/>
      <point x="252" y="31"/>
      <point x="166" y="100"/>
      <point x="166" y="254" type="curve" smooth="yes"/>
      <point x="166" y="289"/>
      <point x="170" y="330"/>
      <point x="180" y="375" type="curve" smooth="yes"/>
      <point x="330" y="1081" type="line"/>
      <point x="276" y="1081" type="line"/>
      <point x="129" y="381" type="line" smooth="yes"/>
      <point x="119" y="334"/>
      <point x="113" y="285"/>
      <point x="113" y="246" type="curve" smooth="yes"/>
      <point x="113" y="72"/>
      <point x="211" y="-20"/>
      <point x="389" y="-20" type="curve" smooth="yes"/>
      <point x="608" y="-20"/>
      <point x="768" y="156"/>
      <point x="836" y="285" type="curve"/>
      <point x="840" y="285" type="line"/>
      <point x="782" y="0" type="line"/>
      <point x="940" y="0" type="line"/>
    </contour>
    <component base="cyrillicbreve" xOffset="-33"/>
  </outline>
</glyph>
<glyph name="uni048C" format="2">
  <advance width="1130"/>
  <unicode hex="048C"/>
  <anchor x="451" y="0" name="bottom"/>
  <anchor x="762" y="1462" name="top"/>
  <outline>
    <contour>
      <point x="102" y="0" type="line"/>
      <point x="463" y="0" type="line" smooth="yes"/>
      <point x="786" y="0"/>
      <point x="1004" y="143"/>
      <point x="1004" y="467" type="curve" smooth="yes"/>
      <point x="1004" y="690"/>
      <point x="858" y="805"/>
      <point x="596" y="805" type="curve" smooth="yes"/>
      <point x="328" y="805" type="line"/>
      <point x="412" y="1202" type="line"/>
      <point x="776" y="1202" type="line"/>
      <point x="784" y="1253" type="line"/>
      <point x="422" y="1253" type="line"/>
      <point x="467" y="1462" type="line"/>
      <point x="412" y="1462" type="line"/>
      <point x="367" y="1253" type="line"/>
      <point x="211" y="1253" type="line"/>
      <point x="201" y="1202" type="line"/>
      <point x="356" y="1202" type="line"/>
    </contour>
    <contour>
      <point x="168" y="51" type="line"/>
      <point x="317" y="754" type="line"/>
      <point x="588" y="754" type="line" smooth="yes"/>
      <point x="803" y="754"/>
      <point x="948" y="668"/>
      <point x="948" y="465" type="curve" smooth="yes"/>
      <point x="948" y="158"/>
      <point x="735" y="51"/>
      <point x="463" y="51" type="curve" smooth="yes"/>
    </contour>
  </outline>
</glyph>
<glyph name="uni048F" format="2">
  <advance width="1163"/>
  <unicode hex="048F"/>
  <anchor x="367" y="-475" name="bottom"/>
  <anchor x="696" y="1081" name="top"/>
  <outline>
    <contour>
      <point x="774" y="-207" type="line"/>
      <point x="817" y="-190" type="line"/>
      <point x="582" y="326" type="line"/>
      <point x="537" y="309" type="line"/>
    </contour>
    <component base="p"/>
  </outline>
</glyph>
<glyph name="uni049F" format="2">
  <advance width="823"/>
  <unicode hex="049F"/>
  <anchor x="297" y="0" name="bottom"/>
  <anchor x="627" y="1556" name="top"/>
  <outline>
    <contour>
      <point x="61" y="0" type="line"/>
      <point x="115" y="0" type="line"/>
      <point x="231" y="547" type="line"/>
      <point x="643" y="0" type="line"/>
      <point x="709" y="0" type="line"/>
      <point x="299" y="545" type="line"/>
      <point x="926" y="1081" type="line"/>
      <point x="848" y="1081" type="line"/>
      <point x="233" y="555" type="line"/>
      <point x="391" y="1294" type="line"/>
      <point x="698" y="1294" type="line"/>
      <point x="709" y="1346" type="line"/>
      <point x="401" y="1346" type="line"/>
      <point x="446" y="1556" type="line"/>
      <point x="393" y="1556" type="line"/>
      <point x="348" y="1346" type="line"/>
      <point x="172" y="1346" type="line"/>
      <point x="162" y="1294" type="line"/>
      <point x="338" y="1294" type="line"/>
    </contour>
  </outline>
</glyph>
<glyph name="uni04A8" format="2">
  <advance width="1458"/>
  <unicode hex="04A8"/>
  <anchor x="614" y="0" name="bottom"/>
  <anchor x="926" y="1462" name="top"/>
  <outline>
    <contour>
      <point x="1118" y="-90" type="curve" smooth="yes"/>
      <point x="1180" y="-90"/>
      <point x="1231" y="-80"/>
      <point x="1251" y="-72" type="curve"/>
      <point x="1251" y="-20" type="line"/>
      <point x="1229" y="-29"/>
      <point x="1182" y="-39"/>
      <point x="1122" y="-39" type="curve" smooth="yes"/>
      <point x="1030" y="-39"/>
      <point x="956" y="-12"/>
      <point x="918" y="25" type="curve"/>
      <point x="1217" y="145"/>
      <point x="1368" y="514"/>
      <point x="1368" y="874" type="curve" smooth="yes"/>
      <point x="1368" y="1165"/>
      <point x="1274" y="1239"/>
      <point x="1124" y="1239" type="curve" smooth="yes"/>
      <point x="879" y="1239"/>
      <point x="705" y="920"/>
      <point x="705" y="467" type="curve" smooth="yes"/>
      <point x="705" y="319"/>
      <point x="739" y="154"/>
      <point x="819" y="45" type="curve"/>
      <point x="793" y="39"/>
      <point x="743" y="31"/>
      <point x="698" y="31" type="curve" smooth="yes"/>
      <point x="399" y="31"/>
      <point x="227" y="201"/>
      <point x="227" y="569" type="curve" smooth="yes"/>
      <point x="227" y="991"/>
      <point x="446" y="1434"/>
      <point x="870" y="1434" type="curve" smooth="yes"/>
      <point x="991" y="1434"/>
      <point x="1053" y="1409"/>
      <point x="1102" y="1384" type="curve"/>
      <point x="1124" y="1436" type="line"/>
      <point x="1071" y="1458"/>
      <point x="991" y="1485"/>
      <point x="874" y="1485" type="curve" smooth="yes"/>
      <point x="420" y="1485"/>
      <point x="172" y="1034"/>
      <point x="172" y="565" type="curve" smooth="yes"/>
      <point x="172" y="180"/>
      <point x="352" y="-20"/>
      <point x="692" y="-20" type="curve" smooth="yes"/>
      <point x="766" y="-20"/>
      <point x="817" y="-10"/>
      <point x="856" y="0" type="curve"/>
      <point x="911" y="-53"/>
      <point x="997" y="-90"/>
    </contour>
    <contour>
      <point x="879" y="61" type="curve"/>
      <point x="801" y="152"/>
      <point x="760" y="305"/>
      <point x="760" y="473" type="curve" smooth="yes"/>
      <point x="760" y="932"/>
      <point x="932" y="1188"/>
      <point x="1122" y="1188" type="curve" smooth="yes"/>
      <point x="1243" y="1188"/>
      <point x="1313" y="1120"/>
      <point x="1313" y="874" type="curve" smooth="yes"/>
      <point x="1313" y="530"/>
      <point x="1169" y="176"/>
    </contour>
  </outline>
</glyph>
<glyph name="uni04AC" format="2">
  <advance width="993"/>
  <unicode hex="04AC"/>
  <anchor x="307" y="-358" name="bottom"/>
  <anchor x="694" y="1462" name="top"/>
  <outline>
    <contour>
      <point x="418" y="-358" type="line"/>
      <point x="469" y="-358" type="line"/>
      <point x="555" y="51" type="line"/>
      <point x="418" y="51" type="line"/>
      <point x="707" y="1411" type="line"/>
      <point x="1169" y="1411" type="line"/>
      <point x="1180" y="1462" type="line"/>
      <point x="201" y="1462" type="line"/>
      <point x="190" y="1411" type="line"/>
      <point x="651" y="1411" type="line"/>
      <point x="352" y="0" type="line"/>
      <point x="494" y="0" type="line"/>
    </contour>
  </outline>
</glyph>
<glyph name="uni04B1" format="2">
  <advance width="840"/>
  <unicode hex="04B1"/>
  <anchor x="201" y="-492" name="bottom"/>
  <anchor x="535" y="1081" name="top"/>
  <outline>
    <contour>
      <point x="154" y="-492" type="line"/>
      <point x="207" y="-492" type="line"/>
      <point x="311" y="-31" type="line"/>
      <point x="553" y="-31" type="line"/>
      <point x="565" y="20" type="line"/>
      <point x="326" y="20" type="line"/>
      <point x="940" y="1081" type="line"/>
      <point x="881" y="1081" type="line"/>
      <point x="420" y="283" type="line" smooth="yes"/>
      <point x="371" y="197"/>
      <point x="342" y="139"/>
      <point x="307" y="74" type="curve"/>
      <point x="303" y="74" type="line"/>
      <point x="297" y="141"/>
      <point x="291" y="195"/>
      <point x="276" y="283" type="curve" smooth="yes"/>
      <point x="156" y="1081" type="line"/>
      <point x="102" y="1081" type="line"/>
      <point x="268" y="20" type="line"/>
      <point x="23" y="20" type="line"/>
      <point x="12" y="-31" type="line"/>
      <point x="258" y="-31" type="line"/>
    </contour>
  </outline>
</glyph>
<glyph name="uni04BF" format="2">
  <advance width="1180"/>
  <unicode hex="04BF"/>
  <anchor x="399" y="-356" name="bottom"/>
  <anchor x="705" y="1081" name="top"/>
  <outline>
    <contour>
      <point x="561" y="-356" type="line"/>
      <point x="614" y="-356" type="line"/>
      <point x="688" y="-20" type="line"/>
      <point x="799" y="-18"/>
      <point x="907" y="14"/>
      <point x="965" y="45" type="curve"/>
      <point x="965" y="98" type="line"/>
      <point x="899" y="70"/>
      <point x="805" y="31"/>
      <point x="688" y="31" type="curve" smooth="yes"/>
      <point x="485" y="31"/>
      <point x="356" y="160"/>
      <point x="356" y="397" type="curve" smooth="yes"/>
      <point x="356" y="444"/>
      <point x="360" y="494"/>
      <point x="365" y="524" type="curve"/>
      <point x="434" y="524" type="line" smooth="yes"/>
      <point x="805" y="524"/>
      <point x="1112" y="602"/>
      <point x="1112" y="868" type="curve" smooth="yes"/>
      <point x="1112" y="1006"/>
      <point x="1008" y="1102"/>
      <point x="856" y="1102" type="curve" smooth="yes"/>
      <point x="594" y="1102"/>
      <point x="379" y="883"/>
      <point x="317" y="575" type="curve"/>
      <point x="213" y="575"/>
      <point x="166" y="606"/>
      <point x="166" y="686" type="curve" smooth="yes"/>
      <point x="166" y="727"/>
      <point x="178" y="760"/>
      <point x="188" y="784" type="curve"/>
      <point x="131" y="784" type="line"/>
      <point x="123" y="762"/>
      <point x="111" y="729"/>
      <point x="111" y="682" type="curve" smooth="yes"/>
      <point x="111" y="598"/>
      <point x="147" y="528"/>
      <point x="309" y="524" type="curve"/>
      <point x="303" y="483"/>
      <point x="301" y="440"/>
      <point x="301" y="397" type="curve" smooth="yes"/>
      <point x="301" y="121"/>
      <point x="459" y="-2"/>
      <point x="635" y="-18" type="curve"/>
    </contour>
    <contour>
      <point x="373" y="575" type="line"/>
      <point x="434" y="877"/>
      <point x="649" y="1051"/>
      <point x="848" y="1051" type="curve" smooth="yes"/>
      <point x="985" y="1051"/>
      <point x="1057" y="973"/>
      <point x="1057" y="866" type="curve" smooth="yes"/>
      <point x="1057" y="666"/>
      <point x="813" y="575"/>
      <point x="471" y="575" type="curve" smooth="yes"/>
    </contour>
  </outline>
</glyph>
<glyph name="uni04CC" format="2">
  <advance width="1051"/>
  <unicode hex="04CC"/>
  <anchor x="336" y="-358" name="bottom"/>
  <anchor x="641" y="1081" name="top"/>
  <outline>
    <contour>
      <point x="475" y="-358" type="line"/>
      <point x="530" y="-358" type="line"/>
      <point x="600" y="0" type="line"/>
      <point x="733" y="0" type="line"/>
      <point x="967" y="1081" type="line"/>
      <point x="911" y="1081" type="line"/>
      <point x="895" y="1001" type="line" smooth="yes"/>
      <point x="838" y="719"/>
      <point x="653" y="471"/>
      <point x="397" y="471" type="curve"/>
      <point x="252" y="471"/>
      <point x="186" y="541"/>
      <point x="186" y="641" type="curve"/>
      <point x="186" y="682"/>
      <point x="197" y="737"/>
      <point x="213" y="813" type="curve" smooth="yes"/>
      <point x="270" y="1081" type="line"/>
      <point x="213" y="1081" type="line"/>
      <point x="154" y="815" type="line" smooth="yes"/>
      <point x="147" y="772"/>
      <point x="133" y="690"/>
      <point x="133" y="635" type="curve"/>
      <point x="133" y="473"/>
      <point x="252" y="420"/>
      <point x="391" y="420" type="curve" smooth="yes"/>
      <point x="580" y="420"/>
      <point x="721" y="520"/>
      <point x="817" y="662" type="curve"/>
      <point x="825" y="662" type="line"/>
      <point x="815" y="608"/>
      <point x="772" y="461"/>
      <point x="741" y="315" type="curve" smooth="yes"/>
      <point x="684" y="49" type="line"/>
      <point x="557" y="49" type="line"/>
    </contour>
  </outline>
</glyph>
<glyph name="uni04D8" format="2">
  <advance width="1329"/>
  <unicode hex="04D8"/>
  <anchor x="551" y="0" name="bottom"/>
  <anchor x="862" y="1462" name="top"/>
  <outline>
    <contour>
      <point x="469" y="-20" type="curve" smooth="yes"/>
      <point x="940" y="-20"/>
      <point x="1247" y="399"/>
      <point x="1247" y="915" type="curve" smooth="yes"/>
      <point x="1247" y="1284"/>
      <point x="1073" y="1481"/>
      <point x="733" y="1481" type="curve" smooth="yes"/>
      <point x="545" y="1481"/>
      <point x="424" y="1430"/>
      <point x="352" y="1393" type="curve"/>
      <point x="352" y="1341" type="line"/>
      <point x="424" y="1378"/>
      <point x="551" y="1430"/>
      <point x="725" y="1430" type="curve" smooth="yes"/>
      <point x="1040" y="1430"/>
      <point x="1192" y="1255"/>
      <point x="1192" y="915" type="curve" smooth="yes"/>
      <point x="1192" y="823"/>
      <point x="1184" y="768"/>
      <point x="1180" y="743" type="curve"/>
      <point x="946" y="743" type="line" smooth="yes"/>
      <point x="262" y="743"/>
      <point x="84" y="547"/>
      <point x="84" y="295" type="curve" smooth="yes"/>
      <point x="84" y="119"/>
      <point x="199" y="-20"/>
    </contour>
    <contour>
      <point x="471" y="31" type="curve" smooth="yes"/>
      <point x="231" y="31"/>
      <point x="139" y="154"/>
      <point x="139" y="295" type="curve" smooth="yes"/>
      <point x="139" y="524"/>
      <point x="295" y="692"/>
      <point x="940" y="692" type="curve" smooth="yes"/>
      <point x="1174" y="692" type="line"/>
      <point x="1096" y="289"/>
      <point x="815" y="31"/>
    </contour>
  </outline>
</glyph>
<glyph name="uni04D9" format="2">
  <advance width="1024"/>
  <unicode hex="04D9"/>
  <anchor x="397" y="0" name="bottom"/>
  <anchor x="627" y="1081" name="top"/>
  <outline>
    <contour>
      <point x="340" y="-20" type="curve" smooth="yes"/>
      <point x="651" y="-20"/>
      <point x="895" y="289"/>
      <point x="895" y="684" type="curve" smooth="yes"/>
      <point x="895" y="983"/>
      <point x="711" y="1102"/>
      <point x="518" y="1102" type="curve" smooth="yes"/>
      <point x="406" y="1102"/>
      <point x="291" y="1069"/>
      <point x="231" y="1036" type="curve"/>
      <point x="231" y="983" type="line"/>
      <point x="297" y="1012"/>
      <point x="391" y="1051"/>
      <point x="508" y="1051" type="curve" smooth="yes"/>
      <point x="711" y="1051"/>
      <point x="840" y="922"/>
      <point x="840" y="684" type="curve" smooth="yes"/>
      <point x="840" y="637"/>
      <point x="836" y="588"/>
      <point x="831" y="557" type="curve"/>
      <point x="762" y="557" type="line" smooth="yes"/>
      <point x="391" y="557"/>
      <point x="84" y="479"/>
      <point x="84" y="213" type="curve" smooth="yes"/>
      <point x="84" y="76"/>
      <point x="188" y="-20"/>
    </contour>
    <contour>
      <point x="348" y="31" type="curve" smooth="yes"/>
      <point x="211" y="31"/>
      <point x="139" y="109"/>
      <point x="139" y="215" type="curve" smooth="yes"/>
      <point x="139" y="416"/>
      <point x="383" y="506"/>
      <point x="725" y="506" type="curve" smooth="yes"/>
      <point x="823" y="506" type="line"/>
      <point x="762" y="205"/>
      <point x="547" y="31"/>
    </contour>
  </outline>
</glyph>
<glyph name="uni04F7" format="2">
  <advance width="735"/>
  <unicode hex="04F7"/>
  <anchor x="182" y="-342" name="bottom"/>
  <anchor x="483" y="1081" name="top"/>
  <outline>
    <contour>
      <point x="162" y="-342" type="line"/>
      <point x="215" y="-342" type="line"/>
      <point x="305" y="51" type="line"/>
      <point x="129" y="51" type="line"/>
      <point x="338" y="1030" type="line"/>
      <point x="795" y="1030" type="line"/>
      <point x="805" y="1081" type="line"/>
      <point x="295" y="1081" type="line"/>
      <point x="66" y="0" type="line"/>
      <point x="238" y="0" type="line"/>
    </contour>
  </outline>
</glyph>
<glyph name="uni04FB" format="2">
  <advance width="748"/>
  <unicode hex="04FB"/>
  <anchor x="197" y="-301" name="bottom"/>
  <anchor x="489" y="1081" name="top"/>
  <outline>
    <contour>
      <point x="2" y="-301" type="curve" smooth="yes"/>
      <point x="86" y="-301"/>
      <point x="127" y="-250"/>
      <point x="145" y="-164" type="curve" smooth="yes"/>
      <point x="193" y="51" type="line"/>
      <point x="141" y="51" type="line"/>
      <point x="242" y="520" type="line"/>
      <point x="557" y="520" type="line"/>
      <point x="567" y="571" type="line"/>
      <point x="252" y="571" type="line"/>
      <point x="350" y="1030" type="line"/>
      <point x="807" y="1030" type="line"/>
      <point x="817" y="1081" type="line"/>
      <point x="307" y="1081" type="line"/>
      <point x="199" y="571" type="line"/>
      <point x="31" y="571" type="line"/>
      <point x="20" y="520" type="line"/>
      <point x="188" y="520" type="line"/>
      <point x="78" y="0" type="line"/>
      <point x="129" y="0" type="line"/>
      <point x="96" y="-150" type="line" smooth="yes"/>
      <point x="78" y="-231"/>
      <point x="49" y="-252"/>
      <point x="0" y="-252" type="curve" smooth="yes"/>
      <point x="-25" y="-252"/>
      <point x="-47" y="-246"/>
      <point x="-59" y="-240" type="curve"/>
      <point x="-59" y="-289" type="line"/>
      <point x="-49" y="-295"/>
      <point x="-23" y="-301"/>
    </contour>
  </outline>
</glyph>
<glyph name="uni0500" format="2">
  <advance width="1112"/>
  <unicode hex="0500"/>
  <anchor x="442" y="0" name="bottom"/>
  <anchor x="754" y="1462" name="top"/>
  <outline>
    <contour>
      <point x="516" y="0" type="curve" smooth="yes"/>
      <point x="834" y="0" type="line"/>
      <point x="1143" y="1462" type="line"/>
      <point x="1087" y="1462" type="line"/>
      <point x="956" y="838" type="line"/>
      <point x="668" y="838" type="line" smooth="yes"/>
      <point x="279" y="838"/>
      <point x="102" y="639"/>
      <point x="102" y="360" type="curve" smooth="yes"/>
      <point x="102" y="123"/>
      <point x="248" y="0"/>
    </contour>
    <contour>
      <point x="526" y="51" type="line" smooth="yes"/>
      <point x="291" y="51"/>
      <point x="158" y="145"/>
      <point x="158" y="362" type="curve" smooth="yes"/>
      <point x="158" y="612"/>
      <point x="305" y="786"/>
      <point x="659" y="786" type="curve" smooth="yes"/>
      <point x="944" y="786" type="line"/>
      <point x="788" y="51" type="line"/>
    </contour>
  </outline>
</glyph>
<glyph name="uni0504" format="2">
  <advance width="1638"/>
  <unicode hex="0504"/>
  <anchor x="705" y="0" name="bottom"/>
  <anchor x="1016" y="1462" name="top"/>
  <outline>
    <contour>
      <point x="1098" y="-20" type="curve" smooth="yes"/>
      <point x="1309" y="-20"/>
      <point x="1397" y="100"/>
      <point x="1442" y="303" type="curve" smooth="yes"/>
      <point x="1561" y="848" type="line"/>
      <point x="1507" y="848" type="line"/>
      <point x="1389" y="303" type="line" smooth="yes"/>
      <point x="1350" y="123"/>
      <point x="1268" y="31"/>
      <point x="1102" y="31" type="curve" smooth="yes"/>
      <point x="924" y="31"/>
      <point x="856" y="127"/>
      <point x="856" y="266" type="curve" smooth="yes"/>
      <point x="856" y="315"/>
      <point x="870" y="399"/>
      <point x="870" y="449" type="curve" smooth="yes"/>
      <point x="870" y="616"/>
      <point x="774" y="719"/>
      <point x="635" y="752" type="curve"/>
      <point x="635" y="756" type="line"/>
      <point x="817" y="786"/>
      <point x="995" y="901"/>
      <point x="995" y="1161" type="curve" smooth="yes"/>
      <point x="995" y="1346"/>
      <point x="877" y="1483"/>
      <point x="657" y="1483" type="curve" smooth="yes"/>
      <point x="473" y="1483"/>
      <point x="340" y="1421"/>
      <point x="205" y="1331" type="curve"/>
      <point x="231" y="1286" type="line"/>
      <point x="362" y="1370"/>
      <point x="483" y="1432"/>
      <point x="653" y="1432" type="curve" smooth="yes"/>
      <point x="829" y="1432"/>
      <point x="940" y="1319"/>
      <point x="940" y="1161" type="curve" smooth="yes"/>
      <point x="940" y="901"/>
      <point x="754" y="786"/>
      <point x="465" y="786" type="curve" smooth="yes"/>
      <point x="244" y="786" type="line"/>
      <point x="233" y="735" type="line"/>
      <point x="442" y="735" type="line" smooth="yes"/>
      <point x="682" y="735"/>
      <point x="815" y="639"/>
      <point x="815" y="449" type="curve" smooth="yes"/>
      <point x="815" y="395"/>
      <point x="801" y="303"/>
      <point x="801" y="250" type="curve" smooth="yes"/>
      <point x="801" y="94"/>
      <point x="895" y="-20"/>
    </contour>
  </outline>
</glyph>
<glyph name="uni0506" format="2">
  <advance width="1126"/>
  <unicode hex="0506"/>
  <anchor x="377" y="-342" name="bottom"/>
  <anchor x="760" y="1462" name="top"/>
  <outline>
    <contour>
      <point x="821" y="-342" type="line"/>
      <point x="874" y="-342" type="line"/>
      <point x="961" y="51" type="line"/>
      <point x="793" y="51" type="line"/>
      <point x="840" y="246" type="line" smooth="yes"/>
      <point x="856" y="317"/>
      <point x="870" y="379"/>
      <point x="870" y="449" type="curve" smooth="yes"/>
      <point x="870" y="616"/>
      <point x="774" y="719"/>
      <point x="635" y="752" type="curve"/>
      <point x="635" y="756" type="line"/>
      <point x="817" y="786"/>
      <point x="995" y="901"/>
      <point x="995" y="1161" type="curve" smooth="yes"/>
      <point x="995" y="1346"/>
      <point x="877" y="1483"/>
      <point x="657" y="1483" type="curve" smooth="yes"/>
      <point x="473" y="1483"/>
      <point x="340" y="1421"/>
      <point x="205" y="1331" type="curve"/>
      <point x="231" y="1286" type="line"/>
      <point x="362" y="1370"/>
      <point x="483" y="1432"/>
      <point x="653" y="1432" type="curve" smooth="yes"/>
      <point x="829" y="1432"/>
      <point x="940" y="1319"/>
      <point x="940" y="1161" type="curve" smooth="yes"/>
      <point x="940" y="901"/>
      <point x="754" y="786"/>
      <point x="465" y="786" type="curve" smooth="yes"/>
      <point x="244" y="786" type="line"/>
      <point x="233" y="735" type="line"/>
      <point x="442" y="735" type="line" smooth="yes"/>
      <point x="682" y="735"/>
      <point x="815" y="641"/>
      <point x="815" y="442" type="curve" smooth="yes"/>
      <point x="815" y="375"/>
      <point x="803" y="319"/>
      <point x="786" y="248" type="curve" smooth="yes"/>
      <point x="727" y="0" type="line"/>
      <point x="897" y="0" type="line"/>
    </contour>
  </outline>
</glyph>
<glyph name="uni051E" format="2">
  <advance width="1112"/>
  <unicode hex="051E"/>
  <anchor x="442" y="0" name="bottom"/>
  <anchor x="754" y="1462" name="top"/>
  <outline>
    <contour>
      <point x="102" y="0" type="line"/>
      <point x="164" y="0" type="line"/>
      <point x="317" y="729" type="line"/>
      <point x="936" y="0" type="line"/>
      <point x="1016" y="0" type="line"/>
      <point x="395" y="727" type="line"/>
      <point x="907" y="1167" type="line"/>
      <point x="1110" y="915" type="line"/>
      <point x="1151" y="948" type="line"/>
      <point x="946" y="1202" type="line"/>
      <point x="1247" y="1462" type="line"/>
      <point x="1163" y="1462" type="line"/>
      <point x="911" y="1245" type="line"/>
      <point x="739" y="1460" type="line"/>
      <point x="698" y="1427" type="line"/>
      <point x="872" y="1210" type="line"/>
      <point x="319" y="735" type="line"/>
      <point x="473" y="1462" type="line"/>
      <point x="412" y="1462" type="line"/>
    </contour>
  </outline>
</glyph>
<glyph name="uni0524" format="2">
  <advance width="1405"/>
  <unicode hex="0524"/>
  <anchor x="512" y="-358" name="bottom"/>
  <anchor x="899" y="1462" name="top"/>
  <outline>
    <contour>
      <point x="1079" y="-358" type="line"/>
      <point x="1130" y="-358" type="line"/>
      <point x="1219" y="51" type="line"/>
      <point x="1051" y="51" type="line"/>
      <point x="1348" y="1462" type="line"/>
      <point x="412" y="1462" type="line"/>
      <point x="102" y="0" type="line"/>
      <point x="158" y="0" type="line"/>
      <point x="457" y="1411" type="line"/>
      <point x="1282" y="1411" type="line"/>
      <point x="983" y="0" type="line"/>
      <point x="1155" y="0" type="line"/>
    </contour>
  </outline>
</glyph>
<glyph name="uni052F" format="2">
  <advance width="1008"/>
  <unicode hex="052F"/>
  <anchor x="313" y="-356" name="bottom"/>
  <anchor x="618" y="1081" name="top"/>
  <outline>
    <contour>
      <point x="641" y="-356" type="line"/>
      <point x="694" y="-356" type="line"/>
      <point x="778" y="51" type="line"/>
      <point x="690" y="51" type="line"/>
      <point x="662" y="0" type="line"/>
      <point x="713" y="0" type="line"/>
    </contour>
    <component base="afii10077" xOffset="-20"/>
  </outline>
</glyph>
<glyph name="uni1AB2" format="2">
  <unicode hex="1AB2"/>
  <anchor x="119" y="1081" name="_top"/>
  <anchor x="254" y="1710" name="top"/>
  <outline>
    <contour>
      <point x="-23" y="1274" type="curve" smooth="yes"/>
      <point x="68" y="1274"/>
      <point x="135" y="1321"/>
      <point x="209" y="1460" type="curve"/>
      <point x="270" y="1329"/>
      <point x="342" y="1274"/>
      <point x="434" y="1274" type="curve" smooth="yes"/>
      <point x="551" y="1274"/>
      <point x="639" y="1356"/>
      <point x="639" y="1489" type="curve" smooth="yes"/>
      <point x="639" y="1622"/>
      <point x="553" y="1710"/>
      <point x="436" y="1710" type="curve" smooth="yes"/>
      <point x="344" y="1710"/>
      <point x="270" y="1659"/>
      <point x="209" y="1526" type="curve"/>
      <point x="141" y="1659"/>
      <point x="70" y="1710"/>
      <point x="-20" y="1710" type="curve" smooth="yes"/>
      <point x="-137" y="1710"/>
      <point x="-225" y="1616"/>
      <point x="-225" y="1487" type="curve" smooth="yes"/>
      <point x="-225" y="1366"/>
      <point x="-139" y="1274"/>
    </contour>
    <contour>
      <point x="-23" y="1309" type="curve" smooth="yes"/>
      <point x="-113" y="1309"/>
      <point x="-186" y="1376"/>
      <point x="-186" y="1489" type="curve" smooth="yes"/>
      <point x="-186" y="1599"/>
      <point x="-115" y="1675"/>
      <point x="-20" y="1675" type="curve" smooth="yes"/>
      <point x="55" y="1675"/>
      <point x="119" y="1638"/>
      <point x="188" y="1493" type="curve"/>
      <point x="137" y="1382"/>
      <point x="78" y="1309"/>
    </contour>
    <contour>
      <point x="434" y="1309" type="curve" smooth="yes"/>
      <point x="348" y="1309"/>
      <point x="289" y="1364"/>
      <point x="227" y="1495" type="curve"/>
      <point x="287" y="1622"/>
      <point x="346" y="1675"/>
      <point x="436" y="1675" type="curve" smooth="yes"/>
      <point x="530" y="1675"/>
      <point x="602" y="1599"/>
      <point x="602" y="1489" type="curve" smooth="yes"/>
      <point x="602" y="1380"/>
      <point x="530" y="1309"/>
    </contour>
  </outline>
</glyph>
<glyph name="uni1AB6" format="2">
  <unicode hex="1AB6"/>
  <anchor x="-129" y="0" name="_bottom"/>
  <anchor x="-244" y="-543" name="bottom"/>
  <outline>
    <contour>
      <point x="-1198" y="-543" type="curve"/>
      <point x="-1126" y="-543" type="line"/>
      <point x="-1118" y="-420"/>
      <point x="-1073" y="-211"/>
      <point x="-936" y="-211" type="curve" smooth="yes"/>
      <point x="-766" y="-211"/>
      <point x="-786" y="-545"/>
      <point x="-551" y="-543" type="curve" smooth="yes"/>
      <point x="-313" y="-545"/>
      <point x="-354" y="-211"/>
      <point x="-201" y="-211" type="curve" smooth="yes"/>
      <point x="-41" y="-211"/>
      <point x="-94" y="-545"/>
      <point x="150" y="-543" type="curve" smooth="yes"/>
      <point x="385" y="-545"/>
      <point x="367" y="-211"/>
      <point x="537" y="-211" type="curve" smooth="yes"/>
      <point x="662" y="-211"/>
      <point x="709" y="-342"/>
      <point x="725" y="-543" type="curve"/>
      <point x="797" y="-543" type="line"/>
      <point x="780" y="-276"/>
      <point x="713" y="-139"/>
      <point x="532" y="-139" type="curve" smooth="yes"/>
      <point x="303" y="-139"/>
      <point x="305" y="-473"/>
      <point x="150" y="-471" type="curve" smooth="yes"/>
      <point x="-23" y="-473"/>
      <point x="45" y="-139"/>
      <point x="-201" y="-139" type="curve" smooth="yes"/>
      <point x="-446" y="-139"/>
      <point x="-373" y="-473"/>
      <point x="-551" y="-471" type="curve" smooth="yes"/>
      <point x="-707" y="-473"/>
      <point x="-705" y="-139"/>
      <point x="-922" y="-139" type="curve" smooth="yes"/>
      <point x="-1155" y="-139"/>
      <point x="-1186" y="-401"/>
    </contour>
  </outline>
</glyph>
<glyph name="uni1ABC" format="2">
  <unicode hex="1ABC"/>
  <anchor x="78" y="1081" name="_top"/>
  <anchor x="211" y="1710" name="top"/>
  <outline>
    <contour>
      <point x="489" y="1251" type="curve"/>
      <point x="539" y="1251" type="line"/>
      <point x="643" y="1321"/>
      <point x="690" y="1411"/>
      <point x="700" y="1505" type="curve" smooth="yes"/>
      <point x="709" y="1579"/>
      <point x="688" y="1653"/>
      <point x="633" y="1710" type="curve"/>
      <point x="586" y="1710" type="line"/>
      <point x="639" y="1651"/>
      <point x="655" y="1577"/>
      <point x="649" y="1503" type="curve" smooth="yes"/>
      <point x="639" y="1411"/>
      <point x="590" y="1323"/>
    </contour>
    <contour>
      <point x="-307" y="1251" type="curve"/>
      <point x="-260" y="1251" type="line"/>
      <point x="-313" y="1311"/>
      <point x="-330" y="1384"/>
      <point x="-324" y="1458" type="curve" smooth="yes"/>
      <point x="-315" y="1550"/>
      <point x="-260" y="1640"/>
      <point x="-164" y="1710" type="curve"/>
      <point x="-213" y="1710" type="line"/>
      <point x="-315" y="1640"/>
      <point x="-365" y="1552"/>
      <point x="-375" y="1456" type="curve" smooth="yes"/>
      <point x="-385" y="1382"/>
      <point x="-365" y="1309"/>
    </contour>
    <contour>
      <point x="-115" y="1251" type="curve"/>
      <point x="-68" y="1251" type="line"/>
      <point x="-119" y="1311"/>
      <point x="-137" y="1384"/>
      <point x="-131" y="1458" type="curve" smooth="yes"/>
      <point x="-121" y="1550"/>
      <point x="-68" y="1640"/>
      <point x="29" y="1710" type="curve"/>
      <point x="-20" y="1710" type="line"/>
      <point x="-123" y="1640"/>
      <point x="-172" y="1552"/>
      <point x="-180" y="1456" type="curve" smooth="yes"/>
      <point x="-190" y="1382"/>
      <point x="-170" y="1309"/>
    </contour>
    <contour>
      <point x="295" y="1251" type="curve"/>
      <point x="344" y="1251" type="line"/>
      <point x="449" y="1321"/>
      <point x="496" y="1411"/>
      <point x="506" y="1505" type="curve" smooth="yes"/>
      <point x="516" y="1579"/>
      <point x="496" y="1653"/>
      <point x="438" y="1710" type="curve"/>
      <point x="391" y="1710" type="line"/>
      <point x="444" y="1651"/>
      <point x="461" y="1577"/>
      <point x="455" y="1503" type="curve" smooth="yes"/>
      <point x="444" y="1411"/>
      <point x="395" y="1323"/>
    </contour>
  </outline>
</glyph>
<glyph name="uni1C80" format="2">
  <advance width="1069"/>
  <unicode hex="1C80"/>
  <anchor x="420" y="0" name="bottom"/>
  <anchor x="754" y="1575" name="top"/>
  <outline>
    <contour>
      <point x="545" y="-20" type="curve" smooth="yes"/>
      <point x="795" y="-20"/>
      <point x="926" y="129"/>
      <point x="926" y="305" type="curve" smooth="yes"/>
      <point x="926" y="455"/>
      <point x="834" y="578"/>
      <point x="602" y="578" type="curve" smooth="yes"/>
      <point x="449" y="578"/>
      <point x="293" y="520"/>
      <point x="178" y="449" type="curve"/>
      <point x="184" y="399" type="line"/>
      <point x="299" y="473"/>
      <point x="465" y="526"/>
      <point x="586" y="526" type="curve" smooth="yes"/>
      <point x="795" y="526"/>
      <point x="870" y="422"/>
      <point x="870" y="301" type="curve" smooth="yes"/>
      <point x="870" y="137"/>
      <point x="745" y="33"/>
      <point x="549" y="33" type="curve" smooth="yes"/>
      <point x="283" y="33"/>
      <point x="182" y="207"/>
      <point x="182" y="508" type="curve" smooth="yes"/>
      <point x="182" y="831"/>
      <point x="367" y="1522"/>
      <point x="846" y="1522" type="curve" smooth="yes"/>
      <point x="1012" y="1522"/>
      <point x="1077" y="1438"/>
      <point x="1077" y="1343" type="curve" smooth="yes"/>
      <point x="1077" y="1200"/>
      <point x="967" y="1094"/>
      <point x="745" y="1094" type="curve" smooth="yes"/>
      <point x="590" y="1094"/>
      <point x="416" y="1145"/>
      <point x="362" y="1198" type="curve"/>
      <point x="330" y="1151" type="line"/>
      <point x="408" y="1098"/>
      <point x="569" y="1042"/>
      <point x="743" y="1042" type="curve" smooth="yes"/>
      <point x="981" y="1042"/>
      <point x="1135" y="1149"/>
      <point x="1135" y="1350" type="curve" smooth="yes"/>
      <point x="1135" y="1475"/>
      <point x="1038" y="1575"/>
      <point x="858" y="1575" type="curve" smooth="yes"/>
      <point x="330" y="1575"/>
      <point x="127" y="877"/>
      <point x="127" y="494" type="curve" smooth="yes"/>
      <point x="127" y="137"/>
      <point x="272" y="-20"/>
    </contour>
  </outline>
</glyph>
<glyph name="uni1C84" format="2">
  <advance width="791"/>
  <unicode hex="1C84"/>
  <anchor x="281" y="0" name="bottom"/>
  <anchor x="592" y="1462" name="top"/>
  <outline>
    <contour>
      <point x="317" y="0" type="line"/>
      <point x="375" y="0" type="line"/>
      <point x="842" y="1462" type="line"/>
      <point x="231" y="1462" type="line"/>
      <point x="221" y="1411" type="line"/>
      <point x="772" y="1411" type="line"/>
    </contour>
  </outline>
</glyph>
<glyph name="uni1C87" format="2">
  <advance width="1069"/>
  <unicode hex="1C87"/>
  <anchor x="420" y="0" name="bottom"/>
  <anchor x="750" y="1556" name="top"/>
  <outline>
    <contour>
      <point x="154" y="0" type="line"/>
      <point x="582" y="0" type="line" smooth="yes"/>
      <point x="829" y="0"/>
      <point x="952" y="115"/>
      <point x="952" y="319" type="curve" smooth="yes"/>
      <point x="952" y="500"/>
      <point x="848" y="618"/>
      <point x="610" y="618" type="curve" smooth="yes"/>
      <point x="338" y="618" type="line"/>
      <point x="426" y="1030" type="line"/>
      <point x="842" y="1030" type="line"/>
      <point x="852" y="1081" type="line"/>
      <point x="436" y="1081" type="line"/>
      <point x="539" y="1556" type="line"/>
      <point x="485" y="1556" type="line"/>
      <point x="383" y="1081" type="line"/>
      <point x="154" y="1081" type="line"/>
      <point x="143" y="1030" type="line"/>
      <point x="373" y="1030" type="line"/>
    </contour>
    <contour>
      <point x="219" y="51" type="line"/>
      <point x="328" y="567" type="line"/>
      <point x="602" y="567" type="line" smooth="yes"/>
      <point x="803" y="567"/>
      <point x="897" y="477"/>
      <point x="897" y="322" type="curve" smooth="yes"/>
      <point x="897" y="147"/>
      <point x="811" y="51"/>
      <point x="573" y="51" type="curve" smooth="yes"/>
    </contour>
  </outline>
</glyph>
<glyph name="uni1D00" format="2">
  <advance width="838"/>
  <unicode hex="1D00"/>
  <anchor x="305" y="0" name="bottom"/>
  <anchor x="535" y="1081" name="top"/>
  <outline>
    <contour>
      <point x="-92" y="0" type="line"/>
      <point x="-27" y="0" type="line"/>
      <point x="186" y="387" type="line"/>
      <point x="598" y="387" type="line"/>
      <point x="649" y="0" type="line"/>
      <point x="700" y="0" type="line"/>
      <point x="565" y="1090" type="line"/>
      <point x="514" y="1090" type="line"/>
    </contour>
    <contour>
      <point x="215" y="438" type="line"/>
      <point x="449" y="864" type="line" smooth="yes"/>
      <point x="469" y="903"/>
      <point x="496" y="952"/>
      <point x="520" y="1006" type="curve"/>
      <point x="526" y="1006" type="line"/>
      <point x="530" y="952"/>
      <point x="535" y="911"/>
      <point x="539" y="881" type="curve" smooth="yes"/>
      <point x="594" y="438" type="line"/>
    </contour>
  </outline>
</glyph>
<glyph name="uni1D10" format="2">
  <advance width="877"/>
  <unicode hex="1D10"/>
  <anchor x="324" y="0" name="bottom"/>
  <anchor x="553" y="1081" name="top"/>
  <outline>
    <contour>
      <point x="279" y="-6" type="curve" smooth="yes"/>
      <point x="684" y="-6"/>
      <point x="848" y="348"/>
      <point x="848" y="664" type="curve" smooth="yes"/>
      <point x="848" y="942"/>
      <point x="733" y="1098"/>
      <point x="465" y="1098" type="curve" smooth="yes"/>
      <point x="381" y="1098"/>
      <point x="301" y="1083"/>
      <point x="229" y="1055" type="curve"/>
      <point x="231" y="1006" type="line"/>
      <point x="307" y="1032"/>
      <point x="381" y="1047"/>
      <point x="465" y="1047" type="curve" smooth="yes"/>
      <point x="694" y="1047"/>
      <point x="797" y="918"/>
      <point x="797" y="657" type="curve" smooth="yes"/>
      <point x="797" y="379"/>
      <point x="649" y="45"/>
      <point x="283" y="45" type="curve" smooth="yes"/>
      <point x="190" y="45"/>
      <point x="115" y="59"/>
      <point x="51" y="88" type="curve"/>
      <point x="39" y="35" type="line"/>
      <point x="96" y="10"/>
      <point x="180" y="-6"/>
    </contour>
  </outline>
</glyph>
<glyph name="uni1D18" format="2">
  <advance width="834"/>
  <unicode hex="1D18"/>
  <anchor x="303" y="0" name="bottom"/>
  <anchor x="532" y="1081" name="top"/>
  <outline>
    <contour>
      <point x="45" y="0" type="line"/>
      <point x="98" y="0" type="line"/>
      <point x="197" y="451" type="line"/>
      <point x="375" y="451" type="line" smooth="yes"/>
      <point x="670" y="451"/>
      <point x="799" y="592"/>
      <point x="799" y="813" type="curve" smooth="yes"/>
      <point x="799" y="985"/>
      <point x="696" y="1081"/>
      <point x="498" y="1081" type="curve" smooth="yes"/>
      <point x="274" y="1081" type="line"/>
    </contour>
    <contour>
      <point x="205" y="502" type="line"/>
      <point x="317" y="1030" type="line"/>
      <point x="492" y="1030" type="line" smooth="yes"/>
      <point x="662" y="1030"/>
      <point x="743" y="954"/>
      <point x="743" y="809" type="curve" smooth="yes"/>
      <point x="743" y="616"/>
      <point x="637" y="502"/>
      <point x="379" y="502" type="curve" smooth="yes"/>
    </contour>
  </outline>
</glyph>
<glyph name="uni1D23" format="2">
  <advance width="768"/>
  <unicode hex="1D23"/>
  <anchor x="270" y="0" name="bottom"/>
  <anchor x="500" y="1081" name="top"/>
  <outline>
    <contour>
      <point x="242" y="-23" type="curve" smooth="yes"/>
      <point x="543" y="-23"/>
      <point x="629" y="168"/>
      <point x="629" y="326" type="curve" smooth="yes"/>
      <point x="629" y="504"/>
      <point x="498" y="584"/>
      <point x="268" y="586" type="curve"/>
      <point x="739" y="1032" type="line"/>
      <point x="750" y="1081" type="line"/>
      <point x="197" y="1081" type="line"/>
      <point x="186" y="1030" type="line"/>
      <point x="666" y="1030" type="line"/>
      <point x="199" y="586" type="line"/>
      <point x="190" y="535" type="line"/>
      <point x="252" y="535" type="line" smooth="yes"/>
      <point x="469" y="535"/>
      <point x="573" y="475"/>
      <point x="573" y="319" type="curve" smooth="yes"/>
      <point x="573" y="174"/>
      <point x="487" y="29"/>
      <point x="248" y="29" type="curve" smooth="yes"/>
      <point x="113" y="29"/>
      <point x="20" y="63"/>
      <point x="-41" y="100" type="curve"/>
      <point x="-41" y="35" type="line"/>
      <point x="29" y="0"/>
      <point x="113" y="-23"/>
    </contour>
  </outline>
</glyph>
<glyph name="uni1D24" format="2">
  <advance width="973"/>
  <unicode hex="1D24"/>
  <anchor x="418" y="0" name="bottom"/>
  <anchor x="719" y="1556" name="top"/>
  <outline>
    <contour>
      <point x="418" y="-27" type="curve" smooth="yes"/>
      <point x="547" y="-27"/>
      <point x="655" y="6"/>
      <point x="768" y="76" type="curve"/>
      <point x="743" y="121" type="line"/>
      <point x="651" y="59"/>
      <point x="537" y="25"/>
      <point x="426" y="25" type="curve" smooth="yes"/>
      <point x="248" y="25"/>
      <point x="133" y="109"/>
      <point x="133" y="238" type="curve" smooth="yes"/>
      <point x="133" y="432"/>
      <point x="250" y="551"/>
      <point x="584" y="698" type="curve"/>
      <point x="608" y="813" type="line"/>
      <point x="938" y="963"/>
      <point x="1065" y="1100"/>
      <point x="1065" y="1305" type="curve" smooth="yes"/>
      <point x="1065" y="1462"/>
      <point x="930" y="1567"/>
      <point x="725" y="1567" type="curve" smooth="yes"/>
      <point x="596" y="1567"/>
      <point x="487" y="1534"/>
      <point x="375" y="1464" type="curve"/>
      <point x="399" y="1419" type="line"/>
      <point x="492" y="1481"/>
      <point x="606" y="1516"/>
      <point x="717" y="1516" type="curve" smooth="yes"/>
      <point x="895" y="1516"/>
      <point x="1010" y="1432"/>
      <point x="1010" y="1303" type="curve" smooth="yes"/>
      <point x="1010" y="1108"/>
      <point x="893" y="989"/>
      <point x="559" y="842" type="curve"/>
      <point x="535" y="727" type="line"/>
      <point x="205" y="578"/>
      <point x="78" y="440"/>
      <point x="78" y="236" type="curve" smooth="yes"/>
      <point x="78" y="78"/>
      <point x="213" y="-27"/>
    </contour>
  </outline>
</glyph>
<glyph name="uni1D28" format="2">
  <advance width="893"/>
  <unicode hex="1D28"/>
  <outline>
    <contour>
      <point x="23" y="0" type="line"/>
      <point x="76" y="0" type="line"/>
      <point x="295" y="1030" type="line"/>
      <point x="934" y="1030" type="line"/>
      <point x="715" y="0" type="line"/>
      <point x="768" y="0" type="line"/>
      <point x="997" y="1081" type="line"/>
      <point x="252" y="1081" type="line"/>
    </contour>
  </outline>
</glyph>
<glyph name="uni1D2A" format="2">
  <advance width="1022"/>
  <unicode hex="1D2A"/>
  <outline>
    <contour>
      <point x="373" y="0" type="line"/>
      <point x="426" y="0" type="line"/>
      <point x="500" y="352" type="line"/>
      <point x="813" y="358"/>
      <point x="918" y="446"/>
      <point x="981" y="731" type="curve" smooth="yes"/>
      <point x="1059" y="1085" type="line"/>
      <point x="1006" y="1085" type="line"/>
      <point x="928" y="731" type="line" smooth="yes"/>
      <point x="868" y="459"/>
      <point x="762" y="408"/>
      <point x="510" y="403" type="curve"/>
      <point x="653" y="1085" type="line"/>
      <point x="600" y="1085" type="line"/>
      <point x="457" y="403" type="line"/>
      <point x="264" y="410"/>
      <point x="172" y="479"/>
      <point x="172" y="621" type="curve" smooth="yes"/>
      <point x="172" y="664"/>
      <point x="176" y="707"/>
      <point x="188" y="764" type="curve" smooth="yes"/>
      <point x="256" y="1085" type="line"/>
      <point x="203" y="1085" type="line"/>
      <point x="135" y="764" type="line" smooth="yes"/>
      <point x="123" y="709"/>
      <point x="119" y="664"/>
      <point x="119" y="614" type="curve" smooth="yes"/>
      <point x="119" y="453"/>
      <point x="227" y="360"/>
      <point x="446" y="352" type="curve"/>
    </contour>
  </outline>
</glyph>
<glyph name="uni1D2B" format="2">
  <advance width="864"/>
  <unicode hex="1D2B"/>
  <outline>
    <contour>
      <point x="-18" y="-12" type="curve" smooth="yes"/>
      <point x="111" y="-12"/>
      <point x="184" y="57"/>
      <point x="260" y="274" type="curve" smooth="yes"/>
      <point x="334" y="481"/>
      <point x="430" y="844"/>
      <point x="479" y="1020" type="curve"/>
      <point x="813" y="1020" type="line"/>
      <point x="604" y="4" type="line"/>
      <point x="657" y="4" type="line"/>
      <point x="877" y="1071" type="line"/>
      <point x="436" y="1071" type="line"/>
      <point x="387" y="889"/>
      <point x="281" y="500"/>
      <point x="205" y="285" type="curve" smooth="yes"/>
      <point x="141" y="104"/>
      <point x="82" y="39"/>
      <point x="-18" y="39" type="curve" smooth="yes"/>
      <point x="-41" y="39"/>
      <point x="-66" y="43"/>
      <point x="-82" y="47" type="curve"/>
      <point x="-82" y="-2" type="line"/>
      <point x="-66" y="-8"/>
      <point x="-41" y="-12"/>
    </contour>
  </outline>
</glyph>
<glyph name="uni1D73" format="2">
  <advance width="582"/>
  <unicode hex="1D73"/>
  <outline>
    <contour>
      <point x="88" y="0" type="line"/>
      <point x="141" y="0" type="line"/>
      <point x="242" y="473" type="line"/>
      <point x="274" y="449"/>
      <point x="309" y="428"/>
      <point x="352" y="428" type="curve" smooth="yes"/>
      <point x="465" y="428"/>
      <point x="522" y="502"/>
      <point x="559" y="631" type="curve"/>
      <point x="504" y="631" type="line"/>
      <point x="465" y="506"/>
      <point x="414" y="479"/>
      <point x="354" y="479" type="curve" smooth="yes"/>
      <point x="317" y="479"/>
      <point x="287" y="504"/>
      <point x="254" y="532" type="curve"/>
      <point x="307" y="788" type="line" smooth="yes"/>
      <point x="348" y="987"/>
      <point x="422" y="1051"/>
      <point x="557" y="1051" type="curve" smooth="yes"/>
      <point x="596" y="1051"/>
      <point x="637" y="1042"/>
      <point x="666" y="1030" type="curve"/>
      <point x="678" y="1081" type="line"/>
      <point x="649" y="1094"/>
      <point x="608" y="1102"/>
      <point x="561" y="1102" type="curve" smooth="yes"/>
      <point x="387" y="1102"/>
      <point x="295" y="999"/>
      <point x="252" y="788" type="curve" smooth="yes"/>
      <point x="207" y="573" type="line"/>
      <point x="170" y="604"/>
      <point x="127" y="631"/>
      <point x="72" y="631" type="curve" smooth="yes"/>
      <point x="-35" y="631"/>
      <point x="-92" y="563"/>
      <point x="-127" y="430" type="curve"/>
      <point x="-74" y="430" type="line"/>
      <point x="-37" y="553"/>
      <point x="14" y="580"/>
      <point x="70" y="580" type="curve" smooth="yes"/>
      <point x="117" y="580"/>
      <point x="156" y="547"/>
      <point x="195" y="512" type="curve"/>
    </contour>
  </outline>
</glyph>
<glyph name="uni1D7A" format="2">
  <advance width="1749"/>
  <unicode hex="1D7A"/>
  <outline>
    <contour>
      <point x="14" y="-154" type="line"/>
      <point x="82" y="-154" type="line"/>
      <point x="1677" y="1556" type="line"/>
      <point x="1610" y="1556" type="line"/>
    </contour>
    <component base="t" xOffset="4"/>
    <component base="h" xOffset="616"/>
  </outline>
</glyph>
<glyph name="uni1D7E" format="2">
  <advance width="1092"/>
  <unicode hex="1D7E"/>
  <outline>
    <contour>
      <point x="467" y="-14" type="curve" smooth="yes"/>
      <point x="717" y="-14"/>
      <point x="836" y="121"/>
      <point x="881" y="336" type="curve" smooth="yes"/>
      <point x="920" y="522" type="line"/>
      <point x="1061" y="522" type="line"/>
      <point x="1073" y="565" type="line"/>
      <point x="928" y="565" type="line"/>
      <point x="1038" y="1081" type="line"/>
      <point x="985" y="1081" type="line"/>
      <point x="874" y="565" type="line"/>
      <point x="223" y="565" type="line"/>
      <point x="332" y="1081" type="line"/>
      <point x="279" y="1081" type="line"/>
      <point x="170" y="565" type="line"/>
      <point x="29" y="565" type="line"/>
      <point x="16" y="522" type="line"/>
      <point x="160" y="522" type="line"/>
      <point x="137" y="416"/>
      <point x="127" y="348"/>
      <point x="127" y="287" type="curve" smooth="yes"/>
      <point x="127" y="113"/>
      <point x="225" y="-14"/>
    </contour>
    <contour>
      <point x="465" y="37" type="curve" smooth="yes"/>
      <point x="268" y="37"/>
      <point x="180" y="137"/>
      <point x="180" y="287" type="curve" smooth="yes"/>
      <point x="180" y="340"/>
      <point x="190" y="422"/>
      <point x="213" y="522" type="curve"/>
      <point x="866" y="522" type="line"/>
      <point x="831" y="354" type="line" smooth="yes"/>
      <point x="791" y="154"/>
      <point x="700" y="37"/>
    </contour>
  </outline>
</glyph>
<glyph name="uni1D85" format="2">
  <advance width="424"/>
  <unicode hex="1D85"/>
  <anchor x="-6" y="-385" name="bottom"/>
  <anchor x="424" y="1552" name="top"/>
  <outline>
    <contour>
      <point x="-20" y="-381" type="curve" smooth="yes"/>
      <point x="94" y="-381"/>
      <point x="150" y="-317"/>
      <point x="174" y="-207" type="curve" smooth="yes"/>
      <point x="229" y="51" type="line"/>
      <point x="129" y="51" type="line"/>
      <point x="449" y="1556" type="line"/>
      <point x="395" y="1556" type="line"/>
      <point x="66" y="0" type="line"/>
      <point x="166" y="0" type="line"/>
      <point x="121" y="-207" type="line" smooth="yes"/>
      <point x="102" y="-289"/>
      <point x="63" y="-332"/>
      <point x="-14" y="-332" type="curve" smooth="yes"/>
      <point x="-49" y="-332"/>
      <point x="-82" y="-324"/>
      <point x="-102" y="-313" type="curve"/>
      <point x="-113" y="-362" type="line"/>
      <point x="-96" y="-371"/>
      <point x="-61" y="-381"/>
    </contour>
  </outline>
</glyph>
<glyph name="uni1D97" format="2">
  <advance width="926"/>
  <unicode hex="1D97"/>
  <outline>
    <contour>
      <point x="59" y="-381" type="curve" smooth="yes"/>
      <point x="96" y="-381"/>
      <point x="129" y="-371"/>
      <point x="150" y="-362" type="curve"/>
      <point x="150" y="-311" type="line"/>
      <point x="129" y="-319"/>
      <point x="98" y="-330"/>
      <point x="63" y="-330" type="curve" smooth="yes"/>
      <point x="12" y="-330"/>
      <point x="-14" y="-305"/>
      <point x="-14" y="-260" type="curve" smooth="yes"/>
      <point x="-14" y="-231"/>
      <point x="-8" y="-205"/>
      <point x="-2" y="-176" type="curve" smooth="yes"/>
      <point x="39" y="6" type="line"/>
      <point x="98" y="-12"/>
      <point x="168" y="-20"/>
      <point x="240" y="-20" type="curve" smooth="yes"/>
      <point x="606" y="-20"/>
      <point x="813" y="309"/>
      <point x="813" y="684" type="curve" smooth="yes"/>
      <point x="813" y="922"/>
      <point x="674" y="1102"/>
      <point x="420" y="1102" type="curve" smooth="yes"/>
      <point x="307" y="1102"/>
      <point x="223" y="1075"/>
      <point x="158" y="1042" type="curve"/>
      <point x="158" y="989" type="line"/>
      <point x="242" y="1028"/>
      <point x="319" y="1051"/>
      <point x="418" y="1051" type="curve" smooth="yes"/>
      <point x="643" y="1051"/>
      <point x="758" y="885"/>
      <point x="758" y="680" type="curve" smooth="yes"/>
      <point x="758" y="322"/>
      <point x="559" y="31"/>
      <point x="240" y="31" type="curve" smooth="yes"/>
      <point x="166" y="31"/>
      <point x="68" y="47"/>
      <point x="0" y="82" type="curve"/>
      <point x="-55" y="-174" type="line" smooth="yes"/>
      <point x="-61" y="-203"/>
      <point x="-68" y="-233"/>
      <point x="-68" y="-262" type="curve" smooth="yes"/>
      <point x="-68" y="-334"/>
      <point x="-23" y="-381"/>
    </contour>
  </outline>
</glyph>
<glyph name="uni1D99" format="2">
  <advance width="1133"/>
  <unicode hex="1D99"/>
  <outline>
    <contour>
      <point x="952" y="-381" type="curve" smooth="yes"/>
      <point x="989" y="-381"/>
      <point x="1022" y="-371"/>
      <point x="1042" y="-362" type="curve"/>
      <point x="1042" y="-311" type="line"/>
      <point x="1022" y="-319"/>
      <point x="991" y="-330"/>
      <point x="956" y="-330" type="curve" smooth="yes"/>
      <point x="905" y="-330"/>
      <point x="879" y="-305"/>
      <point x="879" y="-260" type="curve" smooth="yes"/>
      <point x="879" y="-231"/>
      <point x="885" y="-205"/>
      <point x="891" y="-176" type="curve" smooth="yes"/>
      <point x="940" y="51" type="line"/>
      <point x="838" y="51" type="line"/>
      <point x="1057" y="1081" type="line"/>
      <point x="1004" y="1081" type="line"/>
      <point x="885" y="520" type="line" smooth="yes"/>
      <point x="831" y="266"/>
      <point x="625" y="31"/>
      <point x="397" y="31" type="curve" smooth="yes"/>
      <point x="252" y="31"/>
      <point x="166" y="100"/>
      <point x="166" y="254" type="curve" smooth="yes"/>
      <point x="166" y="289"/>
      <point x="170" y="330"/>
      <point x="180" y="375" type="curve" smooth="yes"/>
      <point x="330" y="1081" type="line"/>
      <point x="276" y="1081" type="line"/>
      <point x="129" y="381" type="line" smooth="yes"/>
      <point x="119" y="334"/>
      <point x="113" y="285"/>
      <point x="113" y="246" type="curve" smooth="yes"/>
      <point x="113" y="72"/>
      <point x="211" y="-20"/>
      <point x="389" y="-20" type="curve" smooth="yes"/>
      <point x="608" y="-20"/>
      <point x="768" y="156"/>
      <point x="836" y="285" type="curve"/>
      <point x="840" y="285" type="line"/>
      <point x="782" y="0" type="line"/>
      <point x="877" y="0" type="line"/>
      <point x="838" y="-174" type="line" smooth="yes"/>
      <point x="831" y="-203"/>
      <point x="825" y="-233"/>
      <point x="825" y="-262" type="curve" smooth="yes"/>
      <point x="825" y="-334"/>
      <point x="870" y="-381"/>
    </contour>
  </outline>
</glyph>
<glyph name="uni1D9A" format="2">
  <advance width="924"/>
  <unicode hex="1D9A"/>
  <outline>
    <contour>
      <point x="80" y="-381" type="curve" smooth="yes"/>
      <point x="117" y="-381"/>
      <point x="150" y="-371"/>
      <point x="170" y="-362" type="curve"/>
      <point x="170" y="-311" type="line"/>
      <point x="150" y="-319"/>
      <point x="119" y="-330"/>
      <point x="84" y="-330" type="curve" smooth="yes"/>
      <point x="33" y="-330"/>
      <point x="6" y="-305"/>
      <point x="6" y="-260" type="curve" smooth="yes"/>
      <point x="6" y="-231"/>
      <point x="12" y="-205"/>
      <point x="18" y="-176" type="curve" smooth="yes"/>
      <point x="63" y="18" type="line"/>
      <point x="109" y="0"/>
      <point x="197" y="-20"/>
      <point x="311" y="-20" type="curve" smooth="yes"/>
      <point x="580" y="-20"/>
      <point x="756" y="106"/>
      <point x="756" y="338" type="curve" smooth="yes"/>
      <point x="756" y="514"/>
      <point x="641" y="618"/>
      <point x="365" y="616" type="curve"/>
      <point x="881" y="1030" type="line"/>
      <point x="891" y="1081" type="line"/>
      <point x="223" y="1081" type="line"/>
      <point x="213" y="1030" type="line"/>
      <point x="797" y="1030" type="line"/>
      <point x="283" y="614" type="line"/>
      <point x="268" y="565" type="line"/>
      <point x="362" y="565" type="line" smooth="yes"/>
      <point x="602" y="565"/>
      <point x="700" y="481"/>
      <point x="700" y="330" type="curve" smooth="yes"/>
      <point x="700" y="145"/>
      <point x="561" y="31"/>
      <point x="311" y="31" type="curve" smooth="yes"/>
      <point x="203" y="31"/>
      <point x="92" y="55"/>
      <point x="25" y="94" type="curve"/>
      <point x="-35" y="-174" type="line" smooth="yes"/>
      <point x="-41" y="-203"/>
      <point x="-47" y="-233"/>
      <point x="-47" y="-262" type="curve" smooth="yes"/>
      <point x="-47" y="-334"/>
      <point x="-2" y="-381"/>
    </contour>
  </outline>
</glyph>
<glyph name="dottedgrave" format="2">
  <unicode hex="1DC0"/>
  <anchor x="92" y="1081" name="_top"/>
  <anchor x="211" y="1640" name="top"/>
  <outline>
    <contour>
      <point x="195" y="1323" type="curve"/>
      <point x="217" y="1323" type="line"/>
      <point x="217" y="1335" type="line"/>
      <point x="197" y="1440"/>
      <point x="190" y="1520"/>
      <point x="186" y="1620" type="curve"/>
      <point x="125" y="1620" type="line"/>
      <point x="125" y="1602" type="line"/>
      <point x="131" y="1532"/>
      <point x="154" y="1395"/>
    </contour>
    <contour>
      <point x="-53" y="1307" type="curve" smooth="yes"/>
      <point x="-14" y="1307"/>
      <point x="6" y="1352"/>
      <point x="6" y="1389" type="curve" smooth="yes"/>
      <point x="6" y="1411"/>
      <point x="-6" y="1434"/>
      <point x="-39" y="1434" type="curve" smooth="yes"/>
      <point x="-80" y="1434"/>
      <point x="-100" y="1389"/>
      <point x="-100" y="1352" type="curve" smooth="yes"/>
      <point x="-100" y="1323"/>
      <point x="-82" y="1307"/>
    </contour>
    <contour>
      <point x="391" y="1513" type="curve" smooth="yes"/>
      <point x="430" y="1513"/>
      <point x="451" y="1559"/>
      <point x="451" y="1595" type="curve" smooth="yes"/>
      <point x="451" y="1618"/>
      <point x="438" y="1640"/>
      <point x="406" y="1640" type="curve" smooth="yes"/>
      <point x="365" y="1640"/>
      <point x="344" y="1595"/>
      <point x="344" y="1559" type="curve" smooth="yes"/>
      <point x="344" y="1530"/>
      <point x="362" y="1513"/>
    </contour>
  </outline>
</glyph>
<glyph name="acutemacron" format="2">
  <unicode hex="1DC7"/>
  <anchor x="123" y="1081" name="_top"/>
  <anchor x="195" y="1419" name="top"/>
  <outline>
    <contour>
      <point x="-33" y="1268" type="line"/>
      <point x="213" y="1370" type="line"/>
      <point x="406" y="1370" type="line"/>
      <point x="406" y="1419" type="line"/>
      <point x="213" y="1419" type="line"/>
      <point x="-49" y="1307" type="line"/>
    </contour>
  </outline>
</glyph>
<glyph name="acutegraveacute" format="2">
  <unicode hex="1DC9"/>
  <anchor x="109" y="1081" name="_top"/>
  <anchor x="195" y="1487" name="top"/>
  <outline>
    <contour>
      <point x="223" y="1266" type="line"/>
      <point x="512" y="1440" type="line"/>
      <point x="489" y="1473" type="line"/>
      <point x="244" y="1325" type="line"/>
      <point x="115" y="1487" type="line"/>
      <point x="-168" y="1313" type="line"/>
      <point x="-152" y="1276" type="line"/>
      <point x="96" y="1427" type="line"/>
    </contour>
  </outline>
</glyph>
<glyph name="quoteright" format="2">
  <advance width="248"/>
  <unicode hex="2019"/>
  <outline>
    <contour>
      <point x="123" y="961" type="curve"/>
      <point x="164" y="961" type="line"/>
      <point x="258" y="1102"/>
      <point x="344" y="1276"/>
      <point x="403" y="1444" type="curve"/>
      <point x="393" y="1462" type="line"/>
      <point x="352" y="1462" type="line"/>
      <point x="307" y="1315"/>
      <point x="215" y="1104"/>
    </contour>
  </outline>
</glyph>
<glyph name="quotesinglbase" format="2">
  <advance width="393"/>
  <unicode hex="201A"/>
  <outline>
    <contour>
      <point x="-84" y="-264" type="curve"/>
      <point x="-43" y="-264" type="line"/>
      <point x="51" y="-123"/>
      <point x="137" y="51"/>
      <point x="197" y="219" type="curve"/>
      <point x="186" y="238" type="line"/>
      <point x="145" y="238" type="line"/>
      <point x="100" y="90"/>
      <point x="8" y="-121"/>
    </contour>
  </outline>
</glyph>
<glyph name="uni201F" format="2">
  <advance width="526"/>
  <unicode hex="201F"/>
  <outline>
    <contour>
      <point x="621" y="961" type="curve"/>
      <point x="666" y="961" type="line"/>
      <point x="598" y="1122"/>
      <point x="551" y="1311"/>
      <point x="535" y="1462" type="curve"/>
      <point x="489" y="1462" type="line"/>
      <point x="467" y="1440" type="line"/>
      <point x="487" y="1311"/>
      <point x="547" y="1126"/>
    </contour>
    <contour>
      <point x="350" y="961" type="curve"/>
      <point x="395" y="961" type="line"/>
      <point x="328" y="1122"/>
      <point x="281" y="1311"/>
      <point x="264" y="1462" type="curve"/>
      <point x="219" y="1462" type="line"/>
      <point x="197" y="1440" type="line"/>
      <point x="217" y="1311"/>
      <point x="276" y="1126"/>
    </contour>
  </outline>
</glyph>
<glyph name="primeReversed" format="2">
  <advance width="326"/>
  <unicode hex="2035"/>
  <outline>
    <contour>
      <point x="307" y="934" type="line"/>
      <point x="342" y="934" type="line"/>
      <point x="274" y="1462" type="line"/>
      <point x="221" y="1462" type="line"/>
    </contour>
  </outline>
</glyph>
<glyph name="bracketrightwithquill" format="2">
  <advance width="623"/>
  <unicode hex="2046"/>
  <outline>
    <contour>
      <point x="59" y="545" type="line"/>
      <point x="420" y="545" type="line"/>
      <point x="428" y="600" type="line"/>
      <point x="72" y="600" type="line"/>
    </contour>
    <component base="bracketright" xOffset="2"/>
  </outline>
</glyph>
<glyph name="sixsuperior" format="2">
  <advance width="639"/>
  <unicode hex="2076"/>
  <outline>
    <contour>
      <point x="414" y="825" type="curve" smooth="yes"/>
      <point x="612" y="825"/>
      <point x="709" y="985"/>
      <point x="709" y="1157" type="curve" smooth="yes"/>
      <point x="709" y="1303"/>
      <point x="633" y="1393"/>
      <point x="496" y="1393" type="curve" smooth="yes"/>
      <point x="369" y="1393"/>
      <point x="301" y="1327"/>
      <point x="268" y="1274" type="curve"/>
      <point x="264" y="1274" type="line"/>
      <point x="315" y="1501"/>
      <point x="424" y="1690"/>
      <point x="651" y="1690" type="curve" smooth="yes"/>
      <point x="696" y="1690"/>
      <point x="741" y="1681"/>
      <point x="772" y="1671" type="curve"/>
      <point x="782" y="1722" type="line"/>
      <point x="754" y="1733"/>
      <point x="711" y="1741"/>
      <point x="655" y="1741" type="curve" smooth="yes"/>
      <point x="350" y="1741"/>
      <point x="197" y="1421"/>
      <point x="197" y="1098" type="curve" smooth="yes"/>
      <point x="197" y="905"/>
      <point x="299" y="825"/>
    </contour>
    <contour>
      <point x="420" y="877" type="curve" smooth="yes"/>
      <point x="317" y="877"/>
      <point x="252" y="948"/>
      <point x="252" y="1090" type="curve" smooth="yes"/>
      <point x="252" y="1233"/>
      <point x="332" y="1341"/>
      <point x="487" y="1341" type="curve" smooth="yes"/>
      <point x="596" y="1341"/>
      <point x="653" y="1274"/>
      <point x="653" y="1153" type="curve" smooth="yes"/>
      <point x="653" y="1008"/>
      <point x="582" y="877"/>
    </contour>
  </outline>
</glyph>
<glyph name="minussuperior" format="2">
  <advance width="633"/>
  <unicode hex="207B"/>
  <outline>
    <contour>
      <point x="156" y="907" type="line"/>
      <point x="645" y="907" type="line"/>
      <point x="645" y="973" type="line"/>
      <point x="156" y="973" type="line"/>
    </contour>
  </outline>
</glyph>
<glyph name="uni20A1" format="2">
  <advance width="1128"/>
  <unicode hex="20A1"/>
  <outline>
    <contour>
      <point x="309" y="-119" type="line"/>
      <point x="358" y="-119" type="line"/>
      <point x="420" y="106" type="line"/>
      <point x="475" y="80"/>
      <point x="541" y="66"/>
      <point x="614" y="66" type="curve"/>
      <point x="563" y="-119" type="line"/>
      <point x="612" y="-119" type="line"/>
      <point x="664" y="68" type="line"/>
      <point x="756" y="72"/>
      <point x="844" y="90"/>
      <point x="922" y="123" type="curve"/>
      <point x="922" y="172" type="line"/>
      <point x="852" y="147"/>
      <point x="770" y="125"/>
      <point x="678" y="119" type="curve"/>
      <point x="1004" y="1317" type="line"/>
      <point x="1051" y="1305"/>
      <point x="1094" y="1286"/>
      <point x="1133" y="1262" type="curve"/>
      <point x="1159" y="1315" type="line"/>
      <point x="1114" y="1339"/>
      <point x="1067" y="1356"/>
      <point x="1018" y="1366" type="curve"/>
      <point x="1069" y="1554" type="line"/>
      <point x="1020" y="1554" type="line"/>
      <point x="971" y="1376" type="line"/>
      <point x="938" y="1380"/>
      <point x="903" y="1382"/>
      <point x="866" y="1382" type="curve" smooth="yes"/>
      <point x="831" y="1382"/>
      <point x="799" y="1380"/>
      <point x="766" y="1374" type="curve"/>
      <point x="815" y="1554" type="line"/>
      <point x="766" y="1554" type="line"/>
      <point x="715" y="1364" type="line"/>
      <point x="406" y="1290"/>
      <point x="180" y="987"/>
      <point x="180" y="565" type="curve" smooth="yes"/>
      <point x="180" y="362"/>
      <point x="252" y="211"/>
      <point x="377" y="129" type="curve"/>
    </contour>
    <contour>
      <point x="393" y="186" type="line"/>
      <point x="293" y="260"/>
      <point x="236" y="395"/>
      <point x="236" y="569" type="curve" smooth="yes"/>
      <point x="236" y="940"/>
      <point x="422" y="1225"/>
      <point x="698" y="1307" type="curve"/>
    </contour>
    <contour>
      <point x="627" y="117" type="line"/>
      <point x="553" y="117"/>
      <point x="492" y="127"/>
      <point x="434" y="160" type="curve"/>
      <point x="752" y="1321" type="line"/>
      <point x="788" y="1327"/>
      <point x="827" y="1331"/>
      <point x="866" y="1331" type="curve" smooth="yes"/>
      <point x="899" y="1331"/>
      <point x="928" y="1329"/>
      <point x="956" y="1325" type="curve"/>
    </contour>
  </outline>
</glyph>
<glyph name="uni20A6" format="2">
  <advance width="1128"/>
  <unicode hex="20A6"/>
  <outline>
    <contour>
      <point x="84" y="0" type="line"/>
      <point x="145" y="0" type="line"/>
      <point x="260" y="549" type="line"/>
      <point x="614" y="549" type="line"/>
      <point x="743" y="0" type="line"/>
      <point x="791" y="0" type="line"/>
      <point x="907" y="549" type="line"/>
      <point x="1073" y="549" type="line"/>
      <point x="1085" y="604" type="line"/>
      <point x="918" y="604" type="line"/>
      <point x="969" y="848" type="line"/>
      <point x="1118" y="848" type="line"/>
      <point x="1130" y="903" type="line"/>
      <point x="981" y="903" type="line"/>
      <point x="1100" y="1462" type="line"/>
      <point x="1042" y="1462" type="line"/>
      <point x="924" y="903" type="line"/>
      <point x="598" y="903" type="line"/>
      <point x="469" y="1462" type="line"/>
      <point x="393" y="1462" type="line"/>
      <point x="272" y="903" type="line"/>
      <point x="135" y="903" type="line"/>
      <point x="121" y="848" type="line"/>
      <point x="262" y="848" type="line"/>
      <point x="211" y="604" type="line"/>
      <point x="84" y="604" type="line"/>
      <point x="74" y="549" type="line"/>
      <point x="199" y="549" type="line"/>
    </contour>
    <contour>
      <point x="766" y="135" type="line"/>
      <point x="674" y="549" type="line"/>
      <point x="850" y="549" type="line"/>
      <point x="768" y="135" type="line"/>
    </contour>
    <contour>
      <point x="272" y="604" type="line"/>
      <point x="324" y="848" type="line"/>
      <point x="549" y="848" type="line"/>
      <point x="602" y="604" type="line"/>
    </contour>
    <contour>
      <point x="662" y="604" type="line"/>
      <point x="608" y="848" type="line"/>
      <point x="913" y="848" type="line"/>
      <point x="864" y="604" type="line"/>
    </contour>
    <contour>
      <point x="336" y="903" type="line"/>
      <point x="430" y="1378" type="line"/>
      <point x="432" y="1378" type="line"/>
      <point x="537" y="903" type="line"/>
    </contour>
  </outline>
</glyph>
<glyph name="uni20A8" format="2">
  <advance width="1260"/>
  <unicode hex="20A8"/>
  <outline>
    <contour>
      <point x="14" y="0" type="line"/>
      <point x="68" y="0" type="line"/>
      <point x="207" y="657" type="line"/>
      <point x="381" y="657" type="line"/>
      <point x="496" y="0" type="line"/>
      <point x="551" y="0" type="line"/>
      <point x="434" y="666" type="line"/>
      <point x="647" y="707"/>
      <point x="754" y="928"/>
      <point x="754" y="1165" type="curve" smooth="yes"/>
      <point x="754" y="1364"/>
      <point x="641" y="1462"/>
      <point x="477" y="1462" type="curve" smooth="yes"/>
      <point x="324" y="1462" type="line"/>
    </contour>
    <contour>
      <point x="219" y="709" type="line"/>
      <point x="369" y="1411" type="line"/>
      <point x="459" y="1411" type="line" smooth="yes"/>
      <point x="616" y="1411"/>
      <point x="698" y="1335"/>
      <point x="698" y="1159" type="curve" smooth="yes"/>
      <point x="698" y="961"/>
      <point x="608" y="709"/>
      <point x="365" y="709" type="curve" smooth="yes"/>
    </contour>
    <contour>
      <point x="852" y="-20" type="curve" smooth="yes"/>
      <point x="1022" y="-20"/>
      <point x="1124" y="82"/>
      <point x="1124" y="276" type="curve" smooth="yes"/>
      <point x="1124" y="403"/>
      <point x="1069" y="467"/>
      <point x="977" y="582" type="curve" smooth="yes"/>
      <point x="905" y="670"/>
      <point x="868" y="739"/>
      <point x="868" y="836" type="curve" smooth="yes"/>
      <point x="868" y="963"/>
      <point x="946" y="1047"/>
      <point x="1073" y="1047" type="curve" smooth="yes"/>
      <point x="1157" y="1047"/>
      <point x="1208" y="1018"/>
      <point x="1243" y="993" type="curve"/>
      <point x="1276" y="1040" type="line"/>
      <point x="1233" y="1067"/>
      <point x="1174" y="1098"/>
      <point x="1077" y="1098" type="curve" smooth="yes"/>
      <point x="911" y="1098"/>
      <point x="813" y="981"/>
      <point x="813" y="831" type="curve" smooth="yes"/>
      <point x="813" y="705"/>
      <point x="872" y="625"/>
      <point x="940" y="541" type="curve" smooth="yes"/>
      <point x="1026" y="434"/>
      <point x="1069" y="377"/>
      <point x="1069" y="274" type="curve" smooth="yes"/>
      <point x="1069" y="119"/>
      <point x="1001" y="31"/>
      <point x="852" y="31" type="curve" smooth="yes"/>
      <point x="770" y="31"/>
      <point x="702" y="59"/>
      <point x="664" y="88" type="curve"/>
      <point x="664" y="25" type="line"/>
      <point x="696" y="4"/>
      <point x="764" y="-20"/>
    </contour>
  </outline>
</glyph>
<glyph name="uni20AE" format="2">
  <advance width="993"/>
  <unicode hex="20AE"/>
  <outline>
    <contour>
      <point x="352" y="0" type="line"/>
      <point x="408" y="0" type="line"/>
      <point x="504" y="453" type="line"/>
      <point x="856" y="705" type="line"/>
      <point x="823" y="750" type="line"/>
      <point x="520" y="535" type="line"/>
      <point x="590" y="856" type="line"/>
      <point x="934" y="1102" type="line"/>
      <point x="901" y="1147" type="line"/>
      <point x="606" y="938" type="line"/>
      <point x="707" y="1411" type="line"/>
      <point x="1169" y="1411" type="line"/>
      <point x="1180" y="1462" type="line"/>
      <point x="201" y="1462" type="line"/>
      <point x="190" y="1411" type="line"/>
      <point x="651" y="1411" type="line"/>
      <point x="541" y="891" type="line"/>
      <point x="170" y="627" type="line"/>
      <point x="205" y="582" type="line"/>
      <point x="524" y="809" type="line"/>
      <point x="455" y="487" type="line"/>
      <point x="92" y="229" type="line"/>
      <point x="127" y="184" type="line"/>
      <point x="438" y="406" type="line"/>
    </contour>
  </outline>
</glyph>
<glyph name="uni20B0" format="2">
  <advance width="1128"/>
  <unicode hex="20B0"/>
  <outline>
    <contour>
      <point x="520" y="-492" type="curve" smooth="yes"/>
      <point x="692" y="-492"/>
      <point x="846" y="-365"/>
      <point x="846" y="-35" type="curve" smooth="yes"/>
      <point x="846" y="121"/>
      <point x="829" y="289"/>
      <point x="780" y="573" type="curve"/>
      <point x="1008" y="899"/>
      <point x="1106" y="1087"/>
      <point x="1106" y="1262" type="curve" smooth="yes"/>
      <point x="1106" y="1405"/>
      <point x="1040" y="1485"/>
      <point x="924" y="1485" type="curve" smooth="yes"/>
      <point x="774" y="1485"/>
      <point x="662" y="1358"/>
      <point x="662" y="1081" type="curve" smooth="yes"/>
      <point x="662" y="928"/>
      <point x="684" y="764"/>
      <point x="715" y="582" type="curve"/>
      <point x="418" y="133" type="line"/>
      <point x="301" y="522" type="line"/>
      <point x="-55" y="0" type="line"/>
      <point x="8" y="0" type="line"/>
      <point x="279" y="399" type="line"/>
      <point x="399" y="6" type="line"/>
      <point x="731" y="510" type="line"/>
      <point x="774" y="274"/>
      <point x="791" y="109"/>
      <point x="791" y="-39" type="curve" smooth="yes"/>
      <point x="791" y="-346"/>
      <point x="651" y="-440"/>
      <point x="520" y="-440" type="curve" smooth="yes"/>
      <point x="449" y="-440"/>
      <point x="391" y="-420"/>
      <point x="352" y="-393" type="curve"/>
      <point x="352" y="-453" type="line"/>
      <point x="385" y="-473"/>
      <point x="436" y="-492"/>
    </contour>
    <contour>
      <point x="762" y="645" type="curve"/>
      <point x="733" y="807"/>
      <point x="717" y="956"/>
      <point x="717" y="1085" type="curve" smooth="yes"/>
      <point x="717" y="1341"/>
      <point x="819" y="1434"/>
      <point x="920" y="1434" type="curve" smooth="yes"/>
      <point x="1001" y="1434"/>
      <point x="1051" y="1374"/>
      <point x="1051" y="1262" type="curve" smooth="yes"/>
      <point x="1051" y="1110"/>
      <point x="963" y="932"/>
    </contour>
  </outline>
</glyph>
<glyph name="livreTournois" format="2">
  <advance width="981"/>
  <unicode hex="20B6"/>
  <outline>
    <contour>
      <point x="668" y="-20" type="curve" smooth="yes"/>
      <point x="737" y="-20"/>
      <point x="764" y="-8"/>
      <point x="807" y="6" type="curve"/>
      <point x="807" y="57" type="line"/>
      <point x="764" y="41"/>
      <point x="735" y="31"/>
      <point x="670" y="31" type="curve" smooth="yes"/>
      <point x="569" y="31"/>
      <point x="549" y="82"/>
      <point x="549" y="172" type="curve" smooth="yes"/>
      <point x="549" y="207"/>
      <point x="553" y="248"/>
      <point x="563" y="293" type="curve" smooth="yes"/>
      <point x="719" y="1030" type="line"/>
      <point x="1012" y="1030" type="line"/>
      <point x="1024" y="1081" type="line"/>
      <point x="731" y="1081" type="line"/>
      <point x="788" y="1350" type="line"/>
      <point x="745" y="1350" type="line"/>
      <point x="676" y="1081" type="line"/>
      <point x="362" y="1081" type="line"/>
      <point x="420" y="1350" type="line"/>
      <point x="377" y="1350" type="line"/>
      <point x="307" y="1081" type="line"/>
      <point x="129" y="1075" type="line"/>
      <point x="119" y="1030" type="line"/>
      <point x="297" y="1030" type="line"/>
      <point x="78" y="0" type="line"/>
      <point x="131" y="0" type="line"/>
      <point x="350" y="1030" type="line"/>
      <point x="666" y="1030" type="line"/>
      <point x="508" y="287" type="line" smooth="yes"/>
      <point x="498" y="244"/>
      <point x="494" y="203"/>
      <point x="494" y="168" type="curve" smooth="yes"/>
      <point x="494" y="49"/>
      <point x="532" y="-20"/>
    </contour>
  </outline>
</glyph>
